<mxfile host="app.diagrams.net" agent="Mozilla/5.0 (Windows NT 10.0; Win64; x64) AppleWebKit/537.36 (KHTML, like Gecko) Chrome/130.0.0.0 Safari/537.36" version="24.8.6">
  <diagram name="Страница — 1" id="ooyg9lGCSmbTON768JsI">
    <mxGraphModel dx="1242" dy="785" grid="1" gridSize="10" guides="1" tooltips="1" connect="1" arrows="1" fold="1" page="1" pageScale="1" pageWidth="827" pageHeight="1169" math="0" shadow="0">
      <root>
        <mxCell id="0" />
        <mxCell id="1" parent="0" />
        <mxCell id="_hT9IFy-ku6c-q67gdyz-1" value="x10" style="ellipse;whiteSpace=wrap;html=1;aspect=fixed;" vertex="1" parent="1">
          <mxGeometry x="760" y="400" width="40" height="40" as="geometry" />
        </mxCell>
        <mxCell id="_hT9IFy-ku6c-q67gdyz-2" value="x11" style="ellipse;whiteSpace=wrap;html=1;aspect=fixed;" vertex="1" parent="1">
          <mxGeometry x="690" y="340" width="40" height="40" as="geometry" />
        </mxCell>
        <mxCell id="_hT9IFy-ku6c-q67gdyz-3" value="x7" style="ellipse;whiteSpace=wrap;html=1;aspect=fixed;" vertex="1" parent="1">
          <mxGeometry x="600" y="150" width="40" height="40" as="geometry" />
        </mxCell>
        <mxCell id="_hT9IFy-ku6c-q67gdyz-4" value="x8" style="ellipse;whiteSpace=wrap;html=1;aspect=fixed;" vertex="1" parent="1">
          <mxGeometry x="670" y="200" width="40" height="40" as="geometry" />
        </mxCell>
        <mxCell id="_hT9IFy-ku6c-q67gdyz-5" value="x9" style="ellipse;whiteSpace=wrap;html=1;aspect=fixed;" vertex="1" parent="1">
          <mxGeometry x="770" y="260" width="40" height="40" as="geometry" />
        </mxCell>
        <mxCell id="_hT9IFy-ku6c-q67gdyz-6" value="x12" style="ellipse;whiteSpace=wrap;html=1;aspect=fixed;" vertex="1" parent="1">
          <mxGeometry x="620" y="410" width="40" height="40" as="geometry" />
        </mxCell>
        <mxCell id="_hT9IFy-ku6c-q67gdyz-7" value="x13" style="ellipse;whiteSpace=wrap;html=1;aspect=fixed;" vertex="1" parent="1">
          <mxGeometry x="500" y="380" width="40" height="40" as="geometry" />
        </mxCell>
        <mxCell id="_hT9IFy-ku6c-q67gdyz-8" value="x14" style="ellipse;whiteSpace=wrap;html=1;aspect=fixed;" vertex="1" parent="1">
          <mxGeometry x="380" y="420" width="40" height="40" as="geometry" />
        </mxCell>
        <mxCell id="_hT9IFy-ku6c-q67gdyz-9" value="x15" style="ellipse;whiteSpace=wrap;html=1;aspect=fixed;" vertex="1" parent="1">
          <mxGeometry x="260" y="410" width="40" height="40" as="geometry" />
        </mxCell>
        <mxCell id="_hT9IFy-ku6c-q67gdyz-10" value="x5" style="ellipse;whiteSpace=wrap;html=1;aspect=fixed;" vertex="1" parent="1">
          <mxGeometry x="430" y="250" width="40" height="40" as="geometry" />
        </mxCell>
        <mxCell id="_hT9IFy-ku6c-q67gdyz-11" value="x4" style="ellipse;whiteSpace=wrap;html=1;aspect=fixed;" vertex="1" parent="1">
          <mxGeometry x="330" y="210" width="40" height="40" as="geometry" />
        </mxCell>
        <mxCell id="_hT9IFy-ku6c-q67gdyz-62" value="v24" style="edgeStyle=orthogonalEdgeStyle;rounded=0;orthogonalLoop=1;jettySize=auto;html=1;entryX=1;entryY=0.5;entryDx=0;entryDy=0;" edge="1" parent="1" source="_hT9IFy-ku6c-q67gdyz-12" target="_hT9IFy-ku6c-q67gdyz-1">
          <mxGeometry x="-0.24" relative="1" as="geometry">
            <Array as="points">
              <mxPoint x="200" y="140" />
              <mxPoint x="820" y="140" />
              <mxPoint x="820" y="420" />
            </Array>
            <mxPoint as="offset" />
          </mxGeometry>
        </mxCell>
        <mxCell id="_hT9IFy-ku6c-q67gdyz-12" value="x3" style="ellipse;whiteSpace=wrap;html=1;aspect=fixed;" vertex="1" parent="1">
          <mxGeometry x="180" y="220" width="40" height="40" as="geometry" />
        </mxCell>
        <mxCell id="_hT9IFy-ku6c-q67gdyz-13" value="x2" style="ellipse;whiteSpace=wrap;html=1;aspect=fixed;" vertex="1" parent="1">
          <mxGeometry x="250" y="280" width="40" height="40" as="geometry" />
        </mxCell>
        <mxCell id="_hT9IFy-ku6c-q67gdyz-14" value="x1" style="ellipse;whiteSpace=wrap;html=1;aspect=fixed;" vertex="1" parent="1">
          <mxGeometry x="170" y="340" width="40" height="40" as="geometry" />
        </mxCell>
        <mxCell id="_hT9IFy-ku6c-q67gdyz-19" value="x6" style="ellipse;whiteSpace=wrap;html=1;aspect=fixed;" vertex="1" parent="1">
          <mxGeometry x="520" y="210" width="40" height="40" as="geometry" />
        </mxCell>
        <mxCell id="_hT9IFy-ku6c-q67gdyz-21" value="x10" style="ellipse;whiteSpace=wrap;html=1;aspect=fixed;" vertex="1" parent="1">
          <mxGeometry x="770" y="800" width="40" height="40" as="geometry" />
        </mxCell>
        <mxCell id="_hT9IFy-ku6c-q67gdyz-22" value="x11" style="ellipse;whiteSpace=wrap;html=1;aspect=fixed;" vertex="1" parent="1">
          <mxGeometry x="700" y="740" width="40" height="40" as="geometry" />
        </mxCell>
        <mxCell id="_hT9IFy-ku6c-q67gdyz-23" value="x7" style="ellipse;whiteSpace=wrap;html=1;aspect=fixed;" vertex="1" parent="1">
          <mxGeometry x="610" y="550" width="40" height="40" as="geometry" />
        </mxCell>
        <mxCell id="_hT9IFy-ku6c-q67gdyz-24" value="x8" style="ellipse;whiteSpace=wrap;html=1;aspect=fixed;" vertex="1" parent="1">
          <mxGeometry x="680" y="600" width="40" height="40" as="geometry" />
        </mxCell>
        <mxCell id="_hT9IFy-ku6c-q67gdyz-25" value="x9" style="ellipse;whiteSpace=wrap;html=1;aspect=fixed;" vertex="1" parent="1">
          <mxGeometry x="780" y="660" width="40" height="40" as="geometry" />
        </mxCell>
        <mxCell id="_hT9IFy-ku6c-q67gdyz-26" value="x12" style="ellipse;whiteSpace=wrap;html=1;aspect=fixed;" vertex="1" parent="1">
          <mxGeometry x="630" y="810" width="40" height="40" as="geometry" />
        </mxCell>
        <mxCell id="_hT9IFy-ku6c-q67gdyz-27" value="x13" style="ellipse;whiteSpace=wrap;html=1;aspect=fixed;" vertex="1" parent="1">
          <mxGeometry x="510" y="780" width="40" height="40" as="geometry" />
        </mxCell>
        <mxCell id="_hT9IFy-ku6c-q67gdyz-28" value="x14" style="ellipse;whiteSpace=wrap;html=1;aspect=fixed;" vertex="1" parent="1">
          <mxGeometry x="390" y="820" width="40" height="40" as="geometry" />
        </mxCell>
        <mxCell id="_hT9IFy-ku6c-q67gdyz-29" value="x15" style="ellipse;whiteSpace=wrap;html=1;aspect=fixed;" vertex="1" parent="1">
          <mxGeometry x="270" y="810" width="40" height="40" as="geometry" />
        </mxCell>
        <mxCell id="_hT9IFy-ku6c-q67gdyz-30" value="x5" style="ellipse;whiteSpace=wrap;html=1;aspect=fixed;" vertex="1" parent="1">
          <mxGeometry x="440" y="650" width="40" height="40" as="geometry" />
        </mxCell>
        <mxCell id="_hT9IFy-ku6c-q67gdyz-31" value="x4" style="ellipse;whiteSpace=wrap;html=1;aspect=fixed;" vertex="1" parent="1">
          <mxGeometry x="340" y="610" width="40" height="40" as="geometry" />
        </mxCell>
        <mxCell id="_hT9IFy-ku6c-q67gdyz-32" value="x3" style="ellipse;whiteSpace=wrap;html=1;aspect=fixed;" vertex="1" parent="1">
          <mxGeometry x="190" y="620" width="40" height="40" as="geometry" />
        </mxCell>
        <mxCell id="_hT9IFy-ku6c-q67gdyz-33" value="x2" style="ellipse;whiteSpace=wrap;html=1;aspect=fixed;" vertex="1" parent="1">
          <mxGeometry x="260" y="680" width="40" height="40" as="geometry" />
        </mxCell>
        <mxCell id="_hT9IFy-ku6c-q67gdyz-34" value="x1" style="ellipse;whiteSpace=wrap;html=1;aspect=fixed;" vertex="1" parent="1">
          <mxGeometry x="180" y="740" width="40" height="40" as="geometry" />
        </mxCell>
        <mxCell id="_hT9IFy-ku6c-q67gdyz-35" value="x6" style="ellipse;whiteSpace=wrap;html=1;aspect=fixed;" vertex="1" parent="1">
          <mxGeometry x="530" y="610" width="40" height="40" as="geometry" />
        </mxCell>
        <mxCell id="_hT9IFy-ku6c-q67gdyz-36" value="v1" style="endArrow=classic;html=1;rounded=0;exitX=1;exitY=0;exitDx=0;exitDy=0;entryX=0;entryY=1;entryDx=0;entryDy=0;" edge="1" parent="1" source="_hT9IFy-ku6c-q67gdyz-14" target="_hT9IFy-ku6c-q67gdyz-13">
          <mxGeometry width="50" height="50" relative="1" as="geometry">
            <mxPoint x="410" y="350" as="sourcePoint" />
            <mxPoint x="460" y="300" as="targetPoint" />
          </mxGeometry>
        </mxCell>
        <mxCell id="_hT9IFy-ku6c-q67gdyz-37" value="v2" style="endArrow=classic;html=1;rounded=0;exitX=0.5;exitY=0;exitDx=0;exitDy=0;entryX=0.5;entryY=1;entryDx=0;entryDy=0;" edge="1" parent="1" source="_hT9IFy-ku6c-q67gdyz-14" target="_hT9IFy-ku6c-q67gdyz-12">
          <mxGeometry width="50" height="50" relative="1" as="geometry">
            <mxPoint x="214" y="356" as="sourcePoint" />
            <mxPoint x="266" y="324" as="targetPoint" />
          </mxGeometry>
        </mxCell>
        <mxCell id="_hT9IFy-ku6c-q67gdyz-39" value="v23" style="endArrow=classic;html=1;rounded=0;exitX=0;exitY=0;exitDx=0;exitDy=0;entryX=1;entryY=1;entryDx=0;entryDy=0;" edge="1" parent="1" source="_hT9IFy-ku6c-q67gdyz-9" target="_hT9IFy-ku6c-q67gdyz-14">
          <mxGeometry width="50" height="50" relative="1" as="geometry">
            <mxPoint x="410" y="350" as="sourcePoint" />
            <mxPoint x="290" y="360" as="targetPoint" />
          </mxGeometry>
        </mxCell>
        <mxCell id="_hT9IFy-ku6c-q67gdyz-40" value="v19" style="endArrow=classic;html=1;rounded=0;exitX=0;exitY=0.5;exitDx=0;exitDy=0;entryX=1;entryY=0.5;entryDx=0;entryDy=0;" edge="1" parent="1" source="_hT9IFy-ku6c-q67gdyz-8" target="_hT9IFy-ku6c-q67gdyz-9">
          <mxGeometry width="50" height="50" relative="1" as="geometry">
            <mxPoint x="224" y="366" as="sourcePoint" />
            <mxPoint x="276" y="334" as="targetPoint" />
          </mxGeometry>
        </mxCell>
        <mxCell id="_hT9IFy-ku6c-q67gdyz-41" value="v20" style="endArrow=classic;html=1;rounded=0;exitX=0.5;exitY=0;exitDx=0;exitDy=0;entryX=0;entryY=1;entryDx=0;entryDy=0;" edge="1" parent="1" source="_hT9IFy-ku6c-q67gdyz-8" target="_hT9IFy-ku6c-q67gdyz-10">
          <mxGeometry x="-0.4132" y="1" width="50" height="50" relative="1" as="geometry">
            <mxPoint x="234" y="376" as="sourcePoint" />
            <mxPoint x="286" y="344" as="targetPoint" />
            <mxPoint as="offset" />
          </mxGeometry>
        </mxCell>
        <mxCell id="_hT9IFy-ku6c-q67gdyz-44" value="v21" style="endArrow=classic;html=1;rounded=0;exitX=1;exitY=0;exitDx=0;exitDy=0;entryX=0.5;entryY=1;entryDx=0;entryDy=0;" edge="1" parent="1" source="_hT9IFy-ku6c-q67gdyz-8" target="_hT9IFy-ku6c-q67gdyz-10">
          <mxGeometry x="0.2755" y="-3" width="50" height="50" relative="1" as="geometry">
            <mxPoint x="410" y="350" as="sourcePoint" />
            <mxPoint x="460" y="300" as="targetPoint" />
            <mxPoint as="offset" />
          </mxGeometry>
        </mxCell>
        <mxCell id="_hT9IFy-ku6c-q67gdyz-45" value="v4" style="endArrow=classic;html=1;rounded=0;exitX=1;exitY=0;exitDx=0;exitDy=0;entryX=0;entryY=1;entryDx=0;entryDy=0;" edge="1" parent="1" source="_hT9IFy-ku6c-q67gdyz-13" target="_hT9IFy-ku6c-q67gdyz-11">
          <mxGeometry width="50" height="50" relative="1" as="geometry">
            <mxPoint x="410" y="350" as="sourcePoint" />
            <mxPoint x="460" y="300" as="targetPoint" />
          </mxGeometry>
        </mxCell>
        <mxCell id="_hT9IFy-ku6c-q67gdyz-46" value="v3" style="endArrow=classic;html=1;rounded=0;exitX=0;exitY=0;exitDx=0;exitDy=0;entryX=1;entryY=1;entryDx=0;entryDy=0;" edge="1" parent="1" source="_hT9IFy-ku6c-q67gdyz-13" target="_hT9IFy-ku6c-q67gdyz-12">
          <mxGeometry width="50" height="50" relative="1" as="geometry">
            <mxPoint x="410" y="350" as="sourcePoint" />
            <mxPoint x="460" y="300" as="targetPoint" />
          </mxGeometry>
        </mxCell>
        <mxCell id="_hT9IFy-ku6c-q67gdyz-47" value="v5" style="endArrow=classic;html=1;rounded=0;exitX=1;exitY=0.5;exitDx=0;exitDy=0;entryX=0;entryY=0.5;entryDx=0;entryDy=0;" edge="1" parent="1" source="_hT9IFy-ku6c-q67gdyz-12" target="_hT9IFy-ku6c-q67gdyz-11">
          <mxGeometry width="50" height="50" relative="1" as="geometry">
            <mxPoint x="410" y="350" as="sourcePoint" />
            <mxPoint x="460" y="300" as="targetPoint" />
          </mxGeometry>
        </mxCell>
        <mxCell id="_hT9IFy-ku6c-q67gdyz-48" value="v6" style="endArrow=classic;html=1;rounded=0;exitX=1;exitY=0.5;exitDx=0;exitDy=0;entryX=0.021;entryY=0.383;entryDx=0;entryDy=0;entryPerimeter=0;" edge="1" parent="1" source="_hT9IFy-ku6c-q67gdyz-11" target="_hT9IFy-ku6c-q67gdyz-10">
          <mxGeometry width="50" height="50" relative="1" as="geometry">
            <mxPoint x="410" y="350" as="sourcePoint" />
            <mxPoint x="460" y="300" as="targetPoint" />
          </mxGeometry>
        </mxCell>
        <mxCell id="_hT9IFy-ku6c-q67gdyz-49" value="v7" style="endArrow=classic;html=1;rounded=0;exitX=1;exitY=0.5;exitDx=0;exitDy=0;entryX=0.029;entryY=0.728;entryDx=0;entryDy=0;entryPerimeter=0;" edge="1" parent="1" source="_hT9IFy-ku6c-q67gdyz-10" target="_hT9IFy-ku6c-q67gdyz-19">
          <mxGeometry width="50" height="50" relative="1" as="geometry">
            <mxPoint x="410" y="350" as="sourcePoint" />
            <mxPoint x="460" y="300" as="targetPoint" />
          </mxGeometry>
        </mxCell>
        <mxCell id="_hT9IFy-ku6c-q67gdyz-50" value="v8" style="endArrow=classic;html=1;rounded=0;exitX=1;exitY=0;exitDx=0;exitDy=0;entryX=0;entryY=1;entryDx=0;entryDy=0;" edge="1" parent="1" source="_hT9IFy-ku6c-q67gdyz-19" target="_hT9IFy-ku6c-q67gdyz-3">
          <mxGeometry x="0.0004" width="50" height="50" relative="1" as="geometry">
            <mxPoint x="480" y="280" as="sourcePoint" />
            <mxPoint x="531" y="249" as="targetPoint" />
            <mxPoint as="offset" />
          </mxGeometry>
        </mxCell>
        <mxCell id="_hT9IFy-ku6c-q67gdyz-51" value="v10" style="endArrow=classic;html=1;rounded=0;exitX=1;exitY=1;exitDx=0;exitDy=0;entryX=0;entryY=0;entryDx=0;entryDy=0;" edge="1" parent="1" source="_hT9IFy-ku6c-q67gdyz-3" target="_hT9IFy-ku6c-q67gdyz-4">
          <mxGeometry x="0.0004" width="50" height="50" relative="1" as="geometry">
            <mxPoint x="564" y="226" as="sourcePoint" />
            <mxPoint x="616" y="194" as="targetPoint" />
            <mxPoint as="offset" />
          </mxGeometry>
        </mxCell>
        <mxCell id="_hT9IFy-ku6c-q67gdyz-52" value="v9" style="endArrow=classic;html=1;rounded=0;exitX=1;exitY=0.5;exitDx=0;exitDy=0;entryX=0;entryY=0.5;entryDx=0;entryDy=0;" edge="1" parent="1" source="_hT9IFy-ku6c-q67gdyz-19" target="_hT9IFy-ku6c-q67gdyz-4">
          <mxGeometry width="50" height="50" relative="1" as="geometry">
            <mxPoint x="294" y="296" as="sourcePoint" />
            <mxPoint x="346" y="254" as="targetPoint" />
          </mxGeometry>
        </mxCell>
        <mxCell id="_hT9IFy-ku6c-q67gdyz-53" value="v22" style="endArrow=classic;html=1;rounded=0;exitX=1;exitY=1;exitDx=0;exitDy=0;entryX=0;entryY=1;entryDx=0;entryDy=0;curved=1;" edge="1" parent="1" source="_hT9IFy-ku6c-q67gdyz-19" target="_hT9IFy-ku6c-q67gdyz-4">
          <mxGeometry width="50" height="50" relative="1" as="geometry">
            <mxPoint x="570" y="240" as="sourcePoint" />
            <mxPoint x="680" y="230" as="targetPoint" />
            <Array as="points">
              <mxPoint x="610" y="260" />
            </Array>
          </mxGeometry>
        </mxCell>
        <mxCell id="_hT9IFy-ku6c-q67gdyz-54" value="v11" style="endArrow=classic;html=1;rounded=0;exitX=1;exitY=1;exitDx=0;exitDy=0;entryX=0;entryY=0;entryDx=0;entryDy=0;" edge="1" parent="1" source="_hT9IFy-ku6c-q67gdyz-4" target="_hT9IFy-ku6c-q67gdyz-5">
          <mxGeometry width="50" height="50" relative="1" as="geometry">
            <mxPoint x="410" y="350" as="sourcePoint" />
            <mxPoint x="770" y="270" as="targetPoint" />
          </mxGeometry>
        </mxCell>
        <mxCell id="_hT9IFy-ku6c-q67gdyz-55" value="v13" style="endArrow=classic;html=1;rounded=0;exitX=0;exitY=1;exitDx=0;exitDy=0;entryX=1;entryY=0;entryDx=0;entryDy=0;" edge="1" parent="1" source="_hT9IFy-ku6c-q67gdyz-5" target="_hT9IFy-ku6c-q67gdyz-2">
          <mxGeometry width="50" height="50" relative="1" as="geometry">
            <mxPoint x="410" y="350" as="sourcePoint" />
            <mxPoint x="460" y="300" as="targetPoint" />
          </mxGeometry>
        </mxCell>
        <mxCell id="_hT9IFy-ku6c-q67gdyz-56" value="v12" style="endArrow=classic;html=1;rounded=0;exitX=0.5;exitY=1;exitDx=0;exitDy=0;entryX=0.5;entryY=0;entryDx=0;entryDy=0;" edge="1" parent="1" source="_hT9IFy-ku6c-q67gdyz-5" target="_hT9IFy-ku6c-q67gdyz-1">
          <mxGeometry width="50" height="50" relative="1" as="geometry">
            <mxPoint x="786" y="304" as="sourcePoint" />
            <mxPoint x="734" y="356" as="targetPoint" />
          </mxGeometry>
        </mxCell>
        <mxCell id="_hT9IFy-ku6c-q67gdyz-57" value="v14" style="endArrow=classic;html=1;rounded=0;exitX=0;exitY=0;exitDx=0;exitDy=0;entryX=1;entryY=1;entryDx=0;entryDy=0;" edge="1" parent="1" source="_hT9IFy-ku6c-q67gdyz-1" target="_hT9IFy-ku6c-q67gdyz-2">
          <mxGeometry width="50" height="50" relative="1" as="geometry">
            <mxPoint x="786" y="304" as="sourcePoint" />
            <mxPoint x="734" y="356" as="targetPoint" />
          </mxGeometry>
        </mxCell>
        <mxCell id="_hT9IFy-ku6c-q67gdyz-58" value="v16" style="endArrow=classic;html=1;rounded=0;exitX=0;exitY=1;exitDx=0;exitDy=0;entryX=0.788;entryY=-0.014;entryDx=0;entryDy=0;entryPerimeter=0;" edge="1" parent="1" source="_hT9IFy-ku6c-q67gdyz-2" target="_hT9IFy-ku6c-q67gdyz-6">
          <mxGeometry width="50" height="50" relative="1" as="geometry">
            <mxPoint x="796" y="314" as="sourcePoint" />
            <mxPoint x="744" y="366" as="targetPoint" />
          </mxGeometry>
        </mxCell>
        <mxCell id="_hT9IFy-ku6c-q67gdyz-59" value="v15" style="endArrow=classic;html=1;rounded=0;exitX=0;exitY=0.5;exitDx=0;exitDy=0;entryX=1;entryY=0.5;entryDx=0;entryDy=0;" edge="1" parent="1" source="_hT9IFy-ku6c-q67gdyz-1" target="_hT9IFy-ku6c-q67gdyz-6">
          <mxGeometry width="50" height="50" relative="1" as="geometry">
            <mxPoint x="570" y="240" as="sourcePoint" />
            <mxPoint x="680" y="230" as="targetPoint" />
          </mxGeometry>
        </mxCell>
        <mxCell id="_hT9IFy-ku6c-q67gdyz-60" value="v17" style="endArrow=classic;html=1;rounded=0;exitX=-0.005;exitY=0.366;exitDx=0;exitDy=0;entryX=1;entryY=0.5;entryDx=0;entryDy=0;exitPerimeter=0;" edge="1" parent="1" source="_hT9IFy-ku6c-q67gdyz-6" target="_hT9IFy-ku6c-q67gdyz-7">
          <mxGeometry width="50" height="50" relative="1" as="geometry">
            <mxPoint x="580" y="250" as="sourcePoint" />
            <mxPoint x="690" y="240" as="targetPoint" />
          </mxGeometry>
        </mxCell>
        <mxCell id="_hT9IFy-ku6c-q67gdyz-61" value="v18" style="endArrow=classic;html=1;rounded=0;exitX=0;exitY=0.5;exitDx=0;exitDy=0;entryX=1;entryY=0.5;entryDx=0;entryDy=0;" edge="1" parent="1" source="_hT9IFy-ku6c-q67gdyz-7" target="_hT9IFy-ku6c-q67gdyz-8">
          <mxGeometry width="50" height="50" relative="1" as="geometry">
            <mxPoint x="590" y="260" as="sourcePoint" />
            <mxPoint x="700" y="250" as="targetPoint" />
          </mxGeometry>
        </mxCell>
        <mxCell id="_hT9IFy-ku6c-q67gdyz-65" value="v5" style="endArrow=none;html=1;rounded=0;exitX=1;exitY=0.5;exitDx=0;exitDy=0;entryX=0;entryY=0.5;entryDx=0;entryDy=0;" edge="1" parent="1" source="_hT9IFy-ku6c-q67gdyz-32" target="_hT9IFy-ku6c-q67gdyz-31">
          <mxGeometry width="50" height="50" relative="1" as="geometry">
            <mxPoint x="420" y="610" as="sourcePoint" />
            <mxPoint x="470" y="560" as="targetPoint" />
          </mxGeometry>
        </mxCell>
        <mxCell id="_hT9IFy-ku6c-q67gdyz-66" value="v3" style="endArrow=none;html=1;rounded=0;exitX=1;exitY=1;exitDx=0;exitDy=0;entryX=0;entryY=0;entryDx=0;entryDy=0;" edge="1" parent="1" source="_hT9IFy-ku6c-q67gdyz-32" target="_hT9IFy-ku6c-q67gdyz-33">
          <mxGeometry width="50" height="50" relative="1" as="geometry">
            <mxPoint x="240" y="650" as="sourcePoint" />
            <mxPoint x="350" y="640" as="targetPoint" />
          </mxGeometry>
        </mxCell>
        <mxCell id="_hT9IFy-ku6c-q67gdyz-67" value="v2" style="endArrow=none;html=1;rounded=0;exitX=0.5;exitY=1;exitDx=0;exitDy=0;entryX=0.5;entryY=0;entryDx=0;entryDy=0;" edge="1" parent="1" source="_hT9IFy-ku6c-q67gdyz-32" target="_hT9IFy-ku6c-q67gdyz-34">
          <mxGeometry width="50" height="50" relative="1" as="geometry">
            <mxPoint x="234" y="664" as="sourcePoint" />
            <mxPoint x="276" y="696" as="targetPoint" />
          </mxGeometry>
        </mxCell>
        <mxCell id="_hT9IFy-ku6c-q67gdyz-68" value="v1" style="endArrow=none;html=1;rounded=0;exitX=1;exitY=0;exitDx=0;exitDy=0;entryX=0;entryY=1;entryDx=0;entryDy=0;" edge="1" parent="1" source="_hT9IFy-ku6c-q67gdyz-34" target="_hT9IFy-ku6c-q67gdyz-33">
          <mxGeometry width="50" height="50" relative="1" as="geometry">
            <mxPoint x="244" y="674" as="sourcePoint" />
            <mxPoint x="286" y="706" as="targetPoint" />
          </mxGeometry>
        </mxCell>
        <mxCell id="_hT9IFy-ku6c-q67gdyz-69" value="v4" style="endArrow=none;html=1;rounded=0;exitX=1;exitY=0;exitDx=0;exitDy=0;entryX=0;entryY=1;entryDx=0;entryDy=0;" edge="1" parent="1" source="_hT9IFy-ku6c-q67gdyz-33" target="_hT9IFy-ku6c-q67gdyz-31">
          <mxGeometry width="50" height="50" relative="1" as="geometry">
            <mxPoint x="224" y="756" as="sourcePoint" />
            <mxPoint x="276" y="724" as="targetPoint" />
          </mxGeometry>
        </mxCell>
        <mxCell id="_hT9IFy-ku6c-q67gdyz-72" value="v6" style="endArrow=none;html=1;rounded=0;exitX=1;exitY=0.5;exitDx=0;exitDy=0;entryX=0;entryY=0.5;entryDx=0;entryDy=0;" edge="1" parent="1" source="_hT9IFy-ku6c-q67gdyz-31" target="_hT9IFy-ku6c-q67gdyz-30">
          <mxGeometry width="50" height="50" relative="1" as="geometry">
            <mxPoint x="420" y="610" as="sourcePoint" />
            <mxPoint x="470" y="560" as="targetPoint" />
          </mxGeometry>
        </mxCell>
        <mxCell id="_hT9IFy-ku6c-q67gdyz-73" value="v23" style="endArrow=none;html=1;rounded=0;exitX=1;exitY=1;exitDx=0;exitDy=0;" edge="1" parent="1" source="_hT9IFy-ku6c-q67gdyz-34" target="_hT9IFy-ku6c-q67gdyz-29">
          <mxGeometry width="50" height="50" relative="1" as="geometry">
            <mxPoint x="400" y="700" as="sourcePoint" />
            <mxPoint x="450" y="650" as="targetPoint" />
          </mxGeometry>
        </mxCell>
        <mxCell id="_hT9IFy-ku6c-q67gdyz-74" value="v19" style="endArrow=none;html=1;rounded=0;exitX=1;exitY=0.5;exitDx=0;exitDy=0;entryX=0;entryY=0.5;entryDx=0;entryDy=0;" edge="1" parent="1" source="_hT9IFy-ku6c-q67gdyz-29" target="_hT9IFy-ku6c-q67gdyz-28">
          <mxGeometry width="50" height="50" relative="1" as="geometry">
            <mxPoint x="400" y="700" as="sourcePoint" />
            <mxPoint x="430" y="700" as="targetPoint" />
          </mxGeometry>
        </mxCell>
        <mxCell id="_hT9IFy-ku6c-q67gdyz-75" value="v20" style="endArrow=none;html=1;rounded=0;exitX=0.5;exitY=0;exitDx=0;exitDy=0;entryX=0;entryY=1;entryDx=0;entryDy=0;" edge="1" parent="1" source="_hT9IFy-ku6c-q67gdyz-28" target="_hT9IFy-ku6c-q67gdyz-30">
          <mxGeometry x="0.1737" y="1" width="50" height="50" relative="1" as="geometry">
            <mxPoint x="400" y="700" as="sourcePoint" />
            <mxPoint x="450" y="650" as="targetPoint" />
            <mxPoint as="offset" />
          </mxGeometry>
        </mxCell>
        <mxCell id="_hT9IFy-ku6c-q67gdyz-76" value="v21" style="endArrow=none;html=1;rounded=0;exitX=1;exitY=0;exitDx=0;exitDy=0;entryX=0.5;entryY=1;entryDx=0;entryDy=0;" edge="1" parent="1" source="_hT9IFy-ku6c-q67gdyz-28" target="_hT9IFy-ku6c-q67gdyz-30">
          <mxGeometry x="-0.3113" y="-4" width="50" height="50" relative="1" as="geometry">
            <mxPoint x="420" y="830" as="sourcePoint" />
            <mxPoint x="456" y="694" as="targetPoint" />
            <mxPoint as="offset" />
          </mxGeometry>
        </mxCell>
        <mxCell id="_hT9IFy-ku6c-q67gdyz-77" value="v18" style="endArrow=none;html=1;rounded=0;exitX=1;exitY=0.5;exitDx=0;exitDy=0;entryX=0;entryY=0.5;entryDx=0;entryDy=0;" edge="1" parent="1" source="_hT9IFy-ku6c-q67gdyz-28" target="_hT9IFy-ku6c-q67gdyz-27">
          <mxGeometry width="50" height="50" relative="1" as="geometry">
            <mxPoint x="400" y="700" as="sourcePoint" />
            <mxPoint x="450" y="650" as="targetPoint" />
          </mxGeometry>
        </mxCell>
        <mxCell id="_hT9IFy-ku6c-q67gdyz-78" value="v17" style="endArrow=none;html=1;rounded=0;exitX=0;exitY=0.5;exitDx=0;exitDy=0;entryX=1;entryY=0.5;entryDx=0;entryDy=0;" edge="1" parent="1" source="_hT9IFy-ku6c-q67gdyz-26" target="_hT9IFy-ku6c-q67gdyz-27">
          <mxGeometry width="50" height="50" relative="1" as="geometry">
            <mxPoint x="400" y="700" as="sourcePoint" />
            <mxPoint x="450" y="650" as="targetPoint" />
          </mxGeometry>
        </mxCell>
        <mxCell id="_hT9IFy-ku6c-q67gdyz-79" value="v16" style="endArrow=none;html=1;rounded=0;exitX=0;exitY=1;exitDx=0;exitDy=0;entryX=1;entryY=0;entryDx=0;entryDy=0;" edge="1" parent="1" source="_hT9IFy-ku6c-q67gdyz-22" target="_hT9IFy-ku6c-q67gdyz-26">
          <mxGeometry width="50" height="50" relative="1" as="geometry">
            <mxPoint x="400" y="700" as="sourcePoint" />
            <mxPoint x="450" y="650" as="targetPoint" />
          </mxGeometry>
        </mxCell>
        <mxCell id="_hT9IFy-ku6c-q67gdyz-80" value="v15" style="endArrow=none;html=1;rounded=0;exitX=1;exitY=0.5;exitDx=0;exitDy=0;entryX=0;entryY=0.5;entryDx=0;entryDy=0;" edge="1" parent="1" source="_hT9IFy-ku6c-q67gdyz-26" target="_hT9IFy-ku6c-q67gdyz-21">
          <mxGeometry width="50" height="50" relative="1" as="geometry">
            <mxPoint x="430" y="840" as="sourcePoint" />
            <mxPoint x="466" y="704" as="targetPoint" />
          </mxGeometry>
        </mxCell>
        <mxCell id="_hT9IFy-ku6c-q67gdyz-81" value="v7" style="endArrow=none;html=1;rounded=0;entryX=0;entryY=1;entryDx=0;entryDy=0;exitX=1;exitY=0.5;exitDx=0;exitDy=0;" edge="1" parent="1" source="_hT9IFy-ku6c-q67gdyz-30" target="_hT9IFy-ku6c-q67gdyz-35">
          <mxGeometry width="50" height="50" relative="1" as="geometry">
            <mxPoint x="400" y="700" as="sourcePoint" />
            <mxPoint x="450" y="650" as="targetPoint" />
          </mxGeometry>
        </mxCell>
        <mxCell id="_hT9IFy-ku6c-q67gdyz-82" value="v8" style="endArrow=none;html=1;rounded=0;entryX=0;entryY=1;entryDx=0;entryDy=0;exitX=1;exitY=0;exitDx=0;exitDy=0;" edge="1" parent="1" source="_hT9IFy-ku6c-q67gdyz-35" target="_hT9IFy-ku6c-q67gdyz-23">
          <mxGeometry width="50" height="50" relative="1" as="geometry">
            <mxPoint x="400" y="700" as="sourcePoint" />
            <mxPoint x="450" y="650" as="targetPoint" />
          </mxGeometry>
        </mxCell>
        <mxCell id="_hT9IFy-ku6c-q67gdyz-83" value="v10" style="endArrow=none;html=1;rounded=0;entryX=0;entryY=0;entryDx=0;entryDy=0;exitX=0.967;exitY=0.721;exitDx=0;exitDy=0;exitPerimeter=0;" edge="1" parent="1" source="_hT9IFy-ku6c-q67gdyz-23" target="_hT9IFy-ku6c-q67gdyz-24">
          <mxGeometry width="50" height="50" relative="1" as="geometry">
            <mxPoint x="400" y="700" as="sourcePoint" />
            <mxPoint x="450" y="650" as="targetPoint" />
          </mxGeometry>
        </mxCell>
        <mxCell id="_hT9IFy-ku6c-q67gdyz-84" value="v9" style="endArrow=none;html=1;rounded=0;entryX=0;entryY=0.5;entryDx=0;entryDy=0;exitX=1;exitY=0.5;exitDx=0;exitDy=0;" edge="1" parent="1" source="_hT9IFy-ku6c-q67gdyz-35" target="_hT9IFy-ku6c-q67gdyz-24">
          <mxGeometry width="50" height="50" relative="1" as="geometry">
            <mxPoint x="400" y="700" as="sourcePoint" />
            <mxPoint x="450" y="650" as="targetPoint" />
          </mxGeometry>
        </mxCell>
        <mxCell id="_hT9IFy-ku6c-q67gdyz-85" value="v22" style="endArrow=none;html=1;rounded=0;entryX=0;entryY=1;entryDx=0;entryDy=0;exitX=1;exitY=1;exitDx=0;exitDy=0;curved=1;" edge="1" parent="1" source="_hT9IFy-ku6c-q67gdyz-35" target="_hT9IFy-ku6c-q67gdyz-24">
          <mxGeometry width="50" height="50" relative="1" as="geometry">
            <mxPoint x="580" y="640" as="sourcePoint" />
            <mxPoint x="690" y="630" as="targetPoint" />
            <Array as="points">
              <mxPoint x="630" y="660" />
            </Array>
          </mxGeometry>
        </mxCell>
        <mxCell id="_hT9IFy-ku6c-q67gdyz-86" value="v11" style="endArrow=none;html=1;rounded=0;entryX=1;entryY=1;entryDx=0;entryDy=0;exitX=0;exitY=0;exitDx=0;exitDy=0;" edge="1" parent="1" source="_hT9IFy-ku6c-q67gdyz-25" target="_hT9IFy-ku6c-q67gdyz-24">
          <mxGeometry width="50" height="50" relative="1" as="geometry">
            <mxPoint x="400" y="700" as="sourcePoint" />
            <mxPoint x="450" y="650" as="targetPoint" />
          </mxGeometry>
        </mxCell>
        <mxCell id="_hT9IFy-ku6c-q67gdyz-87" value="v13" style="endArrow=none;html=1;rounded=0;entryX=0;entryY=1;entryDx=0;entryDy=0;exitX=1;exitY=0;exitDx=0;exitDy=0;" edge="1" parent="1" source="_hT9IFy-ku6c-q67gdyz-22" target="_hT9IFy-ku6c-q67gdyz-25">
          <mxGeometry width="50" height="50" relative="1" as="geometry">
            <mxPoint x="400" y="700" as="sourcePoint" />
            <mxPoint x="450" y="650" as="targetPoint" />
          </mxGeometry>
        </mxCell>
        <mxCell id="_hT9IFy-ku6c-q67gdyz-88" value="v14" style="endArrow=none;html=1;rounded=0;entryX=0.5;entryY=0;entryDx=0;entryDy=0;exitX=1;exitY=1;exitDx=0;exitDy=0;" edge="1" parent="1" source="_hT9IFy-ku6c-q67gdyz-22" target="_hT9IFy-ku6c-q67gdyz-21">
          <mxGeometry width="50" height="50" relative="1" as="geometry">
            <mxPoint x="400" y="700" as="sourcePoint" />
            <mxPoint x="450" y="650" as="targetPoint" />
          </mxGeometry>
        </mxCell>
        <mxCell id="_hT9IFy-ku6c-q67gdyz-89" value="v12" style="endArrow=none;html=1;rounded=0;entryX=0.5;entryY=1;entryDx=0;entryDy=0;exitX=0.5;exitY=0;exitDx=0;exitDy=0;" edge="1" parent="1" source="_hT9IFy-ku6c-q67gdyz-21" target="_hT9IFy-ku6c-q67gdyz-25">
          <mxGeometry width="50" height="50" relative="1" as="geometry">
            <mxPoint x="400" y="700" as="sourcePoint" />
            <mxPoint x="450" y="650" as="targetPoint" />
          </mxGeometry>
        </mxCell>
        <mxCell id="_hT9IFy-ku6c-q67gdyz-90" value="v24" style="endArrow=none;html=1;rounded=0;exitX=0.5;exitY=0;exitDx=0;exitDy=0;edgeStyle=orthogonalEdgeStyle;entryX=1;entryY=0.5;entryDx=0;entryDy=0;" edge="1" parent="1" source="_hT9IFy-ku6c-q67gdyz-32" target="_hT9IFy-ku6c-q67gdyz-21">
          <mxGeometry x="-0.2" width="50" height="50" relative="1" as="geometry">
            <mxPoint x="210" y="510" as="sourcePoint" />
            <mxPoint x="810" y="710" as="targetPoint" />
            <Array as="points">
              <mxPoint x="210" y="540" />
              <mxPoint x="830" y="540" />
              <mxPoint x="830" y="820" />
            </Array>
            <mxPoint as="offset" />
          </mxGeometry>
        </mxCell>
        <mxCell id="_hT9IFy-ku6c-q67gdyz-92" value="x10" style="ellipse;whiteSpace=wrap;html=1;aspect=fixed;" vertex="1" parent="1">
          <mxGeometry x="1551" y="800" width="40" height="40" as="geometry" />
        </mxCell>
        <mxCell id="_hT9IFy-ku6c-q67gdyz-93" value="x11" style="ellipse;whiteSpace=wrap;html=1;aspect=fixed;" vertex="1" parent="1">
          <mxGeometry x="1481" y="740" width="40" height="40" as="geometry" />
        </mxCell>
        <mxCell id="_hT9IFy-ku6c-q67gdyz-94" value="x7" style="ellipse;whiteSpace=wrap;html=1;aspect=fixed;" vertex="1" parent="1">
          <mxGeometry x="1391" y="550" width="40" height="40" as="geometry" />
        </mxCell>
        <mxCell id="_hT9IFy-ku6c-q67gdyz-95" value="x8" style="ellipse;whiteSpace=wrap;html=1;aspect=fixed;" vertex="1" parent="1">
          <mxGeometry x="1461" y="600" width="40" height="40" as="geometry" />
        </mxCell>
        <mxCell id="_hT9IFy-ku6c-q67gdyz-96" value="x9" style="ellipse;whiteSpace=wrap;html=1;aspect=fixed;" vertex="1" parent="1">
          <mxGeometry x="1561" y="660" width="40" height="40" as="geometry" />
        </mxCell>
        <mxCell id="_hT9IFy-ku6c-q67gdyz-97" value="x12" style="ellipse;whiteSpace=wrap;html=1;aspect=fixed;" vertex="1" parent="1">
          <mxGeometry x="1411" y="810" width="40" height="40" as="geometry" />
        </mxCell>
        <mxCell id="_hT9IFy-ku6c-q67gdyz-98" value="x13" style="ellipse;whiteSpace=wrap;html=1;aspect=fixed;" vertex="1" parent="1">
          <mxGeometry x="1291" y="780" width="40" height="40" as="geometry" />
        </mxCell>
        <mxCell id="_hT9IFy-ku6c-q67gdyz-99" value="x14" style="ellipse;whiteSpace=wrap;html=1;aspect=fixed;" vertex="1" parent="1">
          <mxGeometry x="1171" y="820" width="40" height="40" as="geometry" />
        </mxCell>
        <mxCell id="_hT9IFy-ku6c-q67gdyz-100" value="x15" style="ellipse;whiteSpace=wrap;html=1;aspect=fixed;" vertex="1" parent="1">
          <mxGeometry x="1051" y="810" width="40" height="40" as="geometry" />
        </mxCell>
        <mxCell id="_hT9IFy-ku6c-q67gdyz-101" value="x5" style="ellipse;whiteSpace=wrap;html=1;aspect=fixed;" vertex="1" parent="1">
          <mxGeometry x="1221" y="650" width="40" height="40" as="geometry" />
        </mxCell>
        <mxCell id="_hT9IFy-ku6c-q67gdyz-102" value="x4" style="ellipse;whiteSpace=wrap;html=1;aspect=fixed;" vertex="1" parent="1">
          <mxGeometry x="1121" y="610" width="40" height="40" as="geometry" />
        </mxCell>
        <mxCell id="_hT9IFy-ku6c-q67gdyz-103" value="x3" style="ellipse;whiteSpace=wrap;html=1;aspect=fixed;" vertex="1" parent="1">
          <mxGeometry x="971" y="620" width="40" height="40" as="geometry" />
        </mxCell>
        <mxCell id="_hT9IFy-ku6c-q67gdyz-104" value="x2" style="ellipse;whiteSpace=wrap;html=1;aspect=fixed;" vertex="1" parent="1">
          <mxGeometry x="1041" y="680" width="40" height="40" as="geometry" />
        </mxCell>
        <mxCell id="_hT9IFy-ku6c-q67gdyz-105" value="x1" style="ellipse;whiteSpace=wrap;html=1;aspect=fixed;" vertex="1" parent="1">
          <mxGeometry x="961" y="740" width="40" height="40" as="geometry" />
        </mxCell>
        <mxCell id="_hT9IFy-ku6c-q67gdyz-106" value="x6" style="ellipse;whiteSpace=wrap;html=1;aspect=fixed;" vertex="1" parent="1">
          <mxGeometry x="1311" y="610" width="40" height="40" as="geometry" />
        </mxCell>
        <mxCell id="_hT9IFy-ku6c-q67gdyz-107" value="v5" style="endArrow=none;html=1;rounded=0;exitX=1;exitY=0.5;exitDx=0;exitDy=0;entryX=0;entryY=0.5;entryDx=0;entryDy=0;" edge="1" parent="1" source="_hT9IFy-ku6c-q67gdyz-103" target="_hT9IFy-ku6c-q67gdyz-102">
          <mxGeometry width="50" height="50" relative="1" as="geometry">
            <mxPoint x="1201" y="610" as="sourcePoint" />
            <mxPoint x="1251" y="560" as="targetPoint" />
          </mxGeometry>
        </mxCell>
        <mxCell id="_hT9IFy-ku6c-q67gdyz-108" value="v3" style="endArrow=none;html=1;rounded=0;exitX=1;exitY=1;exitDx=0;exitDy=0;entryX=0;entryY=0;entryDx=0;entryDy=0;" edge="1" parent="1" source="_hT9IFy-ku6c-q67gdyz-103" target="_hT9IFy-ku6c-q67gdyz-104">
          <mxGeometry width="50" height="50" relative="1" as="geometry">
            <mxPoint x="1021" y="650" as="sourcePoint" />
            <mxPoint x="1131" y="640" as="targetPoint" />
          </mxGeometry>
        </mxCell>
        <mxCell id="_hT9IFy-ku6c-q67gdyz-109" value="v2" style="endArrow=none;html=1;rounded=0;exitX=0.5;exitY=1;exitDx=0;exitDy=0;entryX=0.5;entryY=0;entryDx=0;entryDy=0;" edge="1" parent="1" source="_hT9IFy-ku6c-q67gdyz-103" target="_hT9IFy-ku6c-q67gdyz-105">
          <mxGeometry width="50" height="50" relative="1" as="geometry">
            <mxPoint x="1015" y="664" as="sourcePoint" />
            <mxPoint x="1057" y="696" as="targetPoint" />
          </mxGeometry>
        </mxCell>
        <mxCell id="_hT9IFy-ku6c-q67gdyz-110" value="v1" style="endArrow=none;html=1;rounded=0;exitX=1;exitY=0;exitDx=0;exitDy=0;entryX=0;entryY=1;entryDx=0;entryDy=0;" edge="1" parent="1" source="_hT9IFy-ku6c-q67gdyz-105" target="_hT9IFy-ku6c-q67gdyz-104">
          <mxGeometry width="50" height="50" relative="1" as="geometry">
            <mxPoint x="1025" y="674" as="sourcePoint" />
            <mxPoint x="1067" y="706" as="targetPoint" />
          </mxGeometry>
        </mxCell>
        <mxCell id="_hT9IFy-ku6c-q67gdyz-111" value="v4" style="endArrow=none;html=1;rounded=0;exitX=1;exitY=0;exitDx=0;exitDy=0;entryX=0;entryY=1;entryDx=0;entryDy=0;" edge="1" parent="1" source="_hT9IFy-ku6c-q67gdyz-104" target="_hT9IFy-ku6c-q67gdyz-102">
          <mxGeometry width="50" height="50" relative="1" as="geometry">
            <mxPoint x="1005" y="756" as="sourcePoint" />
            <mxPoint x="1057" y="724" as="targetPoint" />
          </mxGeometry>
        </mxCell>
        <mxCell id="_hT9IFy-ku6c-q67gdyz-112" value="v6" style="endArrow=none;html=1;rounded=0;exitX=1;exitY=0.5;exitDx=0;exitDy=0;entryX=0;entryY=0.5;entryDx=0;entryDy=0;" edge="1" parent="1" source="_hT9IFy-ku6c-q67gdyz-102" target="_hT9IFy-ku6c-q67gdyz-101">
          <mxGeometry width="50" height="50" relative="1" as="geometry">
            <mxPoint x="1201" y="610" as="sourcePoint" />
            <mxPoint x="1251" y="560" as="targetPoint" />
          </mxGeometry>
        </mxCell>
        <mxCell id="_hT9IFy-ku6c-q67gdyz-113" value="v23" style="endArrow=none;html=1;rounded=0;exitX=1;exitY=1;exitDx=0;exitDy=0;" edge="1" parent="1" source="_hT9IFy-ku6c-q67gdyz-105" target="_hT9IFy-ku6c-q67gdyz-100">
          <mxGeometry width="50" height="50" relative="1" as="geometry">
            <mxPoint x="1181" y="700" as="sourcePoint" />
            <mxPoint x="1231" y="650" as="targetPoint" />
          </mxGeometry>
        </mxCell>
        <mxCell id="_hT9IFy-ku6c-q67gdyz-114" value="v19" style="endArrow=none;html=1;rounded=0;exitX=1;exitY=0.5;exitDx=0;exitDy=0;entryX=0;entryY=0.5;entryDx=0;entryDy=0;" edge="1" parent="1" source="_hT9IFy-ku6c-q67gdyz-100" target="_hT9IFy-ku6c-q67gdyz-99">
          <mxGeometry width="50" height="50" relative="1" as="geometry">
            <mxPoint x="1181" y="700" as="sourcePoint" />
            <mxPoint x="1211" y="700" as="targetPoint" />
          </mxGeometry>
        </mxCell>
        <mxCell id="_hT9IFy-ku6c-q67gdyz-115" value="v20" style="endArrow=none;html=1;rounded=0;exitX=0.5;exitY=0;exitDx=0;exitDy=0;entryX=0;entryY=1;entryDx=0;entryDy=0;" edge="1" parent="1" source="_hT9IFy-ku6c-q67gdyz-99" target="_hT9IFy-ku6c-q67gdyz-101">
          <mxGeometry x="0.1737" y="1" width="50" height="50" relative="1" as="geometry">
            <mxPoint x="1181" y="700" as="sourcePoint" />
            <mxPoint x="1231" y="650" as="targetPoint" />
            <mxPoint as="offset" />
          </mxGeometry>
        </mxCell>
        <mxCell id="_hT9IFy-ku6c-q67gdyz-116" value="v21" style="endArrow=none;html=1;rounded=0;exitX=1;exitY=0;exitDx=0;exitDy=0;entryX=0.5;entryY=1;entryDx=0;entryDy=0;" edge="1" parent="1" source="_hT9IFy-ku6c-q67gdyz-99" target="_hT9IFy-ku6c-q67gdyz-101">
          <mxGeometry x="-0.3113" y="-4" width="50" height="50" relative="1" as="geometry">
            <mxPoint x="1201" y="830" as="sourcePoint" />
            <mxPoint x="1237" y="694" as="targetPoint" />
            <mxPoint as="offset" />
          </mxGeometry>
        </mxCell>
        <mxCell id="_hT9IFy-ku6c-q67gdyz-117" value="v18" style="endArrow=none;html=1;rounded=0;exitX=1;exitY=0.5;exitDx=0;exitDy=0;entryX=0;entryY=0.5;entryDx=0;entryDy=0;" edge="1" parent="1" source="_hT9IFy-ku6c-q67gdyz-99" target="_hT9IFy-ku6c-q67gdyz-98">
          <mxGeometry width="50" height="50" relative="1" as="geometry">
            <mxPoint x="1181" y="700" as="sourcePoint" />
            <mxPoint x="1231" y="650" as="targetPoint" />
          </mxGeometry>
        </mxCell>
        <mxCell id="_hT9IFy-ku6c-q67gdyz-118" value="v17" style="endArrow=none;html=1;rounded=0;exitX=0;exitY=0.5;exitDx=0;exitDy=0;entryX=1;entryY=0.5;entryDx=0;entryDy=0;" edge="1" parent="1" source="_hT9IFy-ku6c-q67gdyz-97" target="_hT9IFy-ku6c-q67gdyz-98">
          <mxGeometry width="50" height="50" relative="1" as="geometry">
            <mxPoint x="1181" y="700" as="sourcePoint" />
            <mxPoint x="1231" y="650" as="targetPoint" />
          </mxGeometry>
        </mxCell>
        <mxCell id="_hT9IFy-ku6c-q67gdyz-119" value="v16" style="endArrow=none;html=1;rounded=0;exitX=0;exitY=1;exitDx=0;exitDy=0;entryX=1;entryY=0;entryDx=0;entryDy=0;" edge="1" parent="1" source="_hT9IFy-ku6c-q67gdyz-93" target="_hT9IFy-ku6c-q67gdyz-97">
          <mxGeometry width="50" height="50" relative="1" as="geometry">
            <mxPoint x="1181" y="700" as="sourcePoint" />
            <mxPoint x="1231" y="650" as="targetPoint" />
          </mxGeometry>
        </mxCell>
        <mxCell id="_hT9IFy-ku6c-q67gdyz-120" value="v15" style="endArrow=none;html=1;rounded=0;exitX=1;exitY=0.5;exitDx=0;exitDy=0;entryX=0;entryY=0.5;entryDx=0;entryDy=0;" edge="1" parent="1" source="_hT9IFy-ku6c-q67gdyz-97" target="_hT9IFy-ku6c-q67gdyz-92">
          <mxGeometry width="50" height="50" relative="1" as="geometry">
            <mxPoint x="1211" y="840" as="sourcePoint" />
            <mxPoint x="1247" y="704" as="targetPoint" />
          </mxGeometry>
        </mxCell>
        <mxCell id="_hT9IFy-ku6c-q67gdyz-121" value="v7" style="endArrow=none;html=1;rounded=0;entryX=0;entryY=1;entryDx=0;entryDy=0;exitX=1;exitY=0.5;exitDx=0;exitDy=0;" edge="1" parent="1" source="_hT9IFy-ku6c-q67gdyz-101" target="_hT9IFy-ku6c-q67gdyz-106">
          <mxGeometry width="50" height="50" relative="1" as="geometry">
            <mxPoint x="1181" y="700" as="sourcePoint" />
            <mxPoint x="1231" y="650" as="targetPoint" />
          </mxGeometry>
        </mxCell>
        <mxCell id="_hT9IFy-ku6c-q67gdyz-122" value="v8" style="endArrow=none;html=1;rounded=0;entryX=0;entryY=1;entryDx=0;entryDy=0;exitX=1;exitY=0;exitDx=0;exitDy=0;" edge="1" parent="1" source="_hT9IFy-ku6c-q67gdyz-106" target="_hT9IFy-ku6c-q67gdyz-94">
          <mxGeometry width="50" height="50" relative="1" as="geometry">
            <mxPoint x="1181" y="700" as="sourcePoint" />
            <mxPoint x="1231" y="650" as="targetPoint" />
          </mxGeometry>
        </mxCell>
        <mxCell id="_hT9IFy-ku6c-q67gdyz-123" value="v10" style="endArrow=none;html=1;rounded=0;entryX=0;entryY=0;entryDx=0;entryDy=0;exitX=0.967;exitY=0.721;exitDx=0;exitDy=0;exitPerimeter=0;" edge="1" parent="1" source="_hT9IFy-ku6c-q67gdyz-94" target="_hT9IFy-ku6c-q67gdyz-95">
          <mxGeometry width="50" height="50" relative="1" as="geometry">
            <mxPoint x="1181" y="700" as="sourcePoint" />
            <mxPoint x="1231" y="650" as="targetPoint" />
          </mxGeometry>
        </mxCell>
        <mxCell id="_hT9IFy-ku6c-q67gdyz-124" value="v9" style="endArrow=none;html=1;rounded=0;entryX=0;entryY=0.5;entryDx=0;entryDy=0;exitX=1;exitY=0.5;exitDx=0;exitDy=0;" edge="1" parent="1" source="_hT9IFy-ku6c-q67gdyz-106" target="_hT9IFy-ku6c-q67gdyz-95">
          <mxGeometry width="50" height="50" relative="1" as="geometry">
            <mxPoint x="1181" y="700" as="sourcePoint" />
            <mxPoint x="1231" y="650" as="targetPoint" />
          </mxGeometry>
        </mxCell>
        <mxCell id="_hT9IFy-ku6c-q67gdyz-125" value="v22" style="endArrow=none;html=1;rounded=0;entryX=0;entryY=1;entryDx=0;entryDy=0;exitX=1;exitY=1;exitDx=0;exitDy=0;curved=1;" edge="1" parent="1" source="_hT9IFy-ku6c-q67gdyz-106" target="_hT9IFy-ku6c-q67gdyz-95">
          <mxGeometry width="50" height="50" relative="1" as="geometry">
            <mxPoint x="1361" y="640" as="sourcePoint" />
            <mxPoint x="1471" y="630" as="targetPoint" />
            <Array as="points">
              <mxPoint x="1411" y="660" />
            </Array>
          </mxGeometry>
        </mxCell>
        <mxCell id="_hT9IFy-ku6c-q67gdyz-126" value="v11" style="endArrow=none;html=1;rounded=0;entryX=1;entryY=1;entryDx=0;entryDy=0;exitX=0;exitY=0;exitDx=0;exitDy=0;" edge="1" parent="1" source="_hT9IFy-ku6c-q67gdyz-96" target="_hT9IFy-ku6c-q67gdyz-95">
          <mxGeometry width="50" height="50" relative="1" as="geometry">
            <mxPoint x="1181" y="700" as="sourcePoint" />
            <mxPoint x="1231" y="650" as="targetPoint" />
          </mxGeometry>
        </mxCell>
        <mxCell id="_hT9IFy-ku6c-q67gdyz-127" value="v13" style="endArrow=none;html=1;rounded=0;entryX=0;entryY=1;entryDx=0;entryDy=0;exitX=1;exitY=0;exitDx=0;exitDy=0;" edge="1" parent="1" source="_hT9IFy-ku6c-q67gdyz-93" target="_hT9IFy-ku6c-q67gdyz-96">
          <mxGeometry width="50" height="50" relative="1" as="geometry">
            <mxPoint x="1181" y="700" as="sourcePoint" />
            <mxPoint x="1231" y="650" as="targetPoint" />
          </mxGeometry>
        </mxCell>
        <mxCell id="_hT9IFy-ku6c-q67gdyz-128" value="v14" style="endArrow=none;html=1;rounded=0;entryX=0.5;entryY=0;entryDx=0;entryDy=0;exitX=1;exitY=1;exitDx=0;exitDy=0;" edge="1" parent="1" source="_hT9IFy-ku6c-q67gdyz-93" target="_hT9IFy-ku6c-q67gdyz-92">
          <mxGeometry width="50" height="50" relative="1" as="geometry">
            <mxPoint x="1181" y="700" as="sourcePoint" />
            <mxPoint x="1231" y="650" as="targetPoint" />
          </mxGeometry>
        </mxCell>
        <mxCell id="_hT9IFy-ku6c-q67gdyz-129" value="v12" style="endArrow=none;html=1;rounded=0;entryX=0.5;entryY=1;entryDx=0;entryDy=0;exitX=0.5;exitY=0;exitDx=0;exitDy=0;" edge="1" parent="1" source="_hT9IFy-ku6c-q67gdyz-92" target="_hT9IFy-ku6c-q67gdyz-96">
          <mxGeometry width="50" height="50" relative="1" as="geometry">
            <mxPoint x="1181" y="700" as="sourcePoint" />
            <mxPoint x="1231" y="650" as="targetPoint" />
          </mxGeometry>
        </mxCell>
        <mxCell id="_hT9IFy-ku6c-q67gdyz-130" value="v24" style="endArrow=none;html=1;rounded=0;exitX=0.5;exitY=0;exitDx=0;exitDy=0;edgeStyle=orthogonalEdgeStyle;entryX=1;entryY=0.5;entryDx=0;entryDy=0;" edge="1" parent="1" source="_hT9IFy-ku6c-q67gdyz-103" target="_hT9IFy-ku6c-q67gdyz-92">
          <mxGeometry x="-0.2" width="50" height="50" relative="1" as="geometry">
            <mxPoint x="991" y="510" as="sourcePoint" />
            <mxPoint x="1591" y="710" as="targetPoint" />
            <Array as="points">
              <mxPoint x="991" y="540" />
              <mxPoint x="1611" y="540" />
              <mxPoint x="1611" y="820" />
            </Array>
            <mxPoint as="offset" />
          </mxGeometry>
        </mxCell>
        <mxCell id="_hT9IFy-ku6c-q67gdyz-132" value="12" style="text;html=1;align=center;verticalAlign=middle;whiteSpace=wrap;rounded=0;fontStyle=1" vertex="1" parent="1">
          <mxGeometry x="1231" y="510" width="60" height="30" as="geometry" />
        </mxCell>
        <mxCell id="_hT9IFy-ku6c-q67gdyz-133" value="3" style="text;html=1;align=center;verticalAlign=middle;whiteSpace=wrap;rounded=0;fontStyle=1" vertex="1" parent="1">
          <mxGeometry x="1171" y="620" width="60" height="30" as="geometry" />
        </mxCell>
        <mxCell id="_hT9IFy-ku6c-q67gdyz-134" value="4" style="text;html=1;align=center;verticalAlign=middle;whiteSpace=wrap;rounded=0;fontStyle=1" vertex="1" parent="1">
          <mxGeometry x="1041" y="605" width="60" height="30" as="geometry" />
        </mxCell>
        <mxCell id="_hT9IFy-ku6c-q67gdyz-135" value="1" style="text;html=1;align=center;verticalAlign=middle;whiteSpace=wrap;rounded=0;fontStyle=1" vertex="1" parent="1">
          <mxGeometry x="1081" y="660" width="60" height="30" as="geometry" />
        </mxCell>
        <mxCell id="_hT9IFy-ku6c-q67gdyz-136" value="5" style="text;html=1;align=center;verticalAlign=middle;whiteSpace=wrap;rounded=0;fontStyle=1" vertex="1" parent="1">
          <mxGeometry x="991" y="665" width="60" height="30" as="geometry" />
        </mxCell>
        <mxCell id="_hT9IFy-ku6c-q67gdyz-137" value="1" style="text;html=1;align=center;verticalAlign=middle;whiteSpace=wrap;rounded=0;fontStyle=1" vertex="1" parent="1">
          <mxGeometry x="941" y="685" width="60" height="30" as="geometry" />
        </mxCell>
        <mxCell id="_hT9IFy-ku6c-q67gdyz-138" value="2" style="text;html=1;align=center;verticalAlign=middle;whiteSpace=wrap;rounded=0;fontStyle=1" vertex="1" parent="1">
          <mxGeometry x="1001" y="720" width="60" height="30" as="geometry" />
        </mxCell>
        <mxCell id="_hT9IFy-ku6c-q67gdyz-139" value="3" style="text;html=1;align=center;verticalAlign=middle;whiteSpace=wrap;rounded=0;fontStyle=1" vertex="1" parent="1">
          <mxGeometry x="981" y="790" width="60" height="30" as="geometry" />
        </mxCell>
        <mxCell id="_hT9IFy-ku6c-q67gdyz-140" value="2" style="text;html=1;align=center;verticalAlign=middle;whiteSpace=wrap;rounded=0;fontStyle=1" vertex="1" parent="1">
          <mxGeometry x="1101" y="810" width="60" height="30" as="geometry" />
        </mxCell>
        <mxCell id="_hT9IFy-ku6c-q67gdyz-141" value="7" style="text;html=1;align=center;verticalAlign=middle;whiteSpace=wrap;rounded=0;fontStyle=1" vertex="1" parent="1">
          <mxGeometry x="1231" y="815" width="60" height="30" as="geometry" />
        </mxCell>
        <mxCell id="_hT9IFy-ku6c-q67gdyz-142" value="3" style="text;html=1;align=center;verticalAlign=middle;whiteSpace=wrap;rounded=0;fontStyle=1" vertex="1" parent="1">
          <mxGeometry x="1211" y="740" width="60" height="30" as="geometry" />
        </mxCell>
        <mxCell id="_hT9IFy-ku6c-q67gdyz-143" value="2" style="text;html=1;align=center;verticalAlign=middle;whiteSpace=wrap;rounded=0;fontStyle=1" vertex="1" parent="1">
          <mxGeometry x="1161" y="730" width="60" height="30" as="geometry" />
        </mxCell>
        <mxCell id="_hT9IFy-ku6c-q67gdyz-144" value="3" style="text;html=1;align=center;verticalAlign=middle;whiteSpace=wrap;rounded=0;fontStyle=1" vertex="1" parent="1">
          <mxGeometry x="1381" y="600" width="60" height="30" as="geometry" />
        </mxCell>
        <mxCell id="_hT9IFy-ku6c-q67gdyz-145" value="1" style="text;html=1;align=center;verticalAlign=middle;whiteSpace=wrap;rounded=0;fontStyle=1" vertex="1" parent="1">
          <mxGeometry x="1411" y="650" width="60" height="30" as="geometry" />
        </mxCell>
        <mxCell id="_hT9IFy-ku6c-q67gdyz-146" value="1" style="text;html=1;align=center;verticalAlign=middle;whiteSpace=wrap;rounded=0;fontStyle=1" vertex="1" parent="1">
          <mxGeometry x="1261" y="655" width="60" height="30" as="geometry" />
        </mxCell>
        <mxCell id="_hT9IFy-ku6c-q67gdyz-147" value="4" style="text;html=1;align=center;verticalAlign=middle;whiteSpace=wrap;rounded=0;fontStyle=1" vertex="1" parent="1">
          <mxGeometry x="1521" y="630" width="60" height="30" as="geometry" />
        </mxCell>
        <mxCell id="_hT9IFy-ku6c-q67gdyz-148" value="2" style="text;html=1;align=center;verticalAlign=middle;whiteSpace=wrap;rounded=0;fontStyle=1" vertex="1" parent="1">
          <mxGeometry x="1431" y="570" width="60" height="30" as="geometry" />
        </mxCell>
        <mxCell id="_hT9IFy-ku6c-q67gdyz-149" value="4" style="text;html=1;align=center;verticalAlign=middle;whiteSpace=wrap;rounded=0;fontStyle=1" vertex="1" parent="1">
          <mxGeometry x="1331" y="570" width="60" height="30" as="geometry" />
        </mxCell>
        <mxCell id="_hT9IFy-ku6c-q67gdyz-150" value="22" style="text;html=1;align=center;verticalAlign=middle;whiteSpace=wrap;rounded=0;fontStyle=1" vertex="1" parent="1">
          <mxGeometry x="1491" y="700" width="60" height="30" as="geometry" />
        </mxCell>
        <mxCell id="_hT9IFy-ku6c-q67gdyz-151" value="3" style="text;html=1;align=center;verticalAlign=middle;whiteSpace=wrap;rounded=0;fontStyle=1" vertex="1" parent="1">
          <mxGeometry x="1421" y="770" width="60" height="30" as="geometry" />
        </mxCell>
        <mxCell id="_hT9IFy-ku6c-q67gdyz-152" value="1" style="text;html=1;align=center;verticalAlign=middle;whiteSpace=wrap;rounded=0;fontStyle=1" vertex="1" parent="1">
          <mxGeometry x="1341" y="785" width="60" height="30" as="geometry" />
        </mxCell>
        <mxCell id="_hT9IFy-ku6c-q67gdyz-153" value="2" style="text;html=1;align=center;verticalAlign=middle;whiteSpace=wrap;rounded=0;fontStyle=1" vertex="1" parent="1">
          <mxGeometry x="1471" y="800" width="60" height="30" as="geometry" />
        </mxCell>
        <mxCell id="_hT9IFy-ku6c-q67gdyz-154" value="1" style="text;html=1;align=center;verticalAlign=middle;whiteSpace=wrap;rounded=0;fontStyle=1" vertex="1" parent="1">
          <mxGeometry x="1521" y="755" width="60" height="30" as="geometry" />
        </mxCell>
        <mxCell id="_hT9IFy-ku6c-q67gdyz-156" value="2" style="text;html=1;align=center;verticalAlign=middle;whiteSpace=wrap;rounded=0;fontStyle=1" vertex="1" parent="1">
          <mxGeometry x="1561" y="720" width="60" height="30" as="geometry" />
        </mxCell>
        <mxCell id="_hT9IFy-ku6c-q67gdyz-166" value="x5" style="ellipse;whiteSpace=wrap;html=1;aspect=fixed;" vertex="1" parent="1">
          <mxGeometry x="1240" y="1100" width="40" height="40" as="geometry" />
        </mxCell>
        <mxCell id="_hT9IFy-ku6c-q67gdyz-171" value="x6" style="ellipse;whiteSpace=wrap;html=1;aspect=fixed;" vertex="1" parent="1">
          <mxGeometry x="1330" y="1060" width="40" height="40" as="geometry" />
        </mxCell>
        <mxCell id="_hT9IFy-ku6c-q67gdyz-186" value="v7" style="endArrow=none;html=1;rounded=0;entryX=0;entryY=1;entryDx=0;entryDy=0;exitX=1;exitY=0.5;exitDx=0;exitDy=0;" edge="1" parent="1" source="_hT9IFy-ku6c-q67gdyz-166" target="_hT9IFy-ku6c-q67gdyz-171">
          <mxGeometry width="50" height="50" relative="1" as="geometry">
            <mxPoint x="1200" y="1150" as="sourcePoint" />
            <mxPoint x="1250" y="1100" as="targetPoint" />
          </mxGeometry>
        </mxCell>
        <mxCell id="_hT9IFy-ku6c-q67gdyz-210" value="1" style="text;html=1;align=center;verticalAlign=middle;whiteSpace=wrap;rounded=0;fontStyle=1" vertex="1" parent="1">
          <mxGeometry x="1280" y="1105" width="60" height="30" as="geometry" />
        </mxCell>
        <mxCell id="_hT9IFy-ku6c-q67gdyz-223" value="x8" style="ellipse;whiteSpace=wrap;html=1;aspect=fixed;" vertex="1" parent="1">
          <mxGeometry x="1494" y="1430" width="40" height="40" as="geometry" />
        </mxCell>
        <mxCell id="_hT9IFy-ku6c-q67gdyz-229" value="x5" style="ellipse;whiteSpace=wrap;html=1;aspect=fixed;" vertex="1" parent="1">
          <mxGeometry x="1254" y="1480" width="40" height="40" as="geometry" />
        </mxCell>
        <mxCell id="_hT9IFy-ku6c-q67gdyz-234" value="x6" style="ellipse;whiteSpace=wrap;html=1;aspect=fixed;" vertex="1" parent="1">
          <mxGeometry x="1344" y="1440" width="40" height="40" as="geometry" />
        </mxCell>
        <mxCell id="_hT9IFy-ku6c-q67gdyz-249" value="v7" style="endArrow=none;html=1;rounded=0;entryX=0;entryY=1;entryDx=0;entryDy=0;exitX=1;exitY=0.5;exitDx=0;exitDy=0;" edge="1" parent="1" source="_hT9IFy-ku6c-q67gdyz-229" target="_hT9IFy-ku6c-q67gdyz-234">
          <mxGeometry width="50" height="50" relative="1" as="geometry">
            <mxPoint x="1214" y="1530" as="sourcePoint" />
            <mxPoint x="1264" y="1480" as="targetPoint" />
          </mxGeometry>
        </mxCell>
        <mxCell id="_hT9IFy-ku6c-q67gdyz-253" value="v22" style="endArrow=none;html=1;rounded=0;entryX=0;entryY=1;entryDx=0;entryDy=0;exitX=1;exitY=1;exitDx=0;exitDy=0;curved=1;" edge="1" parent="1" source="_hT9IFy-ku6c-q67gdyz-234" target="_hT9IFy-ku6c-q67gdyz-223">
          <mxGeometry width="50" height="50" relative="1" as="geometry">
            <mxPoint x="1394" y="1470" as="sourcePoint" />
            <mxPoint x="1504" y="1460" as="targetPoint" />
            <Array as="points">
              <mxPoint x="1444" y="1490" />
            </Array>
          </mxGeometry>
        </mxCell>
        <mxCell id="_hT9IFy-ku6c-q67gdyz-272" value="1" style="text;html=1;align=center;verticalAlign=middle;whiteSpace=wrap;rounded=0;fontStyle=1" vertex="1" parent="1">
          <mxGeometry x="1444" y="1480" width="60" height="30" as="geometry" />
        </mxCell>
        <mxCell id="_hT9IFy-ku6c-q67gdyz-273" value="1" style="text;html=1;align=center;verticalAlign=middle;whiteSpace=wrap;rounded=0;fontStyle=1" vertex="1" parent="1">
          <mxGeometry x="1294" y="1485" width="60" height="30" as="geometry" />
        </mxCell>
        <mxCell id="_hT9IFy-ku6c-q67gdyz-286" value="x7" style="ellipse;whiteSpace=wrap;html=1;aspect=fixed;" vertex="1" parent="1">
          <mxGeometry x="1420" y="1700" width="40" height="40" as="geometry" />
        </mxCell>
        <mxCell id="_hT9IFy-ku6c-q67gdyz-287" value="x8" style="ellipse;whiteSpace=wrap;html=1;aspect=fixed;" vertex="1" parent="1">
          <mxGeometry x="1490" y="1750" width="40" height="40" as="geometry" />
        </mxCell>
        <mxCell id="_hT9IFy-ku6c-q67gdyz-291" value="x14" style="ellipse;whiteSpace=wrap;html=1;aspect=fixed;" vertex="1" parent="1">
          <mxGeometry x="1200" y="1970" width="40" height="40" as="geometry" />
        </mxCell>
        <mxCell id="_hT9IFy-ku6c-q67gdyz-293" value="x5" style="ellipse;whiteSpace=wrap;html=1;aspect=fixed;" vertex="1" parent="1">
          <mxGeometry x="1250" y="1800" width="40" height="40" as="geometry" />
        </mxCell>
        <mxCell id="_hT9IFy-ku6c-q67gdyz-298" value="x6" style="ellipse;whiteSpace=wrap;html=1;aspect=fixed;" vertex="1" parent="1">
          <mxGeometry x="1340" y="1760" width="40" height="40" as="geometry" />
        </mxCell>
        <mxCell id="_hT9IFy-ku6c-q67gdyz-307" value="v20" style="endArrow=none;html=1;rounded=0;exitX=0.5;exitY=0;exitDx=0;exitDy=0;entryX=0;entryY=1;entryDx=0;entryDy=0;" edge="1" parent="1" source="_hT9IFy-ku6c-q67gdyz-291" target="_hT9IFy-ku6c-q67gdyz-293">
          <mxGeometry x="0.1737" y="1" width="50" height="50" relative="1" as="geometry">
            <mxPoint x="1210" y="1850" as="sourcePoint" />
            <mxPoint x="1260" y="1800" as="targetPoint" />
            <mxPoint as="offset" />
          </mxGeometry>
        </mxCell>
        <mxCell id="_hT9IFy-ku6c-q67gdyz-313" value="v7" style="endArrow=none;html=1;rounded=0;entryX=0;entryY=1;entryDx=0;entryDy=0;exitX=1;exitY=0.5;exitDx=0;exitDy=0;" edge="1" parent="1" source="_hT9IFy-ku6c-q67gdyz-293" target="_hT9IFy-ku6c-q67gdyz-298">
          <mxGeometry width="50" height="50" relative="1" as="geometry">
            <mxPoint x="1210" y="1850" as="sourcePoint" />
            <mxPoint x="1260" y="1800" as="targetPoint" />
          </mxGeometry>
        </mxCell>
        <mxCell id="_hT9IFy-ku6c-q67gdyz-315" value="v10" style="endArrow=none;html=1;rounded=0;entryX=0;entryY=0;entryDx=0;entryDy=0;exitX=0.967;exitY=0.721;exitDx=0;exitDy=0;exitPerimeter=0;" edge="1" parent="1" source="_hT9IFy-ku6c-q67gdyz-286" target="_hT9IFy-ku6c-q67gdyz-287">
          <mxGeometry width="50" height="50" relative="1" as="geometry">
            <mxPoint x="1210" y="1850" as="sourcePoint" />
            <mxPoint x="1260" y="1800" as="targetPoint" />
          </mxGeometry>
        </mxCell>
        <mxCell id="_hT9IFy-ku6c-q67gdyz-317" value="v22" style="endArrow=none;html=1;rounded=0;entryX=0;entryY=1;entryDx=0;entryDy=0;exitX=1;exitY=1;exitDx=0;exitDy=0;curved=1;" edge="1" parent="1" source="_hT9IFy-ku6c-q67gdyz-298" target="_hT9IFy-ku6c-q67gdyz-287">
          <mxGeometry width="50" height="50" relative="1" as="geometry">
            <mxPoint x="1390" y="1790" as="sourcePoint" />
            <mxPoint x="1500" y="1780" as="targetPoint" />
            <Array as="points">
              <mxPoint x="1440" y="1810" />
            </Array>
          </mxGeometry>
        </mxCell>
        <mxCell id="_hT9IFy-ku6c-q67gdyz-334" value="2" style="text;html=1;align=center;verticalAlign=middle;whiteSpace=wrap;rounded=0;fontStyle=1" vertex="1" parent="1">
          <mxGeometry x="1190" y="1880" width="60" height="30" as="geometry" />
        </mxCell>
        <mxCell id="_hT9IFy-ku6c-q67gdyz-336" value="1" style="text;html=1;align=center;verticalAlign=middle;whiteSpace=wrap;rounded=0;fontStyle=1" vertex="1" parent="1">
          <mxGeometry x="1440" y="1800" width="60" height="30" as="geometry" />
        </mxCell>
        <mxCell id="_hT9IFy-ku6c-q67gdyz-337" value="1" style="text;html=1;align=center;verticalAlign=middle;whiteSpace=wrap;rounded=0;fontStyle=1" vertex="1" parent="1">
          <mxGeometry x="1290" y="1805" width="60" height="30" as="geometry" />
        </mxCell>
        <mxCell id="_hT9IFy-ku6c-q67gdyz-339" value="2" style="text;html=1;align=center;verticalAlign=middle;whiteSpace=wrap;rounded=0;fontStyle=1" vertex="1" parent="1">
          <mxGeometry x="1460" y="1720" width="60" height="30" as="geometry" />
        </mxCell>
        <mxCell id="_hT9IFy-ku6c-q67gdyz-349" value="x7" style="ellipse;whiteSpace=wrap;html=1;aspect=fixed;" vertex="1" parent="1">
          <mxGeometry x="1410" y="2090" width="40" height="40" as="geometry" />
        </mxCell>
        <mxCell id="_hT9IFy-ku6c-q67gdyz-350" value="x8" style="ellipse;whiteSpace=wrap;html=1;aspect=fixed;" vertex="1" parent="1">
          <mxGeometry x="1480" y="2140" width="40" height="40" as="geometry" />
        </mxCell>
        <mxCell id="_hT9IFy-ku6c-q67gdyz-354" value="x14" style="ellipse;whiteSpace=wrap;html=1;aspect=fixed;" vertex="1" parent="1">
          <mxGeometry x="1190" y="2360" width="40" height="40" as="geometry" />
        </mxCell>
        <mxCell id="_hT9IFy-ku6c-q67gdyz-355" value="x15" style="ellipse;whiteSpace=wrap;html=1;aspect=fixed;" vertex="1" parent="1">
          <mxGeometry x="1070" y="2350" width="40" height="40" as="geometry" />
        </mxCell>
        <mxCell id="_hT9IFy-ku6c-q67gdyz-356" value="x5" style="ellipse;whiteSpace=wrap;html=1;aspect=fixed;" vertex="1" parent="1">
          <mxGeometry x="1240" y="2190" width="40" height="40" as="geometry" />
        </mxCell>
        <mxCell id="_hT9IFy-ku6c-q67gdyz-361" value="x6" style="ellipse;whiteSpace=wrap;html=1;aspect=fixed;" vertex="1" parent="1">
          <mxGeometry x="1330" y="2150" width="40" height="40" as="geometry" />
        </mxCell>
        <mxCell id="_hT9IFy-ku6c-q67gdyz-369" value="v19" style="endArrow=none;html=1;rounded=0;exitX=1;exitY=0.5;exitDx=0;exitDy=0;entryX=0;entryY=0.5;entryDx=0;entryDy=0;" edge="1" parent="1" source="_hT9IFy-ku6c-q67gdyz-355" target="_hT9IFy-ku6c-q67gdyz-354">
          <mxGeometry width="50" height="50" relative="1" as="geometry">
            <mxPoint x="1200" y="2240" as="sourcePoint" />
            <mxPoint x="1230" y="2240" as="targetPoint" />
          </mxGeometry>
        </mxCell>
        <mxCell id="_hT9IFy-ku6c-q67gdyz-370" value="v20" style="endArrow=none;html=1;rounded=0;exitX=0.5;exitY=0;exitDx=0;exitDy=0;entryX=0;entryY=1;entryDx=0;entryDy=0;" edge="1" parent="1" source="_hT9IFy-ku6c-q67gdyz-354" target="_hT9IFy-ku6c-q67gdyz-356">
          <mxGeometry x="0.1737" y="1" width="50" height="50" relative="1" as="geometry">
            <mxPoint x="1200" y="2240" as="sourcePoint" />
            <mxPoint x="1250" y="2190" as="targetPoint" />
            <mxPoint as="offset" />
          </mxGeometry>
        </mxCell>
        <mxCell id="_hT9IFy-ku6c-q67gdyz-376" value="v7" style="endArrow=none;html=1;rounded=0;entryX=0;entryY=1;entryDx=0;entryDy=0;exitX=1;exitY=0.5;exitDx=0;exitDy=0;" edge="1" parent="1" source="_hT9IFy-ku6c-q67gdyz-356" target="_hT9IFy-ku6c-q67gdyz-361">
          <mxGeometry width="50" height="50" relative="1" as="geometry">
            <mxPoint x="1200" y="2240" as="sourcePoint" />
            <mxPoint x="1250" y="2190" as="targetPoint" />
          </mxGeometry>
        </mxCell>
        <mxCell id="_hT9IFy-ku6c-q67gdyz-378" value="v10" style="endArrow=none;html=1;rounded=0;entryX=0;entryY=0;entryDx=0;entryDy=0;exitX=0.967;exitY=0.721;exitDx=0;exitDy=0;exitPerimeter=0;" edge="1" parent="1" source="_hT9IFy-ku6c-q67gdyz-349" target="_hT9IFy-ku6c-q67gdyz-350">
          <mxGeometry width="50" height="50" relative="1" as="geometry">
            <mxPoint x="1200" y="2240" as="sourcePoint" />
            <mxPoint x="1250" y="2190" as="targetPoint" />
          </mxGeometry>
        </mxCell>
        <mxCell id="_hT9IFy-ku6c-q67gdyz-380" value="v22" style="endArrow=none;html=1;rounded=0;entryX=0;entryY=1;entryDx=0;entryDy=0;exitX=1;exitY=1;exitDx=0;exitDy=0;curved=1;" edge="1" parent="1" source="_hT9IFy-ku6c-q67gdyz-361" target="_hT9IFy-ku6c-q67gdyz-350">
          <mxGeometry width="50" height="50" relative="1" as="geometry">
            <mxPoint x="1380" y="2180" as="sourcePoint" />
            <mxPoint x="1490" y="2170" as="targetPoint" />
            <Array as="points">
              <mxPoint x="1430" y="2200" />
            </Array>
          </mxGeometry>
        </mxCell>
        <mxCell id="_hT9IFy-ku6c-q67gdyz-393" value="2" style="text;html=1;align=center;verticalAlign=middle;whiteSpace=wrap;rounded=0;fontStyle=1" vertex="1" parent="1">
          <mxGeometry x="1120" y="2350" width="60" height="30" as="geometry" />
        </mxCell>
        <mxCell id="_hT9IFy-ku6c-q67gdyz-396" value="2" style="text;html=1;align=center;verticalAlign=middle;whiteSpace=wrap;rounded=0;fontStyle=1" vertex="1" parent="1">
          <mxGeometry x="1180" y="2270" width="60" height="30" as="geometry" />
        </mxCell>
        <mxCell id="_hT9IFy-ku6c-q67gdyz-398" value="1" style="text;html=1;align=center;verticalAlign=middle;whiteSpace=wrap;rounded=0;fontStyle=1" vertex="1" parent="1">
          <mxGeometry x="1430" y="2190" width="60" height="30" as="geometry" />
        </mxCell>
        <mxCell id="_hT9IFy-ku6c-q67gdyz-399" value="1" style="text;html=1;align=center;verticalAlign=middle;whiteSpace=wrap;rounded=0;fontStyle=1" vertex="1" parent="1">
          <mxGeometry x="1280" y="2195" width="60" height="30" as="geometry" />
        </mxCell>
        <mxCell id="_hT9IFy-ku6c-q67gdyz-401" value="2" style="text;html=1;align=center;verticalAlign=middle;whiteSpace=wrap;rounded=0;fontStyle=1" vertex="1" parent="1">
          <mxGeometry x="1450" y="2110" width="60" height="30" as="geometry" />
        </mxCell>
        <mxCell id="_hT9IFy-ku6c-q67gdyz-411" value="x7" style="ellipse;whiteSpace=wrap;html=1;aspect=fixed;" vertex="1" parent="1">
          <mxGeometry x="1390" y="2510" width="40" height="40" as="geometry" />
        </mxCell>
        <mxCell id="_hT9IFy-ku6c-q67gdyz-412" value="x8" style="ellipse;whiteSpace=wrap;html=1;aspect=fixed;" vertex="1" parent="1">
          <mxGeometry x="1460" y="2560" width="40" height="40" as="geometry" />
        </mxCell>
        <mxCell id="_hT9IFy-ku6c-q67gdyz-416" value="x14" style="ellipse;whiteSpace=wrap;html=1;aspect=fixed;" vertex="1" parent="1">
          <mxGeometry x="1170" y="2780" width="40" height="40" as="geometry" />
        </mxCell>
        <mxCell id="_hT9IFy-ku6c-q67gdyz-417" value="x15" style="ellipse;whiteSpace=wrap;html=1;aspect=fixed;" vertex="1" parent="1">
          <mxGeometry x="1050" y="2770" width="40" height="40" as="geometry" />
        </mxCell>
        <mxCell id="_hT9IFy-ku6c-q67gdyz-418" value="x5" style="ellipse;whiteSpace=wrap;html=1;aspect=fixed;" vertex="1" parent="1">
          <mxGeometry x="1220" y="2610" width="40" height="40" as="geometry" />
        </mxCell>
        <mxCell id="_hT9IFy-ku6c-q67gdyz-419" value="x4" style="ellipse;whiteSpace=wrap;html=1;aspect=fixed;" vertex="1" parent="1">
          <mxGeometry x="1120" y="2570" width="40" height="40" as="geometry" />
        </mxCell>
        <mxCell id="_hT9IFy-ku6c-q67gdyz-422" value="x1" style="ellipse;whiteSpace=wrap;html=1;aspect=fixed;" vertex="1" parent="1">
          <mxGeometry x="960" y="2700" width="40" height="40" as="geometry" />
        </mxCell>
        <mxCell id="_hT9IFy-ku6c-q67gdyz-423" value="x6" style="ellipse;whiteSpace=wrap;html=1;aspect=fixed;" vertex="1" parent="1">
          <mxGeometry x="1310" y="2570" width="40" height="40" as="geometry" />
        </mxCell>
        <mxCell id="_hT9IFy-ku6c-q67gdyz-429" value="v6" style="endArrow=none;html=1;rounded=0;exitX=1;exitY=0.5;exitDx=0;exitDy=0;entryX=0;entryY=0.5;entryDx=0;entryDy=0;" edge="1" parent="1" source="_hT9IFy-ku6c-q67gdyz-419" target="_hT9IFy-ku6c-q67gdyz-418">
          <mxGeometry width="50" height="50" relative="1" as="geometry">
            <mxPoint x="1200" y="2570" as="sourcePoint" />
            <mxPoint x="1250" y="2520" as="targetPoint" />
          </mxGeometry>
        </mxCell>
        <mxCell id="_hT9IFy-ku6c-q67gdyz-430" value="v23" style="endArrow=none;html=1;rounded=0;exitX=1;exitY=1;exitDx=0;exitDy=0;" edge="1" parent="1" source="_hT9IFy-ku6c-q67gdyz-422" target="_hT9IFy-ku6c-q67gdyz-417">
          <mxGeometry width="50" height="50" relative="1" as="geometry">
            <mxPoint x="1180" y="2660" as="sourcePoint" />
            <mxPoint x="1230" y="2610" as="targetPoint" />
          </mxGeometry>
        </mxCell>
        <mxCell id="_hT9IFy-ku6c-q67gdyz-431" value="v19" style="endArrow=none;html=1;rounded=0;exitX=1;exitY=0.5;exitDx=0;exitDy=0;entryX=0;entryY=0.5;entryDx=0;entryDy=0;" edge="1" parent="1" source="_hT9IFy-ku6c-q67gdyz-417" target="_hT9IFy-ku6c-q67gdyz-416">
          <mxGeometry width="50" height="50" relative="1" as="geometry">
            <mxPoint x="1180" y="2660" as="sourcePoint" />
            <mxPoint x="1210" y="2660" as="targetPoint" />
          </mxGeometry>
        </mxCell>
        <mxCell id="_hT9IFy-ku6c-q67gdyz-432" value="v20" style="endArrow=none;html=1;rounded=0;exitX=0.5;exitY=0;exitDx=0;exitDy=0;entryX=0;entryY=1;entryDx=0;entryDy=0;" edge="1" parent="1" source="_hT9IFy-ku6c-q67gdyz-416" target="_hT9IFy-ku6c-q67gdyz-418">
          <mxGeometry x="0.1737" y="1" width="50" height="50" relative="1" as="geometry">
            <mxPoint x="1180" y="2660" as="sourcePoint" />
            <mxPoint x="1230" y="2610" as="targetPoint" />
            <mxPoint as="offset" />
          </mxGeometry>
        </mxCell>
        <mxCell id="_hT9IFy-ku6c-q67gdyz-433" value="v21" style="endArrow=none;html=1;rounded=0;exitX=1;exitY=0;exitDx=0;exitDy=0;entryX=0.5;entryY=1;entryDx=0;entryDy=0;" edge="1" parent="1" source="_hT9IFy-ku6c-q67gdyz-416" target="_hT9IFy-ku6c-q67gdyz-418">
          <mxGeometry x="-0.3113" y="-4" width="50" height="50" relative="1" as="geometry">
            <mxPoint x="1200" y="2790" as="sourcePoint" />
            <mxPoint x="1236" y="2654" as="targetPoint" />
            <mxPoint as="offset" />
          </mxGeometry>
        </mxCell>
        <mxCell id="_hT9IFy-ku6c-q67gdyz-438" value="v7" style="endArrow=none;html=1;rounded=0;entryX=0;entryY=1;entryDx=0;entryDy=0;exitX=1;exitY=0.5;exitDx=0;exitDy=0;" edge="1" parent="1" source="_hT9IFy-ku6c-q67gdyz-418" target="_hT9IFy-ku6c-q67gdyz-423">
          <mxGeometry width="50" height="50" relative="1" as="geometry">
            <mxPoint x="1180" y="2660" as="sourcePoint" />
            <mxPoint x="1230" y="2610" as="targetPoint" />
          </mxGeometry>
        </mxCell>
        <mxCell id="_hT9IFy-ku6c-q67gdyz-440" value="v10" style="endArrow=none;html=1;rounded=0;entryX=0;entryY=0;entryDx=0;entryDy=0;exitX=0.967;exitY=0.721;exitDx=0;exitDy=0;exitPerimeter=0;" edge="1" parent="1" source="_hT9IFy-ku6c-q67gdyz-411" target="_hT9IFy-ku6c-q67gdyz-412">
          <mxGeometry width="50" height="50" relative="1" as="geometry">
            <mxPoint x="1180" y="2660" as="sourcePoint" />
            <mxPoint x="1230" y="2610" as="targetPoint" />
          </mxGeometry>
        </mxCell>
        <mxCell id="_hT9IFy-ku6c-q67gdyz-442" value="v22" style="endArrow=none;html=1;rounded=0;entryX=0;entryY=1;entryDx=0;entryDy=0;exitX=1;exitY=1;exitDx=0;exitDy=0;curved=1;" edge="1" parent="1" source="_hT9IFy-ku6c-q67gdyz-423" target="_hT9IFy-ku6c-q67gdyz-412">
          <mxGeometry width="50" height="50" relative="1" as="geometry">
            <mxPoint x="1360" y="2600" as="sourcePoint" />
            <mxPoint x="1470" y="2590" as="targetPoint" />
            <Array as="points">
              <mxPoint x="1410" y="2620" />
            </Array>
          </mxGeometry>
        </mxCell>
        <mxCell id="_hT9IFy-ku6c-q67gdyz-449" value="3" style="text;html=1;align=center;verticalAlign=middle;whiteSpace=wrap;rounded=0;fontStyle=1" vertex="1" parent="1">
          <mxGeometry x="1170" y="2580" width="60" height="30" as="geometry" />
        </mxCell>
        <mxCell id="_hT9IFy-ku6c-q67gdyz-455" value="3" style="text;html=1;align=center;verticalAlign=middle;whiteSpace=wrap;rounded=0;fontStyle=1" vertex="1" parent="1">
          <mxGeometry x="980" y="2750" width="60" height="30" as="geometry" />
        </mxCell>
        <mxCell id="_hT9IFy-ku6c-q67gdyz-456" value="2" style="text;html=1;align=center;verticalAlign=middle;whiteSpace=wrap;rounded=0;fontStyle=1" vertex="1" parent="1">
          <mxGeometry x="1100" y="2770" width="60" height="30" as="geometry" />
        </mxCell>
        <mxCell id="_hT9IFy-ku6c-q67gdyz-458" value="3" style="text;html=1;align=center;verticalAlign=middle;whiteSpace=wrap;rounded=0;fontStyle=1" vertex="1" parent="1">
          <mxGeometry x="1210" y="2700" width="60" height="30" as="geometry" />
        </mxCell>
        <mxCell id="_hT9IFy-ku6c-q67gdyz-459" value="2" style="text;html=1;align=center;verticalAlign=middle;whiteSpace=wrap;rounded=0;fontStyle=1" vertex="1" parent="1">
          <mxGeometry x="1160" y="2690" width="60" height="30" as="geometry" />
        </mxCell>
        <mxCell id="_hT9IFy-ku6c-q67gdyz-461" value="1" style="text;html=1;align=center;verticalAlign=middle;whiteSpace=wrap;rounded=0;fontStyle=1" vertex="1" parent="1">
          <mxGeometry x="1410" y="2610" width="60" height="30" as="geometry" />
        </mxCell>
        <mxCell id="_hT9IFy-ku6c-q67gdyz-462" value="1" style="text;html=1;align=center;verticalAlign=middle;whiteSpace=wrap;rounded=0;fontStyle=1" vertex="1" parent="1">
          <mxGeometry x="1260" y="2615" width="60" height="30" as="geometry" />
        </mxCell>
        <mxCell id="_hT9IFy-ku6c-q67gdyz-464" value="2" style="text;html=1;align=center;verticalAlign=middle;whiteSpace=wrap;rounded=0;fontStyle=1" vertex="1" parent="1">
          <mxGeometry x="1430" y="2530" width="60" height="30" as="geometry" />
        </mxCell>
        <mxCell id="_hT9IFy-ku6c-q67gdyz-475" value="x7" style="ellipse;whiteSpace=wrap;html=1;aspect=fixed;" vertex="1" parent="1">
          <mxGeometry x="1390" y="2940" width="40" height="40" as="geometry" />
        </mxCell>
        <mxCell id="_hT9IFy-ku6c-q67gdyz-476" value="x8" style="ellipse;whiteSpace=wrap;html=1;aspect=fixed;" vertex="1" parent="1">
          <mxGeometry x="1460" y="2990" width="40" height="40" as="geometry" />
        </mxCell>
        <mxCell id="_hT9IFy-ku6c-q67gdyz-480" value="x14" style="ellipse;whiteSpace=wrap;html=1;aspect=fixed;" vertex="1" parent="1">
          <mxGeometry x="1170" y="3210" width="40" height="40" as="geometry" />
        </mxCell>
        <mxCell id="_hT9IFy-ku6c-q67gdyz-481" value="x15" style="ellipse;whiteSpace=wrap;html=1;aspect=fixed;" vertex="1" parent="1">
          <mxGeometry x="1050" y="3200" width="40" height="40" as="geometry" />
        </mxCell>
        <mxCell id="_hT9IFy-ku6c-q67gdyz-482" value="x5" style="ellipse;whiteSpace=wrap;html=1;aspect=fixed;" vertex="1" parent="1">
          <mxGeometry x="1220" y="3040" width="40" height="40" as="geometry" />
        </mxCell>
        <mxCell id="_hT9IFy-ku6c-q67gdyz-483" value="x4" style="ellipse;whiteSpace=wrap;html=1;aspect=fixed;" vertex="1" parent="1">
          <mxGeometry x="1120" y="3000" width="40" height="40" as="geometry" />
        </mxCell>
        <mxCell id="_hT9IFy-ku6c-q67gdyz-484" value="x3" style="ellipse;whiteSpace=wrap;html=1;aspect=fixed;" vertex="1" parent="1">
          <mxGeometry x="970" y="3010" width="40" height="40" as="geometry" />
        </mxCell>
        <mxCell id="_hT9IFy-ku6c-q67gdyz-485" value="x2" style="ellipse;whiteSpace=wrap;html=1;aspect=fixed;" vertex="1" parent="1">
          <mxGeometry x="1040" y="3070" width="40" height="40" as="geometry" />
        </mxCell>
        <mxCell id="_hT9IFy-ku6c-q67gdyz-486" value="x1" style="ellipse;whiteSpace=wrap;html=1;aspect=fixed;" vertex="1" parent="1">
          <mxGeometry x="960" y="3130" width="40" height="40" as="geometry" />
        </mxCell>
        <mxCell id="_hT9IFy-ku6c-q67gdyz-487" value="x6" style="ellipse;whiteSpace=wrap;html=1;aspect=fixed;" vertex="1" parent="1">
          <mxGeometry x="1310" y="3000" width="40" height="40" as="geometry" />
        </mxCell>
        <mxCell id="_hT9IFy-ku6c-q67gdyz-490" value="v2" style="endArrow=none;html=1;rounded=0;exitX=0.5;exitY=1;exitDx=0;exitDy=0;entryX=0.5;entryY=0;entryDx=0;entryDy=0;" edge="1" parent="1" source="_hT9IFy-ku6c-q67gdyz-484" target="_hT9IFy-ku6c-q67gdyz-486">
          <mxGeometry width="50" height="50" relative="1" as="geometry">
            <mxPoint x="1014" y="3054" as="sourcePoint" />
            <mxPoint x="1056" y="3086" as="targetPoint" />
          </mxGeometry>
        </mxCell>
        <mxCell id="_hT9IFy-ku6c-q67gdyz-492" value="v4" style="endArrow=none;html=1;rounded=0;exitX=1;exitY=0;exitDx=0;exitDy=0;entryX=0;entryY=1;entryDx=0;entryDy=0;" edge="1" parent="1" source="_hT9IFy-ku6c-q67gdyz-485" target="_hT9IFy-ku6c-q67gdyz-483">
          <mxGeometry width="50" height="50" relative="1" as="geometry">
            <mxPoint x="1004" y="3146" as="sourcePoint" />
            <mxPoint x="1056" y="3114" as="targetPoint" />
          </mxGeometry>
        </mxCell>
        <mxCell id="_hT9IFy-ku6c-q67gdyz-493" value="v6" style="endArrow=none;html=1;rounded=0;exitX=1;exitY=0.5;exitDx=0;exitDy=0;entryX=0;entryY=0.5;entryDx=0;entryDy=0;" edge="1" parent="1" source="_hT9IFy-ku6c-q67gdyz-483" target="_hT9IFy-ku6c-q67gdyz-482">
          <mxGeometry width="50" height="50" relative="1" as="geometry">
            <mxPoint x="1200" y="3000" as="sourcePoint" />
            <mxPoint x="1250" y="2950" as="targetPoint" />
          </mxGeometry>
        </mxCell>
        <mxCell id="_hT9IFy-ku6c-q67gdyz-494" value="v23" style="endArrow=none;html=1;rounded=0;exitX=1;exitY=1;exitDx=0;exitDy=0;" edge="1" parent="1" source="_hT9IFy-ku6c-q67gdyz-486" target="_hT9IFy-ku6c-q67gdyz-481">
          <mxGeometry width="50" height="50" relative="1" as="geometry">
            <mxPoint x="1180" y="3090" as="sourcePoint" />
            <mxPoint x="1230" y="3040" as="targetPoint" />
          </mxGeometry>
        </mxCell>
        <mxCell id="_hT9IFy-ku6c-q67gdyz-495" value="v19" style="endArrow=none;html=1;rounded=0;exitX=1;exitY=0.5;exitDx=0;exitDy=0;entryX=0;entryY=0.5;entryDx=0;entryDy=0;" edge="1" parent="1" source="_hT9IFy-ku6c-q67gdyz-481" target="_hT9IFy-ku6c-q67gdyz-480">
          <mxGeometry width="50" height="50" relative="1" as="geometry">
            <mxPoint x="1180" y="3090" as="sourcePoint" />
            <mxPoint x="1210" y="3090" as="targetPoint" />
          </mxGeometry>
        </mxCell>
        <mxCell id="_hT9IFy-ku6c-q67gdyz-496" value="v20" style="endArrow=none;html=1;rounded=0;exitX=0.5;exitY=0;exitDx=0;exitDy=0;entryX=0;entryY=1;entryDx=0;entryDy=0;" edge="1" parent="1" source="_hT9IFy-ku6c-q67gdyz-480" target="_hT9IFy-ku6c-q67gdyz-482">
          <mxGeometry x="0.1737" y="1" width="50" height="50" relative="1" as="geometry">
            <mxPoint x="1180" y="3090" as="sourcePoint" />
            <mxPoint x="1230" y="3040" as="targetPoint" />
            <mxPoint as="offset" />
          </mxGeometry>
        </mxCell>
        <mxCell id="_hT9IFy-ku6c-q67gdyz-502" value="v7" style="endArrow=none;html=1;rounded=0;entryX=0;entryY=1;entryDx=0;entryDy=0;exitX=1;exitY=0.5;exitDx=0;exitDy=0;" edge="1" parent="1" source="_hT9IFy-ku6c-q67gdyz-482" target="_hT9IFy-ku6c-q67gdyz-487">
          <mxGeometry width="50" height="50" relative="1" as="geometry">
            <mxPoint x="1180" y="3090" as="sourcePoint" />
            <mxPoint x="1230" y="3040" as="targetPoint" />
          </mxGeometry>
        </mxCell>
        <mxCell id="_hT9IFy-ku6c-q67gdyz-504" value="v10" style="endArrow=none;html=1;rounded=0;entryX=0;entryY=0;entryDx=0;entryDy=0;exitX=0.967;exitY=0.721;exitDx=0;exitDy=0;exitPerimeter=0;" edge="1" parent="1" source="_hT9IFy-ku6c-q67gdyz-475" target="_hT9IFy-ku6c-q67gdyz-476">
          <mxGeometry width="50" height="50" relative="1" as="geometry">
            <mxPoint x="1180" y="3090" as="sourcePoint" />
            <mxPoint x="1230" y="3040" as="targetPoint" />
          </mxGeometry>
        </mxCell>
        <mxCell id="_hT9IFy-ku6c-q67gdyz-506" value="v22" style="endArrow=none;html=1;rounded=0;entryX=0;entryY=1;entryDx=0;entryDy=0;exitX=1;exitY=1;exitDx=0;exitDy=0;curved=1;" edge="1" parent="1" source="_hT9IFy-ku6c-q67gdyz-487" target="_hT9IFy-ku6c-q67gdyz-476">
          <mxGeometry width="50" height="50" relative="1" as="geometry">
            <mxPoint x="1360" y="3030" as="sourcePoint" />
            <mxPoint x="1470" y="3020" as="targetPoint" />
            <Array as="points">
              <mxPoint x="1410" y="3050" />
            </Array>
          </mxGeometry>
        </mxCell>
        <mxCell id="_hT9IFy-ku6c-q67gdyz-513" value="3" style="text;html=1;align=center;verticalAlign=middle;whiteSpace=wrap;rounded=0;fontStyle=1" vertex="1" parent="1">
          <mxGeometry x="1170" y="3010" width="60" height="30" as="geometry" />
        </mxCell>
        <mxCell id="_hT9IFy-ku6c-q67gdyz-515" value="1" style="text;html=1;align=center;verticalAlign=middle;whiteSpace=wrap;rounded=0;fontStyle=1" vertex="1" parent="1">
          <mxGeometry x="1080" y="3050" width="60" height="30" as="geometry" />
        </mxCell>
        <mxCell id="_hT9IFy-ku6c-q67gdyz-517" value="1" style="text;html=1;align=center;verticalAlign=middle;whiteSpace=wrap;rounded=0;fontStyle=1" vertex="1" parent="1">
          <mxGeometry x="940" y="3075" width="60" height="30" as="geometry" />
        </mxCell>
        <mxCell id="_hT9IFy-ku6c-q67gdyz-519" value="3" style="text;html=1;align=center;verticalAlign=middle;whiteSpace=wrap;rounded=0;fontStyle=1" vertex="1" parent="1">
          <mxGeometry x="980" y="3180" width="60" height="30" as="geometry" />
        </mxCell>
        <mxCell id="_hT9IFy-ku6c-q67gdyz-520" value="2" style="text;html=1;align=center;verticalAlign=middle;whiteSpace=wrap;rounded=0;fontStyle=1" vertex="1" parent="1">
          <mxGeometry x="1100" y="3200" width="60" height="30" as="geometry" />
        </mxCell>
        <mxCell id="_hT9IFy-ku6c-q67gdyz-523" value="2" style="text;html=1;align=center;verticalAlign=middle;whiteSpace=wrap;rounded=0;fontStyle=1" vertex="1" parent="1">
          <mxGeometry x="1160" y="3120" width="60" height="30" as="geometry" />
        </mxCell>
        <mxCell id="_hT9IFy-ku6c-q67gdyz-525" value="1" style="text;html=1;align=center;verticalAlign=middle;whiteSpace=wrap;rounded=0;fontStyle=1" vertex="1" parent="1">
          <mxGeometry x="1410" y="3040" width="60" height="30" as="geometry" />
        </mxCell>
        <mxCell id="_hT9IFy-ku6c-q67gdyz-526" value="1" style="text;html=1;align=center;verticalAlign=middle;whiteSpace=wrap;rounded=0;fontStyle=1" vertex="1" parent="1">
          <mxGeometry x="1260" y="3045" width="60" height="30" as="geometry" />
        </mxCell>
        <mxCell id="_hT9IFy-ku6c-q67gdyz-528" value="2" style="text;html=1;align=center;verticalAlign=middle;whiteSpace=wrap;rounded=0;fontStyle=1" vertex="1" parent="1">
          <mxGeometry x="1430" y="2960" width="60" height="30" as="geometry" />
        </mxCell>
        <mxCell id="_hT9IFy-ku6c-q67gdyz-539" value="x7" style="ellipse;whiteSpace=wrap;html=1;aspect=fixed;" vertex="1" parent="1">
          <mxGeometry x="1351" y="3340" width="40" height="40" as="geometry" />
        </mxCell>
        <mxCell id="_hT9IFy-ku6c-q67gdyz-540" value="x8" style="ellipse;whiteSpace=wrap;html=1;aspect=fixed;" vertex="1" parent="1">
          <mxGeometry x="1421" y="3390" width="40" height="40" as="geometry" />
        </mxCell>
        <mxCell id="_hT9IFy-ku6c-q67gdyz-541" value="x9" style="ellipse;whiteSpace=wrap;html=1;aspect=fixed;" vertex="1" parent="1">
          <mxGeometry x="1521" y="3450" width="40" height="40" as="geometry" />
        </mxCell>
        <mxCell id="_hT9IFy-ku6c-q67gdyz-544" value="x14" style="ellipse;whiteSpace=wrap;html=1;aspect=fixed;" vertex="1" parent="1">
          <mxGeometry x="1131" y="3610" width="40" height="40" as="geometry" />
        </mxCell>
        <mxCell id="_hT9IFy-ku6c-q67gdyz-545" value="x15" style="ellipse;whiteSpace=wrap;html=1;aspect=fixed;" vertex="1" parent="1">
          <mxGeometry x="1011" y="3600" width="40" height="40" as="geometry" />
        </mxCell>
        <mxCell id="_hT9IFy-ku6c-q67gdyz-546" value="x5" style="ellipse;whiteSpace=wrap;html=1;aspect=fixed;" vertex="1" parent="1">
          <mxGeometry x="1181" y="3440" width="40" height="40" as="geometry" />
        </mxCell>
        <mxCell id="_hT9IFy-ku6c-q67gdyz-547" value="x4" style="ellipse;whiteSpace=wrap;html=1;aspect=fixed;" vertex="1" parent="1">
          <mxGeometry x="1081" y="3400" width="40" height="40" as="geometry" />
        </mxCell>
        <mxCell id="_hT9IFy-ku6c-q67gdyz-548" value="x3" style="ellipse;whiteSpace=wrap;html=1;aspect=fixed;" vertex="1" parent="1">
          <mxGeometry x="931" y="3410" width="40" height="40" as="geometry" />
        </mxCell>
        <mxCell id="_hT9IFy-ku6c-q67gdyz-549" value="x2" style="ellipse;whiteSpace=wrap;html=1;aspect=fixed;" vertex="1" parent="1">
          <mxGeometry x="1001" y="3470" width="40" height="40" as="geometry" />
        </mxCell>
        <mxCell id="_hT9IFy-ku6c-q67gdyz-550" value="x1" style="ellipse;whiteSpace=wrap;html=1;aspect=fixed;" vertex="1" parent="1">
          <mxGeometry x="921" y="3530" width="40" height="40" as="geometry" />
        </mxCell>
        <mxCell id="_hT9IFy-ku6c-q67gdyz-551" value="x6" style="ellipse;whiteSpace=wrap;html=1;aspect=fixed;" vertex="1" parent="1">
          <mxGeometry x="1271" y="3400" width="40" height="40" as="geometry" />
        </mxCell>
        <mxCell id="_hT9IFy-ku6c-q67gdyz-554" value="v2" style="endArrow=none;html=1;rounded=0;exitX=0.5;exitY=1;exitDx=0;exitDy=0;entryX=0.5;entryY=0;entryDx=0;entryDy=0;" edge="1" parent="1" source="_hT9IFy-ku6c-q67gdyz-548" target="_hT9IFy-ku6c-q67gdyz-550">
          <mxGeometry width="50" height="50" relative="1" as="geometry">
            <mxPoint x="975" y="3454" as="sourcePoint" />
            <mxPoint x="1017" y="3486" as="targetPoint" />
          </mxGeometry>
        </mxCell>
        <mxCell id="_hT9IFy-ku6c-q67gdyz-556" value="v4" style="endArrow=none;html=1;rounded=0;exitX=1;exitY=0;exitDx=0;exitDy=0;entryX=0;entryY=1;entryDx=0;entryDy=0;" edge="1" parent="1" source="_hT9IFy-ku6c-q67gdyz-549" target="_hT9IFy-ku6c-q67gdyz-547">
          <mxGeometry width="50" height="50" relative="1" as="geometry">
            <mxPoint x="965" y="3546" as="sourcePoint" />
            <mxPoint x="1017" y="3514" as="targetPoint" />
          </mxGeometry>
        </mxCell>
        <mxCell id="_hT9IFy-ku6c-q67gdyz-557" value="v6" style="endArrow=none;html=1;rounded=0;exitX=1;exitY=0.5;exitDx=0;exitDy=0;entryX=0;entryY=0.5;entryDx=0;entryDy=0;" edge="1" parent="1" source="_hT9IFy-ku6c-q67gdyz-547" target="_hT9IFy-ku6c-q67gdyz-546">
          <mxGeometry width="50" height="50" relative="1" as="geometry">
            <mxPoint x="1161" y="3400" as="sourcePoint" />
            <mxPoint x="1211" y="3350" as="targetPoint" />
          </mxGeometry>
        </mxCell>
        <mxCell id="_hT9IFy-ku6c-q67gdyz-558" value="v23" style="endArrow=none;html=1;rounded=0;exitX=1;exitY=1;exitDx=0;exitDy=0;" edge="1" parent="1" source="_hT9IFy-ku6c-q67gdyz-550" target="_hT9IFy-ku6c-q67gdyz-545">
          <mxGeometry width="50" height="50" relative="1" as="geometry">
            <mxPoint x="1141" y="3490" as="sourcePoint" />
            <mxPoint x="1191" y="3440" as="targetPoint" />
          </mxGeometry>
        </mxCell>
        <mxCell id="_hT9IFy-ku6c-q67gdyz-559" value="v19" style="endArrow=none;html=1;rounded=0;exitX=1;exitY=0.5;exitDx=0;exitDy=0;entryX=0;entryY=0.5;entryDx=0;entryDy=0;" edge="1" parent="1" source="_hT9IFy-ku6c-q67gdyz-545" target="_hT9IFy-ku6c-q67gdyz-544">
          <mxGeometry width="50" height="50" relative="1" as="geometry">
            <mxPoint x="1141" y="3490" as="sourcePoint" />
            <mxPoint x="1171" y="3490" as="targetPoint" />
          </mxGeometry>
        </mxCell>
        <mxCell id="_hT9IFy-ku6c-q67gdyz-560" value="v20" style="endArrow=none;html=1;rounded=0;exitX=0.5;exitY=0;exitDx=0;exitDy=0;entryX=0;entryY=1;entryDx=0;entryDy=0;" edge="1" parent="1" source="_hT9IFy-ku6c-q67gdyz-544" target="_hT9IFy-ku6c-q67gdyz-546">
          <mxGeometry x="0.1737" y="1" width="50" height="50" relative="1" as="geometry">
            <mxPoint x="1141" y="3490" as="sourcePoint" />
            <mxPoint x="1191" y="3440" as="targetPoint" />
            <mxPoint as="offset" />
          </mxGeometry>
        </mxCell>
        <mxCell id="_hT9IFy-ku6c-q67gdyz-566" value="v7" style="endArrow=none;html=1;rounded=0;entryX=0;entryY=1;entryDx=0;entryDy=0;exitX=1;exitY=0.5;exitDx=0;exitDy=0;" edge="1" parent="1" source="_hT9IFy-ku6c-q67gdyz-546" target="_hT9IFy-ku6c-q67gdyz-551">
          <mxGeometry width="50" height="50" relative="1" as="geometry">
            <mxPoint x="1141" y="3490" as="sourcePoint" />
            <mxPoint x="1191" y="3440" as="targetPoint" />
          </mxGeometry>
        </mxCell>
        <mxCell id="_hT9IFy-ku6c-q67gdyz-568" value="v10" style="endArrow=none;html=1;rounded=0;entryX=0;entryY=0;entryDx=0;entryDy=0;exitX=0.967;exitY=0.721;exitDx=0;exitDy=0;exitPerimeter=0;" edge="1" parent="1" source="_hT9IFy-ku6c-q67gdyz-539" target="_hT9IFy-ku6c-q67gdyz-540">
          <mxGeometry width="50" height="50" relative="1" as="geometry">
            <mxPoint x="1141" y="3490" as="sourcePoint" />
            <mxPoint x="1191" y="3440" as="targetPoint" />
          </mxGeometry>
        </mxCell>
        <mxCell id="_hT9IFy-ku6c-q67gdyz-570" value="v22" style="endArrow=none;html=1;rounded=0;entryX=0;entryY=1;entryDx=0;entryDy=0;exitX=1;exitY=1;exitDx=0;exitDy=0;curved=1;" edge="1" parent="1" source="_hT9IFy-ku6c-q67gdyz-551" target="_hT9IFy-ku6c-q67gdyz-540">
          <mxGeometry width="50" height="50" relative="1" as="geometry">
            <mxPoint x="1321" y="3430" as="sourcePoint" />
            <mxPoint x="1431" y="3420" as="targetPoint" />
            <Array as="points">
              <mxPoint x="1371" y="3450" />
            </Array>
          </mxGeometry>
        </mxCell>
        <mxCell id="_hT9IFy-ku6c-q67gdyz-571" value="v11" style="endArrow=none;html=1;rounded=0;entryX=1;entryY=1;entryDx=0;entryDy=0;exitX=0;exitY=0;exitDx=0;exitDy=0;" edge="1" parent="1" source="_hT9IFy-ku6c-q67gdyz-541" target="_hT9IFy-ku6c-q67gdyz-540">
          <mxGeometry width="50" height="50" relative="1" as="geometry">
            <mxPoint x="1141" y="3490" as="sourcePoint" />
            <mxPoint x="1191" y="3440" as="targetPoint" />
          </mxGeometry>
        </mxCell>
        <mxCell id="_hT9IFy-ku6c-q67gdyz-577" value="3" style="text;html=1;align=center;verticalAlign=middle;whiteSpace=wrap;rounded=0;fontStyle=1" vertex="1" parent="1">
          <mxGeometry x="1131" y="3410" width="60" height="30" as="geometry" />
        </mxCell>
        <mxCell id="_hT9IFy-ku6c-q67gdyz-579" value="1" style="text;html=1;align=center;verticalAlign=middle;whiteSpace=wrap;rounded=0;fontStyle=1" vertex="1" parent="1">
          <mxGeometry x="1041" y="3450" width="60" height="30" as="geometry" />
        </mxCell>
        <mxCell id="_hT9IFy-ku6c-q67gdyz-581" value="1" style="text;html=1;align=center;verticalAlign=middle;whiteSpace=wrap;rounded=0;fontStyle=1" vertex="1" parent="1">
          <mxGeometry x="901" y="3475" width="60" height="30" as="geometry" />
        </mxCell>
        <mxCell id="_hT9IFy-ku6c-q67gdyz-583" value="3" style="text;html=1;align=center;verticalAlign=middle;whiteSpace=wrap;rounded=0;fontStyle=1" vertex="1" parent="1">
          <mxGeometry x="941" y="3580" width="60" height="30" as="geometry" />
        </mxCell>
        <mxCell id="_hT9IFy-ku6c-q67gdyz-584" value="2" style="text;html=1;align=center;verticalAlign=middle;whiteSpace=wrap;rounded=0;fontStyle=1" vertex="1" parent="1">
          <mxGeometry x="1061" y="3600" width="60" height="30" as="geometry" />
        </mxCell>
        <mxCell id="_hT9IFy-ku6c-q67gdyz-587" value="2" style="text;html=1;align=center;verticalAlign=middle;whiteSpace=wrap;rounded=0;fontStyle=1" vertex="1" parent="1">
          <mxGeometry x="1121" y="3520" width="60" height="30" as="geometry" />
        </mxCell>
        <mxCell id="_hT9IFy-ku6c-q67gdyz-589" value="1" style="text;html=1;align=center;verticalAlign=middle;whiteSpace=wrap;rounded=0;fontStyle=1" vertex="1" parent="1">
          <mxGeometry x="1371" y="3440" width="60" height="30" as="geometry" />
        </mxCell>
        <mxCell id="_hT9IFy-ku6c-q67gdyz-590" value="1" style="text;html=1;align=center;verticalAlign=middle;whiteSpace=wrap;rounded=0;fontStyle=1" vertex="1" parent="1">
          <mxGeometry x="1221" y="3445" width="60" height="30" as="geometry" />
        </mxCell>
        <mxCell id="_hT9IFy-ku6c-q67gdyz-591" value="4" style="text;html=1;align=center;verticalAlign=middle;whiteSpace=wrap;rounded=0;fontStyle=1" vertex="1" parent="1">
          <mxGeometry x="1481" y="3420" width="60" height="30" as="geometry" />
        </mxCell>
        <mxCell id="_hT9IFy-ku6c-q67gdyz-592" value="2" style="text;html=1;align=center;verticalAlign=middle;whiteSpace=wrap;rounded=0;fontStyle=1" vertex="1" parent="1">
          <mxGeometry x="1391" y="3360" width="60" height="30" as="geometry" />
        </mxCell>
        <mxCell id="_hT9IFy-ku6c-q67gdyz-600" value="x10" style="ellipse;whiteSpace=wrap;html=1;aspect=fixed;" vertex="1" parent="1">
          <mxGeometry x="1530" y="4010" width="40" height="40" as="geometry" />
        </mxCell>
        <mxCell id="_hT9IFy-ku6c-q67gdyz-602" value="x7" style="ellipse;whiteSpace=wrap;html=1;aspect=fixed;" vertex="1" parent="1">
          <mxGeometry x="1370" y="3760" width="40" height="40" as="geometry" />
        </mxCell>
        <mxCell id="_hT9IFy-ku6c-q67gdyz-603" value="x8" style="ellipse;whiteSpace=wrap;html=1;aspect=fixed;" vertex="1" parent="1">
          <mxGeometry x="1440" y="3810" width="40" height="40" as="geometry" />
        </mxCell>
        <mxCell id="_hT9IFy-ku6c-q67gdyz-604" value="x9" style="ellipse;whiteSpace=wrap;html=1;aspect=fixed;" vertex="1" parent="1">
          <mxGeometry x="1540" y="3870" width="40" height="40" as="geometry" />
        </mxCell>
        <mxCell id="_hT9IFy-ku6c-q67gdyz-607" value="x14" style="ellipse;whiteSpace=wrap;html=1;aspect=fixed;" vertex="1" parent="1">
          <mxGeometry x="1150" y="4030" width="40" height="40" as="geometry" />
        </mxCell>
        <mxCell id="_hT9IFy-ku6c-q67gdyz-608" value="x15" style="ellipse;whiteSpace=wrap;html=1;aspect=fixed;" vertex="1" parent="1">
          <mxGeometry x="1030" y="4020" width="40" height="40" as="geometry" />
        </mxCell>
        <mxCell id="_hT9IFy-ku6c-q67gdyz-609" value="x5" style="ellipse;whiteSpace=wrap;html=1;aspect=fixed;" vertex="1" parent="1">
          <mxGeometry x="1200" y="3860" width="40" height="40" as="geometry" />
        </mxCell>
        <mxCell id="_hT9IFy-ku6c-q67gdyz-610" value="x4" style="ellipse;whiteSpace=wrap;html=1;aspect=fixed;" vertex="1" parent="1">
          <mxGeometry x="1100" y="3820" width="40" height="40" as="geometry" />
        </mxCell>
        <mxCell id="_hT9IFy-ku6c-q67gdyz-611" value="x3" style="ellipse;whiteSpace=wrap;html=1;aspect=fixed;" vertex="1" parent="1">
          <mxGeometry x="950" y="3830" width="40" height="40" as="geometry" />
        </mxCell>
        <mxCell id="_hT9IFy-ku6c-q67gdyz-612" value="x2" style="ellipse;whiteSpace=wrap;html=1;aspect=fixed;" vertex="1" parent="1">
          <mxGeometry x="1020" y="3890" width="40" height="40" as="geometry" />
        </mxCell>
        <mxCell id="_hT9IFy-ku6c-q67gdyz-613" value="x1" style="ellipse;whiteSpace=wrap;html=1;aspect=fixed;" vertex="1" parent="1">
          <mxGeometry x="940" y="3950" width="40" height="40" as="geometry" />
        </mxCell>
        <mxCell id="_hT9IFy-ku6c-q67gdyz-614" value="x6" style="ellipse;whiteSpace=wrap;html=1;aspect=fixed;" vertex="1" parent="1">
          <mxGeometry x="1290" y="3820" width="40" height="40" as="geometry" />
        </mxCell>
        <mxCell id="_hT9IFy-ku6c-q67gdyz-617" value="v2" style="endArrow=none;html=1;rounded=0;exitX=0.5;exitY=1;exitDx=0;exitDy=0;entryX=0.5;entryY=0;entryDx=0;entryDy=0;" edge="1" parent="1" source="_hT9IFy-ku6c-q67gdyz-611" target="_hT9IFy-ku6c-q67gdyz-613">
          <mxGeometry width="50" height="50" relative="1" as="geometry">
            <mxPoint x="994" y="3874" as="sourcePoint" />
            <mxPoint x="1036" y="3906" as="targetPoint" />
          </mxGeometry>
        </mxCell>
        <mxCell id="_hT9IFy-ku6c-q67gdyz-619" value="v4" style="endArrow=none;html=1;rounded=0;exitX=1;exitY=0;exitDx=0;exitDy=0;entryX=0;entryY=1;entryDx=0;entryDy=0;" edge="1" parent="1" source="_hT9IFy-ku6c-q67gdyz-612" target="_hT9IFy-ku6c-q67gdyz-610">
          <mxGeometry width="50" height="50" relative="1" as="geometry">
            <mxPoint x="984" y="3966" as="sourcePoint" />
            <mxPoint x="1036" y="3934" as="targetPoint" />
          </mxGeometry>
        </mxCell>
        <mxCell id="_hT9IFy-ku6c-q67gdyz-620" value="v6" style="endArrow=none;html=1;rounded=0;exitX=1;exitY=0.5;exitDx=0;exitDy=0;entryX=0;entryY=0.5;entryDx=0;entryDy=0;" edge="1" parent="1" source="_hT9IFy-ku6c-q67gdyz-610" target="_hT9IFy-ku6c-q67gdyz-609">
          <mxGeometry width="50" height="50" relative="1" as="geometry">
            <mxPoint x="1180" y="3820" as="sourcePoint" />
            <mxPoint x="1230" y="3770" as="targetPoint" />
          </mxGeometry>
        </mxCell>
        <mxCell id="_hT9IFy-ku6c-q67gdyz-621" value="v23" style="endArrow=none;html=1;rounded=0;exitX=1;exitY=1;exitDx=0;exitDy=0;" edge="1" parent="1" source="_hT9IFy-ku6c-q67gdyz-613" target="_hT9IFy-ku6c-q67gdyz-608">
          <mxGeometry width="50" height="50" relative="1" as="geometry">
            <mxPoint x="1160" y="3910" as="sourcePoint" />
            <mxPoint x="1210" y="3860" as="targetPoint" />
          </mxGeometry>
        </mxCell>
        <mxCell id="_hT9IFy-ku6c-q67gdyz-622" value="v19" style="endArrow=none;html=1;rounded=0;exitX=1;exitY=0.5;exitDx=0;exitDy=0;entryX=0;entryY=0.5;entryDx=0;entryDy=0;" edge="1" parent="1" source="_hT9IFy-ku6c-q67gdyz-608" target="_hT9IFy-ku6c-q67gdyz-607">
          <mxGeometry width="50" height="50" relative="1" as="geometry">
            <mxPoint x="1160" y="3910" as="sourcePoint" />
            <mxPoint x="1190" y="3910" as="targetPoint" />
          </mxGeometry>
        </mxCell>
        <mxCell id="_hT9IFy-ku6c-q67gdyz-623" value="v20" style="endArrow=none;html=1;rounded=0;exitX=0.5;exitY=0;exitDx=0;exitDy=0;entryX=0;entryY=1;entryDx=0;entryDy=0;" edge="1" parent="1" source="_hT9IFy-ku6c-q67gdyz-607" target="_hT9IFy-ku6c-q67gdyz-609">
          <mxGeometry x="0.1737" y="1" width="50" height="50" relative="1" as="geometry">
            <mxPoint x="1160" y="3910" as="sourcePoint" />
            <mxPoint x="1210" y="3860" as="targetPoint" />
            <mxPoint as="offset" />
          </mxGeometry>
        </mxCell>
        <mxCell id="_hT9IFy-ku6c-q67gdyz-629" value="v7" style="endArrow=none;html=1;rounded=0;entryX=0;entryY=1;entryDx=0;entryDy=0;exitX=1;exitY=0.5;exitDx=0;exitDy=0;" edge="1" parent="1" source="_hT9IFy-ku6c-q67gdyz-609" target="_hT9IFy-ku6c-q67gdyz-614">
          <mxGeometry width="50" height="50" relative="1" as="geometry">
            <mxPoint x="1160" y="3910" as="sourcePoint" />
            <mxPoint x="1210" y="3860" as="targetPoint" />
          </mxGeometry>
        </mxCell>
        <mxCell id="_hT9IFy-ku6c-q67gdyz-631" value="v10" style="endArrow=none;html=1;rounded=0;entryX=0;entryY=0;entryDx=0;entryDy=0;exitX=0.967;exitY=0.721;exitDx=0;exitDy=0;exitPerimeter=0;" edge="1" parent="1" source="_hT9IFy-ku6c-q67gdyz-602" target="_hT9IFy-ku6c-q67gdyz-603">
          <mxGeometry width="50" height="50" relative="1" as="geometry">
            <mxPoint x="1160" y="3910" as="sourcePoint" />
            <mxPoint x="1210" y="3860" as="targetPoint" />
          </mxGeometry>
        </mxCell>
        <mxCell id="_hT9IFy-ku6c-q67gdyz-633" value="v22" style="endArrow=none;html=1;rounded=0;entryX=0;entryY=1;entryDx=0;entryDy=0;exitX=1;exitY=1;exitDx=0;exitDy=0;curved=1;" edge="1" parent="1" source="_hT9IFy-ku6c-q67gdyz-614" target="_hT9IFy-ku6c-q67gdyz-603">
          <mxGeometry width="50" height="50" relative="1" as="geometry">
            <mxPoint x="1340" y="3850" as="sourcePoint" />
            <mxPoint x="1450" y="3840" as="targetPoint" />
            <Array as="points">
              <mxPoint x="1390" y="3870" />
            </Array>
          </mxGeometry>
        </mxCell>
        <mxCell id="_hT9IFy-ku6c-q67gdyz-634" value="v11" style="endArrow=none;html=1;rounded=0;entryX=1;entryY=1;entryDx=0;entryDy=0;exitX=0;exitY=0;exitDx=0;exitDy=0;" edge="1" parent="1" source="_hT9IFy-ku6c-q67gdyz-604" target="_hT9IFy-ku6c-q67gdyz-603">
          <mxGeometry width="50" height="50" relative="1" as="geometry">
            <mxPoint x="1160" y="3910" as="sourcePoint" />
            <mxPoint x="1210" y="3860" as="targetPoint" />
          </mxGeometry>
        </mxCell>
        <mxCell id="_hT9IFy-ku6c-q67gdyz-637" value="v12" style="endArrow=none;html=1;rounded=0;entryX=0.5;entryY=1;entryDx=0;entryDy=0;exitX=0.5;exitY=0;exitDx=0;exitDy=0;" edge="1" parent="1" source="_hT9IFy-ku6c-q67gdyz-600" target="_hT9IFy-ku6c-q67gdyz-604">
          <mxGeometry width="50" height="50" relative="1" as="geometry">
            <mxPoint x="1160" y="3910" as="sourcePoint" />
            <mxPoint x="1210" y="3860" as="targetPoint" />
          </mxGeometry>
        </mxCell>
        <mxCell id="_hT9IFy-ku6c-q67gdyz-640" value="3" style="text;html=1;align=center;verticalAlign=middle;whiteSpace=wrap;rounded=0;fontStyle=1" vertex="1" parent="1">
          <mxGeometry x="1150" y="3830" width="60" height="30" as="geometry" />
        </mxCell>
        <mxCell id="_hT9IFy-ku6c-q67gdyz-642" value="1" style="text;html=1;align=center;verticalAlign=middle;whiteSpace=wrap;rounded=0;fontStyle=1" vertex="1" parent="1">
          <mxGeometry x="1060" y="3870" width="60" height="30" as="geometry" />
        </mxCell>
        <mxCell id="_hT9IFy-ku6c-q67gdyz-644" value="1" style="text;html=1;align=center;verticalAlign=middle;whiteSpace=wrap;rounded=0;fontStyle=1" vertex="1" parent="1">
          <mxGeometry x="920" y="3895" width="60" height="30" as="geometry" />
        </mxCell>
        <mxCell id="_hT9IFy-ku6c-q67gdyz-646" value="3" style="text;html=1;align=center;verticalAlign=middle;whiteSpace=wrap;rounded=0;fontStyle=1" vertex="1" parent="1">
          <mxGeometry x="960" y="4000" width="60" height="30" as="geometry" />
        </mxCell>
        <mxCell id="_hT9IFy-ku6c-q67gdyz-647" value="2" style="text;html=1;align=center;verticalAlign=middle;whiteSpace=wrap;rounded=0;fontStyle=1" vertex="1" parent="1">
          <mxGeometry x="1080" y="4020" width="60" height="30" as="geometry" />
        </mxCell>
        <mxCell id="_hT9IFy-ku6c-q67gdyz-650" value="2" style="text;html=1;align=center;verticalAlign=middle;whiteSpace=wrap;rounded=0;fontStyle=1" vertex="1" parent="1">
          <mxGeometry x="1140" y="3940" width="60" height="30" as="geometry" />
        </mxCell>
        <mxCell id="_hT9IFy-ku6c-q67gdyz-652" value="1" style="text;html=1;align=center;verticalAlign=middle;whiteSpace=wrap;rounded=0;fontStyle=1" vertex="1" parent="1">
          <mxGeometry x="1390" y="3860" width="60" height="30" as="geometry" />
        </mxCell>
        <mxCell id="_hT9IFy-ku6c-q67gdyz-653" value="1" style="text;html=1;align=center;verticalAlign=middle;whiteSpace=wrap;rounded=0;fontStyle=1" vertex="1" parent="1">
          <mxGeometry x="1240" y="3865" width="60" height="30" as="geometry" />
        </mxCell>
        <mxCell id="_hT9IFy-ku6c-q67gdyz-654" value="4" style="text;html=1;align=center;verticalAlign=middle;whiteSpace=wrap;rounded=0;fontStyle=1" vertex="1" parent="1">
          <mxGeometry x="1500" y="3840" width="60" height="30" as="geometry" />
        </mxCell>
        <mxCell id="_hT9IFy-ku6c-q67gdyz-655" value="2" style="text;html=1;align=center;verticalAlign=middle;whiteSpace=wrap;rounded=0;fontStyle=1" vertex="1" parent="1">
          <mxGeometry x="1410" y="3780" width="60" height="30" as="geometry" />
        </mxCell>
        <mxCell id="_hT9IFy-ku6c-q67gdyz-662" value="2" style="text;html=1;align=center;verticalAlign=middle;whiteSpace=wrap;rounded=0;fontStyle=1" vertex="1" parent="1">
          <mxGeometry x="1540" y="3930" width="60" height="30" as="geometry" />
        </mxCell>
        <mxCell id="_hT9IFy-ku6c-q67gdyz-663" value="x10" style="ellipse;whiteSpace=wrap;html=1;aspect=fixed;" vertex="1" parent="1">
          <mxGeometry x="1551" y="4500" width="40" height="40" as="geometry" />
        </mxCell>
        <mxCell id="_hT9IFy-ku6c-q67gdyz-664" value="x11" style="ellipse;whiteSpace=wrap;html=1;aspect=fixed;" vertex="1" parent="1">
          <mxGeometry x="1481" y="4440" width="40" height="40" as="geometry" />
        </mxCell>
        <mxCell id="_hT9IFy-ku6c-q67gdyz-665" value="x7" style="ellipse;whiteSpace=wrap;html=1;aspect=fixed;" vertex="1" parent="1">
          <mxGeometry x="1391" y="4250" width="40" height="40" as="geometry" />
        </mxCell>
        <mxCell id="_hT9IFy-ku6c-q67gdyz-666" value="x8" style="ellipse;whiteSpace=wrap;html=1;aspect=fixed;" vertex="1" parent="1">
          <mxGeometry x="1461" y="4300" width="40" height="40" as="geometry" />
        </mxCell>
        <mxCell id="_hT9IFy-ku6c-q67gdyz-667" value="x9" style="ellipse;whiteSpace=wrap;html=1;aspect=fixed;" vertex="1" parent="1">
          <mxGeometry x="1561" y="4360" width="40" height="40" as="geometry" />
        </mxCell>
        <mxCell id="_hT9IFy-ku6c-q67gdyz-670" value="x14" style="ellipse;whiteSpace=wrap;html=1;aspect=fixed;" vertex="1" parent="1">
          <mxGeometry x="1171" y="4520" width="40" height="40" as="geometry" />
        </mxCell>
        <mxCell id="_hT9IFy-ku6c-q67gdyz-671" value="x15" style="ellipse;whiteSpace=wrap;html=1;aspect=fixed;" vertex="1" parent="1">
          <mxGeometry x="1051" y="4510" width="40" height="40" as="geometry" />
        </mxCell>
        <mxCell id="_hT9IFy-ku6c-q67gdyz-672" value="x5" style="ellipse;whiteSpace=wrap;html=1;aspect=fixed;" vertex="1" parent="1">
          <mxGeometry x="1221" y="4350" width="40" height="40" as="geometry" />
        </mxCell>
        <mxCell id="_hT9IFy-ku6c-q67gdyz-673" value="x4" style="ellipse;whiteSpace=wrap;html=1;aspect=fixed;" vertex="1" parent="1">
          <mxGeometry x="1121" y="4310" width="40" height="40" as="geometry" />
        </mxCell>
        <mxCell id="_hT9IFy-ku6c-q67gdyz-674" value="x3" style="ellipse;whiteSpace=wrap;html=1;aspect=fixed;" vertex="1" parent="1">
          <mxGeometry x="971" y="4320" width="40" height="40" as="geometry" />
        </mxCell>
        <mxCell id="_hT9IFy-ku6c-q67gdyz-675" value="x2" style="ellipse;whiteSpace=wrap;html=1;aspect=fixed;" vertex="1" parent="1">
          <mxGeometry x="1041" y="4380" width="40" height="40" as="geometry" />
        </mxCell>
        <mxCell id="_hT9IFy-ku6c-q67gdyz-676" value="x1" style="ellipse;whiteSpace=wrap;html=1;aspect=fixed;" vertex="1" parent="1">
          <mxGeometry x="961" y="4440" width="40" height="40" as="geometry" />
        </mxCell>
        <mxCell id="_hT9IFy-ku6c-q67gdyz-677" value="x6" style="ellipse;whiteSpace=wrap;html=1;aspect=fixed;" vertex="1" parent="1">
          <mxGeometry x="1311" y="4310" width="40" height="40" as="geometry" />
        </mxCell>
        <mxCell id="_hT9IFy-ku6c-q67gdyz-680" value="v2" style="endArrow=none;html=1;rounded=0;exitX=0.5;exitY=1;exitDx=0;exitDy=0;entryX=0.5;entryY=0;entryDx=0;entryDy=0;" edge="1" parent="1" source="_hT9IFy-ku6c-q67gdyz-674" target="_hT9IFy-ku6c-q67gdyz-676">
          <mxGeometry width="50" height="50" relative="1" as="geometry">
            <mxPoint x="1015" y="4364" as="sourcePoint" />
            <mxPoint x="1057" y="4396" as="targetPoint" />
          </mxGeometry>
        </mxCell>
        <mxCell id="_hT9IFy-ku6c-q67gdyz-682" value="v4" style="endArrow=none;html=1;rounded=0;exitX=1;exitY=0;exitDx=0;exitDy=0;entryX=0;entryY=1;entryDx=0;entryDy=0;" edge="1" parent="1" source="_hT9IFy-ku6c-q67gdyz-675" target="_hT9IFy-ku6c-q67gdyz-673">
          <mxGeometry width="50" height="50" relative="1" as="geometry">
            <mxPoint x="1005" y="4456" as="sourcePoint" />
            <mxPoint x="1057" y="4424" as="targetPoint" />
          </mxGeometry>
        </mxCell>
        <mxCell id="_hT9IFy-ku6c-q67gdyz-683" value="v6" style="endArrow=none;html=1;rounded=0;exitX=1;exitY=0.5;exitDx=0;exitDy=0;entryX=0;entryY=0.5;entryDx=0;entryDy=0;" edge="1" parent="1" source="_hT9IFy-ku6c-q67gdyz-673" target="_hT9IFy-ku6c-q67gdyz-672">
          <mxGeometry width="50" height="50" relative="1" as="geometry">
            <mxPoint x="1201" y="4310" as="sourcePoint" />
            <mxPoint x="1251" y="4260" as="targetPoint" />
          </mxGeometry>
        </mxCell>
        <mxCell id="_hT9IFy-ku6c-q67gdyz-684" value="v23" style="endArrow=none;html=1;rounded=0;exitX=1;exitY=1;exitDx=0;exitDy=0;" edge="1" parent="1" source="_hT9IFy-ku6c-q67gdyz-676" target="_hT9IFy-ku6c-q67gdyz-671">
          <mxGeometry width="50" height="50" relative="1" as="geometry">
            <mxPoint x="1181" y="4400" as="sourcePoint" />
            <mxPoint x="1231" y="4350" as="targetPoint" />
          </mxGeometry>
        </mxCell>
        <mxCell id="_hT9IFy-ku6c-q67gdyz-685" value="v19" style="endArrow=none;html=1;rounded=0;exitX=1;exitY=0.5;exitDx=0;exitDy=0;entryX=0;entryY=0.5;entryDx=0;entryDy=0;" edge="1" parent="1" source="_hT9IFy-ku6c-q67gdyz-671" target="_hT9IFy-ku6c-q67gdyz-670">
          <mxGeometry width="50" height="50" relative="1" as="geometry">
            <mxPoint x="1181" y="4400" as="sourcePoint" />
            <mxPoint x="1211" y="4400" as="targetPoint" />
          </mxGeometry>
        </mxCell>
        <mxCell id="_hT9IFy-ku6c-q67gdyz-686" value="v20" style="endArrow=none;html=1;rounded=0;exitX=0.5;exitY=0;exitDx=0;exitDy=0;entryX=0;entryY=1;entryDx=0;entryDy=0;" edge="1" parent="1" source="_hT9IFy-ku6c-q67gdyz-670" target="_hT9IFy-ku6c-q67gdyz-672">
          <mxGeometry x="0.1737" y="1" width="50" height="50" relative="1" as="geometry">
            <mxPoint x="1181" y="4400" as="sourcePoint" />
            <mxPoint x="1231" y="4350" as="targetPoint" />
            <mxPoint as="offset" />
          </mxGeometry>
        </mxCell>
        <mxCell id="_hT9IFy-ku6c-q67gdyz-692" value="v7" style="endArrow=none;html=1;rounded=0;entryX=0;entryY=1;entryDx=0;entryDy=0;exitX=1;exitY=0.5;exitDx=0;exitDy=0;" edge="1" parent="1" source="_hT9IFy-ku6c-q67gdyz-672" target="_hT9IFy-ku6c-q67gdyz-677">
          <mxGeometry width="50" height="50" relative="1" as="geometry">
            <mxPoint x="1181" y="4400" as="sourcePoint" />
            <mxPoint x="1231" y="4350" as="targetPoint" />
          </mxGeometry>
        </mxCell>
        <mxCell id="_hT9IFy-ku6c-q67gdyz-694" value="v10" style="endArrow=none;html=1;rounded=0;entryX=0;entryY=0;entryDx=0;entryDy=0;exitX=0.967;exitY=0.721;exitDx=0;exitDy=0;exitPerimeter=0;" edge="1" parent="1" source="_hT9IFy-ku6c-q67gdyz-665" target="_hT9IFy-ku6c-q67gdyz-666">
          <mxGeometry width="50" height="50" relative="1" as="geometry">
            <mxPoint x="1181" y="4400" as="sourcePoint" />
            <mxPoint x="1231" y="4350" as="targetPoint" />
          </mxGeometry>
        </mxCell>
        <mxCell id="_hT9IFy-ku6c-q67gdyz-696" value="v22" style="endArrow=none;html=1;rounded=0;entryX=0;entryY=1;entryDx=0;entryDy=0;exitX=1;exitY=1;exitDx=0;exitDy=0;curved=1;" edge="1" parent="1" source="_hT9IFy-ku6c-q67gdyz-677" target="_hT9IFy-ku6c-q67gdyz-666">
          <mxGeometry width="50" height="50" relative="1" as="geometry">
            <mxPoint x="1361" y="4340" as="sourcePoint" />
            <mxPoint x="1471" y="4330" as="targetPoint" />
            <Array as="points">
              <mxPoint x="1411" y="4360" />
            </Array>
          </mxGeometry>
        </mxCell>
        <mxCell id="_hT9IFy-ku6c-q67gdyz-697" value="v11" style="endArrow=none;html=1;rounded=0;entryX=1;entryY=1;entryDx=0;entryDy=0;exitX=0;exitY=0;exitDx=0;exitDy=0;" edge="1" parent="1" source="_hT9IFy-ku6c-q67gdyz-667" target="_hT9IFy-ku6c-q67gdyz-666">
          <mxGeometry width="50" height="50" relative="1" as="geometry">
            <mxPoint x="1181" y="4400" as="sourcePoint" />
            <mxPoint x="1231" y="4350" as="targetPoint" />
          </mxGeometry>
        </mxCell>
        <mxCell id="_hT9IFy-ku6c-q67gdyz-699" value="v14" style="endArrow=none;html=1;rounded=0;entryX=0.5;entryY=0;entryDx=0;entryDy=0;exitX=1;exitY=1;exitDx=0;exitDy=0;" edge="1" parent="1" source="_hT9IFy-ku6c-q67gdyz-664" target="_hT9IFy-ku6c-q67gdyz-663">
          <mxGeometry width="50" height="50" relative="1" as="geometry">
            <mxPoint x="1181" y="4400" as="sourcePoint" />
            <mxPoint x="1231" y="4350" as="targetPoint" />
          </mxGeometry>
        </mxCell>
        <mxCell id="_hT9IFy-ku6c-q67gdyz-700" value="v12" style="endArrow=none;html=1;rounded=0;entryX=0.5;entryY=1;entryDx=0;entryDy=0;exitX=0.5;exitY=0;exitDx=0;exitDy=0;" edge="1" parent="1" source="_hT9IFy-ku6c-q67gdyz-663" target="_hT9IFy-ku6c-q67gdyz-667">
          <mxGeometry width="50" height="50" relative="1" as="geometry">
            <mxPoint x="1181" y="4400" as="sourcePoint" />
            <mxPoint x="1231" y="4350" as="targetPoint" />
          </mxGeometry>
        </mxCell>
        <mxCell id="_hT9IFy-ku6c-q67gdyz-703" value="3" style="text;html=1;align=center;verticalAlign=middle;whiteSpace=wrap;rounded=0;fontStyle=1" vertex="1" parent="1">
          <mxGeometry x="1171" y="4320" width="60" height="30" as="geometry" />
        </mxCell>
        <mxCell id="_hT9IFy-ku6c-q67gdyz-705" value="1" style="text;html=1;align=center;verticalAlign=middle;whiteSpace=wrap;rounded=0;fontStyle=1" vertex="1" parent="1">
          <mxGeometry x="1081" y="4360" width="60" height="30" as="geometry" />
        </mxCell>
        <mxCell id="_hT9IFy-ku6c-q67gdyz-707" value="1" style="text;html=1;align=center;verticalAlign=middle;whiteSpace=wrap;rounded=0;fontStyle=1" vertex="1" parent="1">
          <mxGeometry x="941" y="4385" width="60" height="30" as="geometry" />
        </mxCell>
        <mxCell id="_hT9IFy-ku6c-q67gdyz-709" value="3" style="text;html=1;align=center;verticalAlign=middle;whiteSpace=wrap;rounded=0;fontStyle=1" vertex="1" parent="1">
          <mxGeometry x="981" y="4490" width="60" height="30" as="geometry" />
        </mxCell>
        <mxCell id="_hT9IFy-ku6c-q67gdyz-710" value="2" style="text;html=1;align=center;verticalAlign=middle;whiteSpace=wrap;rounded=0;fontStyle=1" vertex="1" parent="1">
          <mxGeometry x="1101" y="4510" width="60" height="30" as="geometry" />
        </mxCell>
        <mxCell id="_hT9IFy-ku6c-q67gdyz-713" value="2" style="text;html=1;align=center;verticalAlign=middle;whiteSpace=wrap;rounded=0;fontStyle=1" vertex="1" parent="1">
          <mxGeometry x="1161" y="4430" width="60" height="30" as="geometry" />
        </mxCell>
        <mxCell id="_hT9IFy-ku6c-q67gdyz-715" value="1" style="text;html=1;align=center;verticalAlign=middle;whiteSpace=wrap;rounded=0;fontStyle=1" vertex="1" parent="1">
          <mxGeometry x="1411" y="4350" width="60" height="30" as="geometry" />
        </mxCell>
        <mxCell id="_hT9IFy-ku6c-q67gdyz-716" value="1" style="text;html=1;align=center;verticalAlign=middle;whiteSpace=wrap;rounded=0;fontStyle=1" vertex="1" parent="1">
          <mxGeometry x="1261" y="4355" width="60" height="30" as="geometry" />
        </mxCell>
        <mxCell id="_hT9IFy-ku6c-q67gdyz-717" value="4" style="text;html=1;align=center;verticalAlign=middle;whiteSpace=wrap;rounded=0;fontStyle=1" vertex="1" parent="1">
          <mxGeometry x="1521" y="4330" width="60" height="30" as="geometry" />
        </mxCell>
        <mxCell id="_hT9IFy-ku6c-q67gdyz-718" value="2" style="text;html=1;align=center;verticalAlign=middle;whiteSpace=wrap;rounded=0;fontStyle=1" vertex="1" parent="1">
          <mxGeometry x="1431" y="4270" width="60" height="30" as="geometry" />
        </mxCell>
        <mxCell id="_hT9IFy-ku6c-q67gdyz-724" value="1" style="text;html=1;align=center;verticalAlign=middle;whiteSpace=wrap;rounded=0;fontStyle=1" vertex="1" parent="1">
          <mxGeometry x="1521" y="4455" width="60" height="30" as="geometry" />
        </mxCell>
        <mxCell id="_hT9IFy-ku6c-q67gdyz-725" value="2" style="text;html=1;align=center;verticalAlign=middle;whiteSpace=wrap;rounded=0;fontStyle=1" vertex="1" parent="1">
          <mxGeometry x="1561" y="4420" width="60" height="30" as="geometry" />
        </mxCell>
        <mxCell id="_hT9IFy-ku6c-q67gdyz-726" value="x10" style="ellipse;whiteSpace=wrap;html=1;aspect=fixed;" vertex="1" parent="1">
          <mxGeometry x="1521" y="5010" width="40" height="40" as="geometry" />
        </mxCell>
        <mxCell id="_hT9IFy-ku6c-q67gdyz-727" value="x11" style="ellipse;whiteSpace=wrap;html=1;aspect=fixed;" vertex="1" parent="1">
          <mxGeometry x="1451" y="4950" width="40" height="40" as="geometry" />
        </mxCell>
        <mxCell id="_hT9IFy-ku6c-q67gdyz-728" value="x7" style="ellipse;whiteSpace=wrap;html=1;aspect=fixed;" vertex="1" parent="1">
          <mxGeometry x="1361" y="4760" width="40" height="40" as="geometry" />
        </mxCell>
        <mxCell id="_hT9IFy-ku6c-q67gdyz-729" value="x8" style="ellipse;whiteSpace=wrap;html=1;aspect=fixed;" vertex="1" parent="1">
          <mxGeometry x="1431" y="4810" width="40" height="40" as="geometry" />
        </mxCell>
        <mxCell id="_hT9IFy-ku6c-q67gdyz-730" value="x9" style="ellipse;whiteSpace=wrap;html=1;aspect=fixed;" vertex="1" parent="1">
          <mxGeometry x="1531" y="4870" width="40" height="40" as="geometry" />
        </mxCell>
        <mxCell id="_hT9IFy-ku6c-q67gdyz-731" value="x12" style="ellipse;whiteSpace=wrap;html=1;aspect=fixed;" vertex="1" parent="1">
          <mxGeometry x="1381" y="5020" width="40" height="40" as="geometry" />
        </mxCell>
        <mxCell id="_hT9IFy-ku6c-q67gdyz-732" value="x13" style="ellipse;whiteSpace=wrap;html=1;aspect=fixed;" vertex="1" parent="1">
          <mxGeometry x="1261" y="4990" width="40" height="40" as="geometry" />
        </mxCell>
        <mxCell id="_hT9IFy-ku6c-q67gdyz-733" value="x14" style="ellipse;whiteSpace=wrap;html=1;aspect=fixed;" vertex="1" parent="1">
          <mxGeometry x="1141" y="5030" width="40" height="40" as="geometry" />
        </mxCell>
        <mxCell id="_hT9IFy-ku6c-q67gdyz-734" value="x15" style="ellipse;whiteSpace=wrap;html=1;aspect=fixed;" vertex="1" parent="1">
          <mxGeometry x="1021" y="5020" width="40" height="40" as="geometry" />
        </mxCell>
        <mxCell id="_hT9IFy-ku6c-q67gdyz-735" value="x5" style="ellipse;whiteSpace=wrap;html=1;aspect=fixed;" vertex="1" parent="1">
          <mxGeometry x="1191" y="4860" width="40" height="40" as="geometry" />
        </mxCell>
        <mxCell id="_hT9IFy-ku6c-q67gdyz-736" value="x4" style="ellipse;whiteSpace=wrap;html=1;aspect=fixed;" vertex="1" parent="1">
          <mxGeometry x="1091" y="4820" width="40" height="40" as="geometry" />
        </mxCell>
        <mxCell id="_hT9IFy-ku6c-q67gdyz-737" value="x3" style="ellipse;whiteSpace=wrap;html=1;aspect=fixed;" vertex="1" parent="1">
          <mxGeometry x="941" y="4830" width="40" height="40" as="geometry" />
        </mxCell>
        <mxCell id="_hT9IFy-ku6c-q67gdyz-738" value="x2" style="ellipse;whiteSpace=wrap;html=1;aspect=fixed;" vertex="1" parent="1">
          <mxGeometry x="1011" y="4890" width="40" height="40" as="geometry" />
        </mxCell>
        <mxCell id="_hT9IFy-ku6c-q67gdyz-739" value="x1" style="ellipse;whiteSpace=wrap;html=1;aspect=fixed;" vertex="1" parent="1">
          <mxGeometry x="931" y="4950" width="40" height="40" as="geometry" />
        </mxCell>
        <mxCell id="_hT9IFy-ku6c-q67gdyz-740" value="x6" style="ellipse;whiteSpace=wrap;html=1;aspect=fixed;" vertex="1" parent="1">
          <mxGeometry x="1281" y="4820" width="40" height="40" as="geometry" />
        </mxCell>
        <mxCell id="_hT9IFy-ku6c-q67gdyz-743" value="v2" style="endArrow=none;html=1;rounded=0;exitX=0.5;exitY=1;exitDx=0;exitDy=0;entryX=0.5;entryY=0;entryDx=0;entryDy=0;" edge="1" parent="1" source="_hT9IFy-ku6c-q67gdyz-737" target="_hT9IFy-ku6c-q67gdyz-739">
          <mxGeometry width="50" height="50" relative="1" as="geometry">
            <mxPoint x="985" y="4874" as="sourcePoint" />
            <mxPoint x="1027" y="4906" as="targetPoint" />
          </mxGeometry>
        </mxCell>
        <mxCell id="_hT9IFy-ku6c-q67gdyz-745" value="v4" style="endArrow=none;html=1;rounded=0;exitX=1;exitY=0;exitDx=0;exitDy=0;entryX=0;entryY=1;entryDx=0;entryDy=0;" edge="1" parent="1" source="_hT9IFy-ku6c-q67gdyz-738" target="_hT9IFy-ku6c-q67gdyz-736">
          <mxGeometry width="50" height="50" relative="1" as="geometry">
            <mxPoint x="975" y="4966" as="sourcePoint" />
            <mxPoint x="1027" y="4934" as="targetPoint" />
          </mxGeometry>
        </mxCell>
        <mxCell id="_hT9IFy-ku6c-q67gdyz-746" value="v6" style="endArrow=none;html=1;rounded=0;exitX=1;exitY=0.5;exitDx=0;exitDy=0;entryX=0;entryY=0.5;entryDx=0;entryDy=0;" edge="1" parent="1" source="_hT9IFy-ku6c-q67gdyz-736" target="_hT9IFy-ku6c-q67gdyz-735">
          <mxGeometry width="50" height="50" relative="1" as="geometry">
            <mxPoint x="1171" y="4820" as="sourcePoint" />
            <mxPoint x="1221" y="4770" as="targetPoint" />
          </mxGeometry>
        </mxCell>
        <mxCell id="_hT9IFy-ku6c-q67gdyz-747" value="v23" style="endArrow=none;html=1;rounded=0;exitX=1;exitY=1;exitDx=0;exitDy=0;" edge="1" parent="1" source="_hT9IFy-ku6c-q67gdyz-739" target="_hT9IFy-ku6c-q67gdyz-734">
          <mxGeometry width="50" height="50" relative="1" as="geometry">
            <mxPoint x="1151" y="4910" as="sourcePoint" />
            <mxPoint x="1201" y="4860" as="targetPoint" />
          </mxGeometry>
        </mxCell>
        <mxCell id="_hT9IFy-ku6c-q67gdyz-748" value="v19" style="endArrow=none;html=1;rounded=0;exitX=1;exitY=0.5;exitDx=0;exitDy=0;entryX=0;entryY=0.5;entryDx=0;entryDy=0;" edge="1" parent="1" source="_hT9IFy-ku6c-q67gdyz-734" target="_hT9IFy-ku6c-q67gdyz-733">
          <mxGeometry width="50" height="50" relative="1" as="geometry">
            <mxPoint x="1151" y="4910" as="sourcePoint" />
            <mxPoint x="1181" y="4910" as="targetPoint" />
          </mxGeometry>
        </mxCell>
        <mxCell id="_hT9IFy-ku6c-q67gdyz-749" value="v20" style="endArrow=none;html=1;rounded=0;exitX=0.5;exitY=0;exitDx=0;exitDy=0;entryX=0;entryY=1;entryDx=0;entryDy=0;" edge="1" parent="1" source="_hT9IFy-ku6c-q67gdyz-733" target="_hT9IFy-ku6c-q67gdyz-735">
          <mxGeometry x="0.1737" y="1" width="50" height="50" relative="1" as="geometry">
            <mxPoint x="1151" y="4910" as="sourcePoint" />
            <mxPoint x="1201" y="4860" as="targetPoint" />
            <mxPoint as="offset" />
          </mxGeometry>
        </mxCell>
        <mxCell id="_hT9IFy-ku6c-q67gdyz-752" value="v17" style="endArrow=none;html=1;rounded=0;exitX=0;exitY=0.5;exitDx=0;exitDy=0;entryX=1;entryY=0.5;entryDx=0;entryDy=0;" edge="1" parent="1" source="_hT9IFy-ku6c-q67gdyz-731" target="_hT9IFy-ku6c-q67gdyz-732">
          <mxGeometry width="50" height="50" relative="1" as="geometry">
            <mxPoint x="1151" y="4910" as="sourcePoint" />
            <mxPoint x="1201" y="4860" as="targetPoint" />
          </mxGeometry>
        </mxCell>
        <mxCell id="_hT9IFy-ku6c-q67gdyz-754" value="v15" style="endArrow=none;html=1;rounded=0;exitX=1;exitY=0.5;exitDx=0;exitDy=0;entryX=0;entryY=0.5;entryDx=0;entryDy=0;" edge="1" parent="1" source="_hT9IFy-ku6c-q67gdyz-731" target="_hT9IFy-ku6c-q67gdyz-726">
          <mxGeometry width="50" height="50" relative="1" as="geometry">
            <mxPoint x="1181" y="5050" as="sourcePoint" />
            <mxPoint x="1217" y="4914" as="targetPoint" />
          </mxGeometry>
        </mxCell>
        <mxCell id="_hT9IFy-ku6c-q67gdyz-755" value="v7" style="endArrow=none;html=1;rounded=0;entryX=0;entryY=1;entryDx=0;entryDy=0;exitX=1;exitY=0.5;exitDx=0;exitDy=0;" edge="1" parent="1" source="_hT9IFy-ku6c-q67gdyz-735" target="_hT9IFy-ku6c-q67gdyz-740">
          <mxGeometry width="50" height="50" relative="1" as="geometry">
            <mxPoint x="1151" y="4910" as="sourcePoint" />
            <mxPoint x="1201" y="4860" as="targetPoint" />
          </mxGeometry>
        </mxCell>
        <mxCell id="_hT9IFy-ku6c-q67gdyz-757" value="v10" style="endArrow=none;html=1;rounded=0;entryX=0;entryY=0;entryDx=0;entryDy=0;exitX=0.967;exitY=0.721;exitDx=0;exitDy=0;exitPerimeter=0;" edge="1" parent="1" source="_hT9IFy-ku6c-q67gdyz-728" target="_hT9IFy-ku6c-q67gdyz-729">
          <mxGeometry width="50" height="50" relative="1" as="geometry">
            <mxPoint x="1151" y="4910" as="sourcePoint" />
            <mxPoint x="1201" y="4860" as="targetPoint" />
          </mxGeometry>
        </mxCell>
        <mxCell id="_hT9IFy-ku6c-q67gdyz-759" value="v22" style="endArrow=none;html=1;rounded=0;entryX=0;entryY=1;entryDx=0;entryDy=0;exitX=1;exitY=1;exitDx=0;exitDy=0;curved=1;" edge="1" parent="1" source="_hT9IFy-ku6c-q67gdyz-740" target="_hT9IFy-ku6c-q67gdyz-729">
          <mxGeometry width="50" height="50" relative="1" as="geometry">
            <mxPoint x="1331" y="4850" as="sourcePoint" />
            <mxPoint x="1441" y="4840" as="targetPoint" />
            <Array as="points">
              <mxPoint x="1381" y="4870" />
            </Array>
          </mxGeometry>
        </mxCell>
        <mxCell id="_hT9IFy-ku6c-q67gdyz-760" value="v11" style="endArrow=none;html=1;rounded=0;entryX=1;entryY=1;entryDx=0;entryDy=0;exitX=0;exitY=0;exitDx=0;exitDy=0;" edge="1" parent="1" source="_hT9IFy-ku6c-q67gdyz-730" target="_hT9IFy-ku6c-q67gdyz-729">
          <mxGeometry width="50" height="50" relative="1" as="geometry">
            <mxPoint x="1151" y="4910" as="sourcePoint" />
            <mxPoint x="1201" y="4860" as="targetPoint" />
          </mxGeometry>
        </mxCell>
        <mxCell id="_hT9IFy-ku6c-q67gdyz-762" value="v14" style="endArrow=none;html=1;rounded=0;entryX=0.5;entryY=0;entryDx=0;entryDy=0;exitX=1;exitY=1;exitDx=0;exitDy=0;" edge="1" parent="1" source="_hT9IFy-ku6c-q67gdyz-727" target="_hT9IFy-ku6c-q67gdyz-726">
          <mxGeometry width="50" height="50" relative="1" as="geometry">
            <mxPoint x="1151" y="4910" as="sourcePoint" />
            <mxPoint x="1201" y="4860" as="targetPoint" />
          </mxGeometry>
        </mxCell>
        <mxCell id="_hT9IFy-ku6c-q67gdyz-763" value="v12" style="endArrow=none;html=1;rounded=0;entryX=0.5;entryY=1;entryDx=0;entryDy=0;exitX=0.5;exitY=0;exitDx=0;exitDy=0;" edge="1" parent="1" source="_hT9IFy-ku6c-q67gdyz-726" target="_hT9IFy-ku6c-q67gdyz-730">
          <mxGeometry width="50" height="50" relative="1" as="geometry">
            <mxPoint x="1151" y="4910" as="sourcePoint" />
            <mxPoint x="1201" y="4860" as="targetPoint" />
          </mxGeometry>
        </mxCell>
        <mxCell id="_hT9IFy-ku6c-q67gdyz-766" value="3" style="text;html=1;align=center;verticalAlign=middle;whiteSpace=wrap;rounded=0;fontStyle=1" vertex="1" parent="1">
          <mxGeometry x="1141" y="4830" width="60" height="30" as="geometry" />
        </mxCell>
        <mxCell id="_hT9IFy-ku6c-q67gdyz-768" value="1" style="text;html=1;align=center;verticalAlign=middle;whiteSpace=wrap;rounded=0;fontStyle=1" vertex="1" parent="1">
          <mxGeometry x="1051" y="4870" width="60" height="30" as="geometry" />
        </mxCell>
        <mxCell id="_hT9IFy-ku6c-q67gdyz-770" value="1" style="text;html=1;align=center;verticalAlign=middle;whiteSpace=wrap;rounded=0;fontStyle=1" vertex="1" parent="1">
          <mxGeometry x="911" y="4895" width="60" height="30" as="geometry" />
        </mxCell>
        <mxCell id="_hT9IFy-ku6c-q67gdyz-772" value="3" style="text;html=1;align=center;verticalAlign=middle;whiteSpace=wrap;rounded=0;fontStyle=1" vertex="1" parent="1">
          <mxGeometry x="951" y="5000" width="60" height="30" as="geometry" />
        </mxCell>
        <mxCell id="_hT9IFy-ku6c-q67gdyz-773" value="2" style="text;html=1;align=center;verticalAlign=middle;whiteSpace=wrap;rounded=0;fontStyle=1" vertex="1" parent="1">
          <mxGeometry x="1071" y="5020" width="60" height="30" as="geometry" />
        </mxCell>
        <mxCell id="_hT9IFy-ku6c-q67gdyz-776" value="2" style="text;html=1;align=center;verticalAlign=middle;whiteSpace=wrap;rounded=0;fontStyle=1" vertex="1" parent="1">
          <mxGeometry x="1131" y="4940" width="60" height="30" as="geometry" />
        </mxCell>
        <mxCell id="_hT9IFy-ku6c-q67gdyz-778" value="1" style="text;html=1;align=center;verticalAlign=middle;whiteSpace=wrap;rounded=0;fontStyle=1" vertex="1" parent="1">
          <mxGeometry x="1381" y="4860" width="60" height="30" as="geometry" />
        </mxCell>
        <mxCell id="_hT9IFy-ku6c-q67gdyz-779" value="1" style="text;html=1;align=center;verticalAlign=middle;whiteSpace=wrap;rounded=0;fontStyle=1" vertex="1" parent="1">
          <mxGeometry x="1231" y="4865" width="60" height="30" as="geometry" />
        </mxCell>
        <mxCell id="_hT9IFy-ku6c-q67gdyz-780" value="4" style="text;html=1;align=center;verticalAlign=middle;whiteSpace=wrap;rounded=0;fontStyle=1" vertex="1" parent="1">
          <mxGeometry x="1491" y="4840" width="60" height="30" as="geometry" />
        </mxCell>
        <mxCell id="_hT9IFy-ku6c-q67gdyz-781" value="2" style="text;html=1;align=center;verticalAlign=middle;whiteSpace=wrap;rounded=0;fontStyle=1" vertex="1" parent="1">
          <mxGeometry x="1401" y="4780" width="60" height="30" as="geometry" />
        </mxCell>
        <mxCell id="_hT9IFy-ku6c-q67gdyz-785" value="1" style="text;html=1;align=center;verticalAlign=middle;whiteSpace=wrap;rounded=0;fontStyle=1" vertex="1" parent="1">
          <mxGeometry x="1311" y="4995" width="60" height="30" as="geometry" />
        </mxCell>
        <mxCell id="_hT9IFy-ku6c-q67gdyz-786" value="2" style="text;html=1;align=center;verticalAlign=middle;whiteSpace=wrap;rounded=0;fontStyle=1" vertex="1" parent="1">
          <mxGeometry x="1441" y="5010" width="60" height="30" as="geometry" />
        </mxCell>
        <mxCell id="_hT9IFy-ku6c-q67gdyz-787" value="1" style="text;html=1;align=center;verticalAlign=middle;whiteSpace=wrap;rounded=0;fontStyle=1" vertex="1" parent="1">
          <mxGeometry x="1491" y="4965" width="60" height="30" as="geometry" />
        </mxCell>
        <mxCell id="_hT9IFy-ku6c-q67gdyz-788" value="2" style="text;html=1;align=center;verticalAlign=middle;whiteSpace=wrap;rounded=0;fontStyle=1" vertex="1" parent="1">
          <mxGeometry x="1531" y="4930" width="60" height="30" as="geometry" />
        </mxCell>
        <mxCell id="_hT9IFy-ku6c-q67gdyz-1890" value="x1" style="ellipse;whiteSpace=wrap;html=1;aspect=fixed;" vertex="1" parent="1">
          <mxGeometry x="1695" y="6240" width="40" height="40" as="geometry" />
        </mxCell>
        <mxCell id="_hT9IFy-ku6c-q67gdyz-1921" value="1" style="text;html=1;align=center;verticalAlign=middle;whiteSpace=wrap;rounded=0;fontStyle=1" vertex="1" parent="1">
          <mxGeometry x="1675" y="6185" width="60" height="30" as="geometry" />
        </mxCell>
        <mxCell id="_hT9IFy-ku6c-q67gdyz-2133" value="x10" style="ellipse;whiteSpace=wrap;html=1;aspect=fixed;" vertex="1" parent="1">
          <mxGeometry x="2330" y="815" width="40" height="40" as="geometry" />
        </mxCell>
        <mxCell id="_hT9IFy-ku6c-q67gdyz-2134" value="x11" style="ellipse;whiteSpace=wrap;html=1;aspect=fixed;" vertex="1" parent="1">
          <mxGeometry x="2260" y="755" width="40" height="40" as="geometry" />
        </mxCell>
        <mxCell id="_hT9IFy-ku6c-q67gdyz-2135" value="x7" style="ellipse;whiteSpace=wrap;html=1;aspect=fixed;" vertex="1" parent="1">
          <mxGeometry x="2170" y="565" width="40" height="40" as="geometry" />
        </mxCell>
        <mxCell id="_hT9IFy-ku6c-q67gdyz-2136" value="x8" style="ellipse;whiteSpace=wrap;html=1;aspect=fixed;" vertex="1" parent="1">
          <mxGeometry x="2240" y="615" width="40" height="40" as="geometry" />
        </mxCell>
        <mxCell id="_hT9IFy-ku6c-q67gdyz-2137" value="x9" style="ellipse;whiteSpace=wrap;html=1;aspect=fixed;" vertex="1" parent="1">
          <mxGeometry x="2340" y="675" width="40" height="40" as="geometry" />
        </mxCell>
        <mxCell id="_hT9IFy-ku6c-q67gdyz-2138" value="x12" style="ellipse;whiteSpace=wrap;html=1;aspect=fixed;" vertex="1" parent="1">
          <mxGeometry x="2190" y="825" width="40" height="40" as="geometry" />
        </mxCell>
        <mxCell id="_hT9IFy-ku6c-q67gdyz-2139" value="x13" style="ellipse;whiteSpace=wrap;html=1;aspect=fixed;" vertex="1" parent="1">
          <mxGeometry x="2070" y="795" width="40" height="40" as="geometry" />
        </mxCell>
        <mxCell id="_hT9IFy-ku6c-q67gdyz-2140" value="x14" style="ellipse;whiteSpace=wrap;html=1;aspect=fixed;" vertex="1" parent="1">
          <mxGeometry x="1950" y="835" width="40" height="40" as="geometry" />
        </mxCell>
        <mxCell id="_hT9IFy-ku6c-q67gdyz-2141" value="x15" style="ellipse;whiteSpace=wrap;html=1;aspect=fixed;" vertex="1" parent="1">
          <mxGeometry x="1830" y="825" width="40" height="40" as="geometry" />
        </mxCell>
        <mxCell id="_hT9IFy-ku6c-q67gdyz-2142" value="x5" style="ellipse;whiteSpace=wrap;html=1;aspect=fixed;" vertex="1" parent="1">
          <mxGeometry x="2000" y="665" width="40" height="40" as="geometry" />
        </mxCell>
        <mxCell id="_hT9IFy-ku6c-q67gdyz-2143" value="x4" style="ellipse;whiteSpace=wrap;html=1;aspect=fixed;" vertex="1" parent="1">
          <mxGeometry x="1900" y="625" width="40" height="40" as="geometry" />
        </mxCell>
        <mxCell id="_hT9IFy-ku6c-q67gdyz-2144" value="x3" style="ellipse;whiteSpace=wrap;html=1;aspect=fixed;fillColor=#ffe6cc;strokeColor=#d79b00;" vertex="1" parent="1">
          <mxGeometry x="1750" y="635" width="40" height="40" as="geometry" />
        </mxCell>
        <mxCell id="_hT9IFy-ku6c-q67gdyz-2145" value="x2" style="ellipse;whiteSpace=wrap;html=1;aspect=fixed;" vertex="1" parent="1">
          <mxGeometry x="1820" y="695" width="40" height="40" as="geometry" />
        </mxCell>
        <mxCell id="_hT9IFy-ku6c-q67gdyz-2146" value="x1" style="ellipse;whiteSpace=wrap;html=1;aspect=fixed;" vertex="1" parent="1">
          <mxGeometry x="1740" y="755" width="40" height="40" as="geometry" />
        </mxCell>
        <mxCell id="_hT9IFy-ku6c-q67gdyz-2147" value="x6" style="ellipse;whiteSpace=wrap;html=1;aspect=fixed;" vertex="1" parent="1">
          <mxGeometry x="2090" y="625" width="40" height="40" as="geometry" />
        </mxCell>
        <mxCell id="_hT9IFy-ku6c-q67gdyz-2203" value="x10" style="ellipse;whiteSpace=wrap;html=1;aspect=fixed;" vertex="1" parent="1">
          <mxGeometry x="3140" y="419.95" width="40" height="40" as="geometry" />
        </mxCell>
        <mxCell id="_hT9IFy-ku6c-q67gdyz-2204" value="x11" style="ellipse;whiteSpace=wrap;html=1;aspect=fixed;" vertex="1" parent="1">
          <mxGeometry x="3070" y="359.95" width="40" height="40" as="geometry" />
        </mxCell>
        <mxCell id="_hT9IFy-ku6c-q67gdyz-2205" value="x7" style="ellipse;whiteSpace=wrap;html=1;aspect=fixed;" vertex="1" parent="1">
          <mxGeometry x="2980" y="169.95" width="40" height="40" as="geometry" />
        </mxCell>
        <mxCell id="_hT9IFy-ku6c-q67gdyz-2206" value="x8" style="ellipse;whiteSpace=wrap;html=1;aspect=fixed;" vertex="1" parent="1">
          <mxGeometry x="3050" y="219.95" width="40" height="40" as="geometry" />
        </mxCell>
        <mxCell id="_hT9IFy-ku6c-q67gdyz-2207" value="x9" style="ellipse;whiteSpace=wrap;html=1;aspect=fixed;" vertex="1" parent="1">
          <mxGeometry x="3150" y="279.95" width="40" height="40" as="geometry" />
        </mxCell>
        <mxCell id="_hT9IFy-ku6c-q67gdyz-2208" value="x12" style="ellipse;whiteSpace=wrap;html=1;aspect=fixed;fillColor=#ffe6cc;strokeColor=#d79b00;" vertex="1" parent="1">
          <mxGeometry x="3000" y="429.95" width="40" height="40" as="geometry" />
        </mxCell>
        <mxCell id="_hT9IFy-ku6c-q67gdyz-2209" value="x13" style="ellipse;whiteSpace=wrap;html=1;aspect=fixed;" vertex="1" parent="1">
          <mxGeometry x="2880" y="399.95" width="40" height="40" as="geometry" />
        </mxCell>
        <mxCell id="_hT9IFy-ku6c-q67gdyz-2210" value="x14" style="ellipse;whiteSpace=wrap;html=1;aspect=fixed;" vertex="1" parent="1">
          <mxGeometry x="2760" y="439.95" width="40" height="40" as="geometry" />
        </mxCell>
        <mxCell id="_hT9IFy-ku6c-q67gdyz-2211" value="x15" style="ellipse;whiteSpace=wrap;html=1;aspect=fixed;" vertex="1" parent="1">
          <mxGeometry x="2640" y="429.95" width="40" height="40" as="geometry" />
        </mxCell>
        <mxCell id="_hT9IFy-ku6c-q67gdyz-2212" value="x5" style="ellipse;whiteSpace=wrap;html=1;aspect=fixed;" vertex="1" parent="1">
          <mxGeometry x="2810" y="269.95" width="40" height="40" as="geometry" />
        </mxCell>
        <mxCell id="_hT9IFy-ku6c-q67gdyz-2213" value="x4" style="ellipse;whiteSpace=wrap;html=1;aspect=fixed;" vertex="1" parent="1">
          <mxGeometry x="2710" y="229.95" width="40" height="40" as="geometry" />
        </mxCell>
        <mxCell id="_hT9IFy-ku6c-q67gdyz-2214" value="v24" style="edgeStyle=orthogonalEdgeStyle;rounded=0;orthogonalLoop=1;jettySize=auto;html=1;entryX=1;entryY=0.5;entryDx=0;entryDy=0;" edge="1" parent="1" source="_hT9IFy-ku6c-q67gdyz-2215" target="_hT9IFy-ku6c-q67gdyz-2203">
          <mxGeometry x="-0.24" relative="1" as="geometry">
            <Array as="points">
              <mxPoint x="2580" y="159.95" />
              <mxPoint x="3200" y="159.95" />
              <mxPoint x="3200" y="439.95" />
            </Array>
            <mxPoint as="offset" />
          </mxGeometry>
        </mxCell>
        <mxCell id="_hT9IFy-ku6c-q67gdyz-2215" value="x3" style="ellipse;whiteSpace=wrap;html=1;aspect=fixed;" vertex="1" parent="1">
          <mxGeometry x="2560" y="239.95" width="40" height="40" as="geometry" />
        </mxCell>
        <mxCell id="_hT9IFy-ku6c-q67gdyz-2216" value="x2" style="ellipse;whiteSpace=wrap;html=1;aspect=fixed;" vertex="1" parent="1">
          <mxGeometry x="2630" y="299.95" width="40" height="40" as="geometry" />
        </mxCell>
        <mxCell id="_hT9IFy-ku6c-q67gdyz-2217" value="x1" style="ellipse;whiteSpace=wrap;html=1;aspect=fixed;" vertex="1" parent="1">
          <mxGeometry x="2550" y="359.95" width="40" height="40" as="geometry" />
        </mxCell>
        <mxCell id="_hT9IFy-ku6c-q67gdyz-2218" value="x6" style="ellipse;whiteSpace=wrap;html=1;aspect=fixed;" vertex="1" parent="1">
          <mxGeometry x="2900" y="229.95" width="40" height="40" as="geometry" />
        </mxCell>
        <mxCell id="_hT9IFy-ku6c-q67gdyz-2219" value="v1" style="endArrow=classic;html=1;rounded=0;exitX=1;exitY=0;exitDx=0;exitDy=0;entryX=0;entryY=1;entryDx=0;entryDy=0;" edge="1" parent="1" source="_hT9IFy-ku6c-q67gdyz-2217" target="_hT9IFy-ku6c-q67gdyz-2216">
          <mxGeometry width="50" height="50" relative="1" as="geometry">
            <mxPoint x="2790" y="369.95" as="sourcePoint" />
            <mxPoint x="2840" y="319.95" as="targetPoint" />
          </mxGeometry>
        </mxCell>
        <mxCell id="_hT9IFy-ku6c-q67gdyz-2220" value="v2" style="endArrow=classic;html=1;rounded=0;exitX=0.5;exitY=0;exitDx=0;exitDy=0;entryX=0.5;entryY=1;entryDx=0;entryDy=0;" edge="1" parent="1" source="_hT9IFy-ku6c-q67gdyz-2217" target="_hT9IFy-ku6c-q67gdyz-2215">
          <mxGeometry width="50" height="50" relative="1" as="geometry">
            <mxPoint x="2594" y="375.95" as="sourcePoint" />
            <mxPoint x="2646" y="343.95" as="targetPoint" />
          </mxGeometry>
        </mxCell>
        <mxCell id="_hT9IFy-ku6c-q67gdyz-2221" value="v23" style="endArrow=classic;html=1;rounded=0;exitX=0;exitY=0;exitDx=0;exitDy=0;entryX=1;entryY=1;entryDx=0;entryDy=0;" edge="1" parent="1" source="_hT9IFy-ku6c-q67gdyz-2211" target="_hT9IFy-ku6c-q67gdyz-2217">
          <mxGeometry width="50" height="50" relative="1" as="geometry">
            <mxPoint x="2790" y="369.95" as="sourcePoint" />
            <mxPoint x="2670" y="379.95" as="targetPoint" />
          </mxGeometry>
        </mxCell>
        <mxCell id="_hT9IFy-ku6c-q67gdyz-2222" value="v19" style="endArrow=classic;html=1;rounded=0;exitX=0;exitY=0.5;exitDx=0;exitDy=0;entryX=1;entryY=0.5;entryDx=0;entryDy=0;" edge="1" parent="1" source="_hT9IFy-ku6c-q67gdyz-2210" target="_hT9IFy-ku6c-q67gdyz-2211">
          <mxGeometry width="50" height="50" relative="1" as="geometry">
            <mxPoint x="2604" y="385.95" as="sourcePoint" />
            <mxPoint x="2656" y="353.95" as="targetPoint" />
          </mxGeometry>
        </mxCell>
        <mxCell id="_hT9IFy-ku6c-q67gdyz-2223" value="v20" style="endArrow=classic;html=1;rounded=0;exitX=0.5;exitY=0;exitDx=0;exitDy=0;entryX=0;entryY=1;entryDx=0;entryDy=0;" edge="1" parent="1" source="_hT9IFy-ku6c-q67gdyz-2210" target="_hT9IFy-ku6c-q67gdyz-2212">
          <mxGeometry x="-0.4132" y="1" width="50" height="50" relative="1" as="geometry">
            <mxPoint x="2614" y="395.95" as="sourcePoint" />
            <mxPoint x="2666" y="363.95" as="targetPoint" />
            <mxPoint as="offset" />
          </mxGeometry>
        </mxCell>
        <mxCell id="_hT9IFy-ku6c-q67gdyz-2225" value="v4" style="endArrow=classic;html=1;rounded=0;exitX=1;exitY=0;exitDx=0;exitDy=0;entryX=0;entryY=1;entryDx=0;entryDy=0;" edge="1" parent="1" source="_hT9IFy-ku6c-q67gdyz-2216" target="_hT9IFy-ku6c-q67gdyz-2213">
          <mxGeometry width="50" height="50" relative="1" as="geometry">
            <mxPoint x="2790" y="369.95" as="sourcePoint" />
            <mxPoint x="2840" y="319.95" as="targetPoint" />
          </mxGeometry>
        </mxCell>
        <mxCell id="_hT9IFy-ku6c-q67gdyz-2226" value="v3" style="endArrow=classic;html=1;rounded=0;exitX=0;exitY=0;exitDx=0;exitDy=0;entryX=1;entryY=1;entryDx=0;entryDy=0;" edge="1" parent="1" source="_hT9IFy-ku6c-q67gdyz-2216" target="_hT9IFy-ku6c-q67gdyz-2215">
          <mxGeometry width="50" height="50" relative="1" as="geometry">
            <mxPoint x="2790" y="369.95" as="sourcePoint" />
            <mxPoint x="2840" y="319.95" as="targetPoint" />
          </mxGeometry>
        </mxCell>
        <mxCell id="_hT9IFy-ku6c-q67gdyz-2227" value="v5" style="endArrow=classic;html=1;rounded=0;exitX=1;exitY=0.5;exitDx=0;exitDy=0;entryX=0;entryY=0.5;entryDx=0;entryDy=0;" edge="1" parent="1" source="_hT9IFy-ku6c-q67gdyz-2215" target="_hT9IFy-ku6c-q67gdyz-2213">
          <mxGeometry width="50" height="50" relative="1" as="geometry">
            <mxPoint x="2790" y="369.95" as="sourcePoint" />
            <mxPoint x="2840" y="319.95" as="targetPoint" />
          </mxGeometry>
        </mxCell>
        <mxCell id="_hT9IFy-ku6c-q67gdyz-2228" value="v6" style="endArrow=classic;html=1;rounded=0;exitX=1;exitY=0.5;exitDx=0;exitDy=0;entryX=0.021;entryY=0.383;entryDx=0;entryDy=0;entryPerimeter=0;" edge="1" parent="1" source="_hT9IFy-ku6c-q67gdyz-2213" target="_hT9IFy-ku6c-q67gdyz-2212">
          <mxGeometry width="50" height="50" relative="1" as="geometry">
            <mxPoint x="2790" y="369.95" as="sourcePoint" />
            <mxPoint x="2840" y="319.95" as="targetPoint" />
          </mxGeometry>
        </mxCell>
        <mxCell id="_hT9IFy-ku6c-q67gdyz-2229" value="v7" style="endArrow=classic;html=1;rounded=0;exitX=1;exitY=0.5;exitDx=0;exitDy=0;entryX=0.029;entryY=0.728;entryDx=0;entryDy=0;entryPerimeter=0;" edge="1" parent="1" source="_hT9IFy-ku6c-q67gdyz-2212" target="_hT9IFy-ku6c-q67gdyz-2218">
          <mxGeometry width="50" height="50" relative="1" as="geometry">
            <mxPoint x="2790" y="369.95" as="sourcePoint" />
            <mxPoint x="2840" y="319.95" as="targetPoint" />
          </mxGeometry>
        </mxCell>
        <mxCell id="_hT9IFy-ku6c-q67gdyz-2230" value="v8" style="endArrow=classic;html=1;rounded=0;exitX=1;exitY=0;exitDx=0;exitDy=0;entryX=0;entryY=1;entryDx=0;entryDy=0;" edge="1" parent="1" source="_hT9IFy-ku6c-q67gdyz-2218" target="_hT9IFy-ku6c-q67gdyz-2205">
          <mxGeometry x="0.0004" width="50" height="50" relative="1" as="geometry">
            <mxPoint x="2860" y="299.95" as="sourcePoint" />
            <mxPoint x="2911" y="268.95" as="targetPoint" />
            <mxPoint as="offset" />
          </mxGeometry>
        </mxCell>
        <mxCell id="_hT9IFy-ku6c-q67gdyz-2231" value="v10" style="endArrow=classic;html=1;rounded=0;exitX=1;exitY=1;exitDx=0;exitDy=0;entryX=0;entryY=0;entryDx=0;entryDy=0;" edge="1" parent="1" source="_hT9IFy-ku6c-q67gdyz-2205" target="_hT9IFy-ku6c-q67gdyz-2206">
          <mxGeometry x="0.0004" width="50" height="50" relative="1" as="geometry">
            <mxPoint x="2944" y="245.95" as="sourcePoint" />
            <mxPoint x="2996" y="213.95" as="targetPoint" />
            <mxPoint as="offset" />
          </mxGeometry>
        </mxCell>
        <mxCell id="_hT9IFy-ku6c-q67gdyz-2233" value="v22" style="endArrow=classic;html=1;rounded=0;exitX=1;exitY=1;exitDx=0;exitDy=0;entryX=0;entryY=1;entryDx=0;entryDy=0;curved=1;" edge="1" parent="1" source="_hT9IFy-ku6c-q67gdyz-2218" target="_hT9IFy-ku6c-q67gdyz-2206">
          <mxGeometry width="50" height="50" relative="1" as="geometry">
            <mxPoint x="2950" y="259.95" as="sourcePoint" />
            <mxPoint x="3060" y="249.95" as="targetPoint" />
            <Array as="points">
              <mxPoint x="2990" y="279.95" />
            </Array>
          </mxGeometry>
        </mxCell>
        <mxCell id="_hT9IFy-ku6c-q67gdyz-2234" value="v11" style="endArrow=classic;html=1;rounded=0;exitX=1;exitY=1;exitDx=0;exitDy=0;entryX=0;entryY=0;entryDx=0;entryDy=0;" edge="1" parent="1" source="_hT9IFy-ku6c-q67gdyz-2206" target="_hT9IFy-ku6c-q67gdyz-2207">
          <mxGeometry width="50" height="50" relative="1" as="geometry">
            <mxPoint x="2790" y="369.95" as="sourcePoint" />
            <mxPoint x="3150" y="289.95" as="targetPoint" />
          </mxGeometry>
        </mxCell>
        <mxCell id="_hT9IFy-ku6c-q67gdyz-2235" value="v13" style="endArrow=classic;html=1;rounded=0;exitX=0;exitY=1;exitDx=0;exitDy=0;entryX=1;entryY=0;entryDx=0;entryDy=0;" edge="1" parent="1" source="_hT9IFy-ku6c-q67gdyz-2207" target="_hT9IFy-ku6c-q67gdyz-2204">
          <mxGeometry width="50" height="50" relative="1" as="geometry">
            <mxPoint x="2790" y="369.95" as="sourcePoint" />
            <mxPoint x="2840" y="319.95" as="targetPoint" />
          </mxGeometry>
        </mxCell>
        <mxCell id="_hT9IFy-ku6c-q67gdyz-2236" value="v12" style="endArrow=classic;html=1;rounded=0;exitX=0.5;exitY=1;exitDx=0;exitDy=0;entryX=0.5;entryY=0;entryDx=0;entryDy=0;" edge="1" parent="1" source="_hT9IFy-ku6c-q67gdyz-2207" target="_hT9IFy-ku6c-q67gdyz-2203">
          <mxGeometry width="50" height="50" relative="1" as="geometry">
            <mxPoint x="3166" y="323.95" as="sourcePoint" />
            <mxPoint x="3114" y="375.95" as="targetPoint" />
          </mxGeometry>
        </mxCell>
        <mxCell id="_hT9IFy-ku6c-q67gdyz-2237" value="v14" style="endArrow=classic;html=1;rounded=0;exitX=0;exitY=0;exitDx=0;exitDy=0;entryX=1;entryY=1;entryDx=0;entryDy=0;" edge="1" parent="1" source="_hT9IFy-ku6c-q67gdyz-2203" target="_hT9IFy-ku6c-q67gdyz-2204">
          <mxGeometry width="50" height="50" relative="1" as="geometry">
            <mxPoint x="3166" y="323.95" as="sourcePoint" />
            <mxPoint x="3114" y="375.95" as="targetPoint" />
          </mxGeometry>
        </mxCell>
        <mxCell id="_hT9IFy-ku6c-q67gdyz-2238" value="v16" style="endArrow=classic;html=1;rounded=0;exitX=0;exitY=1;exitDx=0;exitDy=0;entryX=0.788;entryY=-0.014;entryDx=0;entryDy=0;entryPerimeter=0;" edge="1" parent="1" source="_hT9IFy-ku6c-q67gdyz-2204" target="_hT9IFy-ku6c-q67gdyz-2208">
          <mxGeometry width="50" height="50" relative="1" as="geometry">
            <mxPoint x="3176" y="333.95" as="sourcePoint" />
            <mxPoint x="3124" y="385.95" as="targetPoint" />
          </mxGeometry>
        </mxCell>
        <mxCell id="_hT9IFy-ku6c-q67gdyz-2239" value="v15" style="endArrow=classic;html=1;rounded=0;exitX=0;exitY=0.5;exitDx=0;exitDy=0;entryX=1;entryY=0.5;entryDx=0;entryDy=0;" edge="1" parent="1" source="_hT9IFy-ku6c-q67gdyz-2203" target="_hT9IFy-ku6c-q67gdyz-2208">
          <mxGeometry width="50" height="50" relative="1" as="geometry">
            <mxPoint x="2950" y="259.95" as="sourcePoint" />
            <mxPoint x="3060" y="249.95" as="targetPoint" />
          </mxGeometry>
        </mxCell>
        <mxCell id="_hT9IFy-ku6c-q67gdyz-2240" value="v17" style="endArrow=classic;html=1;rounded=0;exitX=-0.005;exitY=0.366;exitDx=0;exitDy=0;entryX=1;entryY=0.5;entryDx=0;entryDy=0;exitPerimeter=0;" edge="1" parent="1" source="_hT9IFy-ku6c-q67gdyz-2208" target="_hT9IFy-ku6c-q67gdyz-2209">
          <mxGeometry width="50" height="50" relative="1" as="geometry">
            <mxPoint x="2960" y="269.95" as="sourcePoint" />
            <mxPoint x="3070" y="259.95" as="targetPoint" />
          </mxGeometry>
        </mxCell>
        <mxCell id="_hT9IFy-ku6c-q67gdyz-2241" value="v18" style="endArrow=classic;html=1;rounded=0;exitX=0;exitY=0.5;exitDx=0;exitDy=0;entryX=1;entryY=0.5;entryDx=0;entryDy=0;" edge="1" parent="1" source="_hT9IFy-ku6c-q67gdyz-2209" target="_hT9IFy-ku6c-q67gdyz-2210">
          <mxGeometry width="50" height="50" relative="1" as="geometry">
            <mxPoint x="2970" y="279.95" as="sourcePoint" />
            <mxPoint x="3080" y="269.95" as="targetPoint" />
          </mxGeometry>
        </mxCell>
        <mxCell id="_hT9IFy-ku6c-q67gdyz-2307" value="" style="endArrow=classic;html=1;rounded=0;exitX=1;exitY=1;exitDx=0;exitDy=0;entryX=1;entryY=0.5;entryDx=0;entryDy=0;dashed=1;curved=1;" edge="1" parent="1" source="_hT9IFy-ku6c-q67gdyz-2213" target="_hT9IFy-ku6c-q67gdyz-2216">
          <mxGeometry width="50" height="50" relative="1" as="geometry">
            <mxPoint x="2870" y="390" as="sourcePoint" />
            <mxPoint x="2920" y="340" as="targetPoint" />
            <Array as="points">
              <mxPoint x="2730" y="310" />
            </Array>
          </mxGeometry>
        </mxCell>
        <mxCell id="_hT9IFy-ku6c-q67gdyz-2308" value="" style="endArrow=classic;html=1;rounded=0;exitX=0.5;exitY=1;exitDx=0;exitDy=0;entryX=1;entryY=0;entryDx=0;entryDy=0;dashed=1;curved=1;" edge="1" parent="1" source="_hT9IFy-ku6c-q67gdyz-2212" target="_hT9IFy-ku6c-q67gdyz-2210">
          <mxGeometry width="50" height="50" relative="1" as="geometry">
            <mxPoint x="2850" y="335" as="sourcePoint" />
            <mxPoint x="2776" y="391" as="targetPoint" />
            <Array as="points">
              <mxPoint x="2820" y="380" />
            </Array>
          </mxGeometry>
        </mxCell>
        <mxCell id="_hT9IFy-ku6c-q67gdyz-2310" value="" style="endArrow=classic;html=1;rounded=0;exitX=0;exitY=0.751;exitDx=0;exitDy=0;entryX=1;entryY=0.5;entryDx=0;entryDy=0;dashed=1;curved=1;exitPerimeter=0;" edge="1" parent="1" source="_hT9IFy-ku6c-q67gdyz-2206" target="_hT9IFy-ku6c-q67gdyz-2218">
          <mxGeometry width="50" height="50" relative="1" as="geometry">
            <mxPoint x="2840" y="320" as="sourcePoint" />
            <mxPoint x="2804" y="456" as="targetPoint" />
            <Array as="points">
              <mxPoint x="3000" y="240" />
            </Array>
          </mxGeometry>
        </mxCell>
        <mxCell id="_hT9IFy-ku6c-q67gdyz-2313" value="" style="endArrow=classic;html=1;rounded=0;exitX=0;exitY=0;exitDx=0;exitDy=0;dashed=1;curved=1;entryX=0;entryY=0.5;entryDx=0;entryDy=0;" edge="1" parent="1" source="_hT9IFy-ku6c-q67gdyz-2204" target="_hT9IFy-ku6c-q67gdyz-2207">
          <mxGeometry width="50" height="50" relative="1" as="geometry">
            <mxPoint x="3060" y="260" as="sourcePoint" />
            <mxPoint x="3040" y="310" as="targetPoint" />
            <Array as="points">
              <mxPoint x="3070" y="320" />
            </Array>
          </mxGeometry>
        </mxCell>
        <mxCell id="_hT9IFy-ku6c-q67gdyz-2315" value="" style="endArrow=classic;html=1;rounded=0;exitX=0;exitY=0.5;exitDx=0;exitDy=0;entryX=0.5;entryY=1;entryDx=0;entryDy=0;curved=1;dashed=1;" edge="1" parent="1" source="_hT9IFy-ku6c-q67gdyz-2208" target="_hT9IFy-ku6c-q67gdyz-2217">
          <mxGeometry width="50" height="50" relative="1" as="geometry">
            <mxPoint x="2870" y="390" as="sourcePoint" />
            <mxPoint x="2920" y="340" as="targetPoint" />
            <Array as="points">
              <mxPoint x="2830" y="590" />
              <mxPoint x="2560" y="450" />
            </Array>
          </mxGeometry>
        </mxCell>
        <mxCell id="_hT9IFy-ku6c-q67gdyz-2358" value="x10" style="ellipse;whiteSpace=wrap;html=1;aspect=fixed;" vertex="1" parent="1">
          <mxGeometry x="3160" y="965" width="40" height="40" as="geometry" />
        </mxCell>
        <mxCell id="_hT9IFy-ku6c-q67gdyz-2359" value="x11" style="ellipse;whiteSpace=wrap;html=1;aspect=fixed;" vertex="1" parent="1">
          <mxGeometry x="3090" y="905" width="40" height="40" as="geometry" />
        </mxCell>
        <mxCell id="_hT9IFy-ku6c-q67gdyz-2360" value="x7" style="ellipse;whiteSpace=wrap;html=1;aspect=fixed;" vertex="1" parent="1">
          <mxGeometry x="3000" y="715" width="40" height="40" as="geometry" />
        </mxCell>
        <mxCell id="_hT9IFy-ku6c-q67gdyz-2361" value="x8" style="ellipse;whiteSpace=wrap;html=1;aspect=fixed;" vertex="1" parent="1">
          <mxGeometry x="3070" y="765" width="40" height="40" as="geometry" />
        </mxCell>
        <mxCell id="_hT9IFy-ku6c-q67gdyz-2362" value="x9" style="ellipse;whiteSpace=wrap;html=1;aspect=fixed;" vertex="1" parent="1">
          <mxGeometry x="3170" y="825" width="40" height="40" as="geometry" />
        </mxCell>
        <mxCell id="_hT9IFy-ku6c-q67gdyz-2363" value="x12" style="ellipse;whiteSpace=wrap;html=1;aspect=fixed;direction=south;fillColor=#ffe6cc;strokeColor=#d79b00;" vertex="1" parent="1">
          <mxGeometry x="3020" y="975" width="40" height="40" as="geometry" />
        </mxCell>
        <mxCell id="_hT9IFy-ku6c-q67gdyz-2364" value="x13" style="ellipse;whiteSpace=wrap;html=1;aspect=fixed;" vertex="1" parent="1">
          <mxGeometry x="2900" y="945" width="40" height="40" as="geometry" />
        </mxCell>
        <mxCell id="_hT9IFy-ku6c-q67gdyz-2365" value="x14" style="ellipse;whiteSpace=wrap;html=1;aspect=fixed;" vertex="1" parent="1">
          <mxGeometry x="2780" y="985" width="40" height="40" as="geometry" />
        </mxCell>
        <mxCell id="_hT9IFy-ku6c-q67gdyz-2366" value="x15" style="ellipse;whiteSpace=wrap;html=1;aspect=fixed;" vertex="1" parent="1">
          <mxGeometry x="2660" y="975" width="40" height="40" as="geometry" />
        </mxCell>
        <mxCell id="_hT9IFy-ku6c-q67gdyz-2367" value="x5" style="ellipse;whiteSpace=wrap;html=1;aspect=fixed;" vertex="1" parent="1">
          <mxGeometry x="2830" y="815" width="40" height="40" as="geometry" />
        </mxCell>
        <mxCell id="_hT9IFy-ku6c-q67gdyz-2368" value="x4" style="ellipse;whiteSpace=wrap;html=1;aspect=fixed;" vertex="1" parent="1">
          <mxGeometry x="2730" y="775" width="40" height="40" as="geometry" />
        </mxCell>
        <mxCell id="_hT9IFy-ku6c-q67gdyz-2370" value="x3" style="ellipse;whiteSpace=wrap;html=1;aspect=fixed;" vertex="1" parent="1">
          <mxGeometry x="2580" y="785" width="40" height="40" as="geometry" />
        </mxCell>
        <mxCell id="_hT9IFy-ku6c-q67gdyz-2371" value="x2" style="ellipse;whiteSpace=wrap;html=1;aspect=fixed;" vertex="1" parent="1">
          <mxGeometry x="2650" y="845" width="40" height="40" as="geometry" />
        </mxCell>
        <mxCell id="_hT9IFy-ku6c-q67gdyz-2372" value="x1" style="ellipse;whiteSpace=wrap;html=1;aspect=fixed;" vertex="1" parent="1">
          <mxGeometry x="2570" y="905" width="40" height="40" as="geometry" />
        </mxCell>
        <mxCell id="_hT9IFy-ku6c-q67gdyz-2373" value="x6" style="ellipse;whiteSpace=wrap;html=1;aspect=fixed;" vertex="1" parent="1">
          <mxGeometry x="2920" y="775" width="40" height="40" as="geometry" />
        </mxCell>
        <mxCell id="_hT9IFy-ku6c-q67gdyz-2400" value="x10" style="ellipse;whiteSpace=wrap;html=1;aspect=fixed;" vertex="1" parent="1">
          <mxGeometry x="1566" y="399.92" width="40" height="40" as="geometry" />
        </mxCell>
        <mxCell id="_hT9IFy-ku6c-q67gdyz-2401" value="x11" style="ellipse;whiteSpace=wrap;html=1;aspect=fixed;" vertex="1" parent="1">
          <mxGeometry x="1496" y="339.92" width="40" height="40" as="geometry" />
        </mxCell>
        <mxCell id="_hT9IFy-ku6c-q67gdyz-2404" value="x9" style="ellipse;whiteSpace=wrap;html=1;aspect=fixed;" vertex="1" parent="1">
          <mxGeometry x="1576" y="259.92" width="40" height="40" as="geometry" />
        </mxCell>
        <mxCell id="_hT9IFy-ku6c-q67gdyz-2405" value="x12" style="ellipse;whiteSpace=wrap;html=1;aspect=fixed;" vertex="1" parent="1">
          <mxGeometry x="1426" y="409.92" width="40" height="40" as="geometry" />
        </mxCell>
        <mxCell id="_hT9IFy-ku6c-q67gdyz-2406" value="x13" style="ellipse;whiteSpace=wrap;html=1;aspect=fixed;" vertex="1" parent="1">
          <mxGeometry x="1306" y="379.92" width="40" height="40" as="geometry" />
        </mxCell>
        <mxCell id="_hT9IFy-ku6c-q67gdyz-2407" value="x14" style="ellipse;whiteSpace=wrap;html=1;aspect=fixed;" vertex="1" parent="1">
          <mxGeometry x="1186" y="419.92" width="40" height="40" as="geometry" />
        </mxCell>
        <mxCell id="_hT9IFy-ku6c-q67gdyz-2408" value="x15" style="ellipse;whiteSpace=wrap;html=1;aspect=fixed;" vertex="1" parent="1">
          <mxGeometry x="1066" y="409.92" width="40" height="40" as="geometry" />
        </mxCell>
        <mxCell id="_hT9IFy-ku6c-q67gdyz-2419" value="v19" style="endArrow=classic;html=1;rounded=0;exitX=0;exitY=0.5;exitDx=0;exitDy=0;entryX=1;entryY=0.5;entryDx=0;entryDy=0;" edge="1" parent="1" source="_hT9IFy-ku6c-q67gdyz-2407" target="_hT9IFy-ku6c-q67gdyz-2408">
          <mxGeometry width="50" height="50" relative="1" as="geometry">
            <mxPoint x="1030" y="365.92" as="sourcePoint" />
            <mxPoint x="1082" y="333.92" as="targetPoint" />
          </mxGeometry>
        </mxCell>
        <mxCell id="_hT9IFy-ku6c-q67gdyz-2432" value="v13" style="endArrow=classic;html=1;rounded=0;exitX=0;exitY=1;exitDx=0;exitDy=0;entryX=1;entryY=0;entryDx=0;entryDy=0;" edge="1" parent="1" source="_hT9IFy-ku6c-q67gdyz-2404" target="_hT9IFy-ku6c-q67gdyz-2401">
          <mxGeometry width="50" height="50" relative="1" as="geometry">
            <mxPoint x="1216" y="349.92" as="sourcePoint" />
            <mxPoint x="1266" y="299.92" as="targetPoint" />
          </mxGeometry>
        </mxCell>
        <mxCell id="_hT9IFy-ku6c-q67gdyz-2433" value="v12" style="endArrow=classic;html=1;rounded=0;exitX=0.5;exitY=1;exitDx=0;exitDy=0;entryX=0.5;entryY=0;entryDx=0;entryDy=0;" edge="1" parent="1" source="_hT9IFy-ku6c-q67gdyz-2404" target="_hT9IFy-ku6c-q67gdyz-2400">
          <mxGeometry width="50" height="50" relative="1" as="geometry">
            <mxPoint x="1592" y="303.92" as="sourcePoint" />
            <mxPoint x="1540" y="355.92" as="targetPoint" />
          </mxGeometry>
        </mxCell>
        <mxCell id="_hT9IFy-ku6c-q67gdyz-2434" value="v14" style="endArrow=classic;html=1;rounded=0;exitX=0;exitY=0;exitDx=0;exitDy=0;entryX=1;entryY=1;entryDx=0;entryDy=0;" edge="1" parent="1" source="_hT9IFy-ku6c-q67gdyz-2400" target="_hT9IFy-ku6c-q67gdyz-2401">
          <mxGeometry width="50" height="50" relative="1" as="geometry">
            <mxPoint x="1592" y="303.92" as="sourcePoint" />
            <mxPoint x="1540" y="355.92" as="targetPoint" />
          </mxGeometry>
        </mxCell>
        <mxCell id="_hT9IFy-ku6c-q67gdyz-2435" value="v16" style="endArrow=classic;html=1;rounded=0;exitX=0;exitY=1;exitDx=0;exitDy=0;entryX=0.788;entryY=-0.014;entryDx=0;entryDy=0;entryPerimeter=0;" edge="1" parent="1" source="_hT9IFy-ku6c-q67gdyz-2401" target="_hT9IFy-ku6c-q67gdyz-2405">
          <mxGeometry width="50" height="50" relative="1" as="geometry">
            <mxPoint x="1602" y="313.92" as="sourcePoint" />
            <mxPoint x="1550" y="365.92" as="targetPoint" />
          </mxGeometry>
        </mxCell>
        <mxCell id="_hT9IFy-ku6c-q67gdyz-2436" value="v15" style="endArrow=classic;html=1;rounded=0;exitX=0;exitY=0.5;exitDx=0;exitDy=0;entryX=1;entryY=0.5;entryDx=0;entryDy=0;" edge="1" parent="1" source="_hT9IFy-ku6c-q67gdyz-2400" target="_hT9IFy-ku6c-q67gdyz-2405">
          <mxGeometry width="50" height="50" relative="1" as="geometry">
            <mxPoint x="1376" y="239.92" as="sourcePoint" />
            <mxPoint x="1486" y="229.92" as="targetPoint" />
          </mxGeometry>
        </mxCell>
        <mxCell id="_hT9IFy-ku6c-q67gdyz-2437" value="v17" style="endArrow=classic;html=1;rounded=0;exitX=-0.005;exitY=0.366;exitDx=0;exitDy=0;entryX=1;entryY=0.5;entryDx=0;entryDy=0;exitPerimeter=0;" edge="1" parent="1" source="_hT9IFy-ku6c-q67gdyz-2405" target="_hT9IFy-ku6c-q67gdyz-2406">
          <mxGeometry width="50" height="50" relative="1" as="geometry">
            <mxPoint x="1386" y="249.92" as="sourcePoint" />
            <mxPoint x="1496" y="239.92" as="targetPoint" />
          </mxGeometry>
        </mxCell>
        <mxCell id="_hT9IFy-ku6c-q67gdyz-2438" value="v18" style="endArrow=classic;html=1;rounded=0;exitX=0;exitY=0.5;exitDx=0;exitDy=0;entryX=1;entryY=0.5;entryDx=0;entryDy=0;" edge="1" parent="1" source="_hT9IFy-ku6c-q67gdyz-2406" target="_hT9IFy-ku6c-q67gdyz-2407">
          <mxGeometry width="50" height="50" relative="1" as="geometry">
            <mxPoint x="1396" y="259.92" as="sourcePoint" />
            <mxPoint x="1506" y="249.92" as="targetPoint" />
          </mxGeometry>
        </mxCell>
      </root>
    </mxGraphModel>
  </diagram>
</mxfile>
